Atma-Regular.ufo
<glyph name="exclam" format="1">
  <advance width="217"/>
  <unicode hex="0021"/>
  <outline>
    <contour>
      <point x="60" y="708"/>
      <point x="60" y="683"/>
      <point x="60" y="665" type="curve" smooth="yes"/>
      <point x="60" y="532"/>
      <point x="63" y="404"/>
      <point x="75" y="209" type="curve"/>
      <point x="85" y="206"/>
      <point x="96" y="205"/>
      <point x="110" y="205" type="curve" smooth="yes"/>
      <point x="120" y="205"/>
      <point x="127" y="206"/>
      <point x="133" y="207" type="curve"/>
      <point x="128" y="376"/>
      <point x="130" y="562"/>
      <point x="148" y="733" type="curve"/>
      <point x="137" y="735"/>
      <point x="128" y="737"/>
      <point x="114" y="737" type="curve" smooth="yes"/>
      <point x="94" y="737"/>
      <point x="79" y="732"/>
      <point x="61" y="724" type="curve"/>
    </contour>
    <contour>
      <point x="72" y="52"/>
      <point x="71" y="27"/>
      <point x="73" y="0" type="curve"/>
      <point x="84" y="-3"/>
      <point x="96" y="-5"/>
      <point x="110" y="-5" type="curve" smooth="yes"/>
      <point x="123" y="-5"/>
      <point x="135" y="-4"/>
      <point x="150" y="-1" type="curve"/>
      <point x="148" y="27"/>
      <point x="148" y="47"/>
      <point x="145" y="76" type="curve"/>
      <point x="121" y="78"/>
      <point x="101" y="78"/>
      <point x="73" y="77" type="curve"/>
    </contour>
  </outline>
</glyph>
<glyph name="five" format="1">
  <advance width="408"/>
  <unicode hex="0035"/>
  <outline>
    <contour>
      <point x="195" y="-37" type="curve" smooth="yes"/>
      <point x="301" y="-37"/>
      <point x="375" y="54"/>
      <point x="375" y="188" type="curve" smooth="yes"/>
      <point x="375" y="323"/>
      <point x="303" y="402"/>
      <point x="195" y="402" type="curve" smooth="yes"/>
      <point x="171" y="402"/>
      <point x="143" y="397"/>
      <point x="122" y="388" type="curve"/>
      <point x="119" y="453"/>
      <point x="126" y="534"/>
      <point x="142" y="622" type="curve"/>
      <point x="112" y="594" type="line"/>
      <point x="209" y="573"/>
      <point x="277" y="563"/>
      <point x="391" y="552" type="curve"/>
      <point x="400" y="574"/>
      <point x="407" y="599"/>
      <point x="409" y="624" type="curve"/>
      <point x="280" y="627"/>
      <point x="200" y="637"/>
      <point x="77" y="664" type="curve"/>
      <point x="66" y="605"/>
      <point x="56" y="519"/>
      <point x="56" y="433" type="curve" smooth="yes"/>
      <point x="56" y="408"/>
      <point x="57" y="386"/>
      <point x="59" y="361" type="curve"/>
      <point x="66" y="349"/>
      <point x="79" y="337"/>
      <point x="91" y="328" type="curve"/>
      <point x="114" y="340"/>
      <point x="139" y="345"/>
      <point x="162" y="345" type="curve" smooth="yes"/>
      <point x="255" y="345"/>
      <point x="297" y="269"/>
      <point x="297" y="175" type="curve" smooth="yes"/>
      <point x="297" y="70"/>
      <point x="259" y="17"/>
      <point x="193" y="17" type="curve" smooth="yes"/>
      <point x="131" y="17"/>
      <point x="80" y="61"/>
      <point x="80" y="191" type="curve"/>
      <point x="54" y="194"/>
      <point x="27" y="198"/>
      <point x="5" y="198" type="curve"/>
      <point x="13" y="54"/>
      <point x="79" y="-37"/>
    </contour>
  </outline>
</glyph>
<glyph name="nine" format="1">
  <advance width="487"/>
  <unicode hex="0039"/>
  <outline>
    <contour>
      <point x="199" y="28" type="curve"/>
      <point x="298" y="28"/>
      <point x="376" y="176"/>
      <point x="376" y="377" type="curve" smooth="yes"/>
      <point x="376" y="558"/>
      <point x="324" y="654"/>
      <point x="243" y="654" type="curve" smooth="yes"/>
      <point x="175" y="654"/>
      <point x="123" y="581"/>
      <point x="123" y="479" type="curve" smooth="yes"/>
      <point x="123" y="372"/>
      <point x="172" y="320"/>
      <point x="239" y="320" type="curve" smooth="yes"/>
      <point x="305" y="320"/>
      <point x="359" y="383"/>
      <point x="375" y="487" type="curve"/>
      <point x="408" y="420" type="line"/>
      <point x="372" y="318"/>
      <point x="303" y="263"/>
      <point x="221" y="263" type="curve" smooth="yes"/>
      <point x="120" y="263"/>
      <point x="45" y="349"/>
      <point x="45" y="463" type="curve" smooth="yes"/>
      <point x="45" y="606"/>
      <point x="129" y="711"/>
      <point x="245" y="711" type="curve" smooth="yes"/>
      <point x="372" y="711"/>
      <point x="454" y="592"/>
      <point x="454" y="386" type="curve" smooth="yes"/>
      <point x="454" y="154"/>
      <point x="344" y="-30"/>
      <point x="189" y="-30" type="curve" smooth="yes"/>
      <point x="118" y="-30"/>
      <point x="70" y="4"/>
      <point x="33" y="51" type="curve"/>
      <point x="45" y="74"/>
      <point x="59" y="93"/>
      <point x="77" y="111" type="curve"/>
      <point x="104" y="59"/>
      <point x="144" y="28"/>
    </contour>
  </outline>
</glyph>
<glyph name="J" format="1">
  <advance width="458"/>
  <unicode hex="004A"/>
  <outline>
    <contour>
      <point x="201" y="-88" type="curve" smooth="yes"/>
      <point x="275" y="-88"/>
      <point x="325" y="-34"/>
      <point x="351" y="59" type="curve" smooth="yes"/>
      <point x="374" y="140"/>
      <point x="380" y="238"/>
      <point x="380" y="358" type="curve" smooth="yes"/>
      <point x="380" y="478"/>
      <point x="370" y="607"/>
      <point x="357" y="723" type="curve"/>
      <point x="343" y="724"/>
      <point x="329" y="724"/>
      <point x="316" y="722" type="curve" smooth="yes"/>
      <point x="296" y="720"/>
      <point x="278" y="715"/>
      <point x="266" y="708" type="curve"/>
      <point x="287" y="530"/>
      <point x="298" y="380"/>
      <point x="298" y="229" type="curve" smooth="yes"/>
      <point x="298" y="43"/>
      <point x="262" y="-28"/>
      <point x="203" y="-28" type="curve" smooth="yes"/>
      <point x="150" y="-28"/>
      <point x="122" y="18"/>
      <point x="102" y="184" type="curve"/>
      <point x="75" y="178"/>
      <point x="53" y="171"/>
      <point x="33" y="158" type="curve"/>
      <point x="50" y="4"/>
      <point x="109" y="-88"/>
    </contour>
  </outline>
</glyph>
<glyph name="S" format="1">
  <advance width="475"/>
  <unicode hex="0053"/>
  <outline>
    <contour>
      <point x="433" y="148" type="curve" smooth="yes"/>
      <point x="433" y="400"/>
      <point x="159" y="373"/>
      <point x="159" y="587" type="curve" smooth="yes"/>
      <point x="159" y="666"/>
      <point x="194" y="708"/>
      <point x="256" y="708" type="curve" smooth="yes"/>
      <point x="319" y="708"/>
      <point x="355" y="672"/>
      <point x="368" y="559" type="curve"/>
      <point x="398" y="560"/>
      <point x="420" y="564"/>
      <point x="440" y="576" type="curve"/>
      <point x="418" y="692"/>
      <point x="377" y="767"/>
      <point x="259" y="767" type="curve" smooth="yes"/>
      <point x="149" y="767"/>
      <point x="77" y="695"/>
      <point x="77" y="577" type="curve" smooth="yes"/>
      <point x="77" y="323"/>
      <point x="352" y="349"/>
      <point x="352" y="139" type="curve" smooth="yes"/>
      <point x="352" y="68"/>
      <point x="310" y="17"/>
      <point x="241" y="17" type="curve" smooth="yes"/>
      <point x="145" y="17"/>
      <point x="102" y="116"/>
      <point x="103" y="246" type="curve"/>
      <point x="79" y="244"/>
      <point x="52" y="236"/>
      <point x="31" y="225" type="curve"/>
      <point x="31" y="103"/>
      <point x="85" y="-40"/>
      <point x="244" y="-40" type="curve" smooth="yes"/>
      <point x="352" y="-40"/>
      <point x="433" y="35"/>
    </contour>
  </outline>
</glyph>
<glyph name="X" format="1">
  <advance width="642"/>
  <unicode hex="0058"/>
  <outline>
    <contour>
      <point x="576" y="12" type="curve"/>
      <point x="561" y="-3"/>
      <point x="540" y="-18"/>
      <point x="518" y="-28" type="curve"/>
      <point x="362" y="332"/>
      <point x="257" y="511"/>
      <point x="65" y="717" type="curve"/>
      <point x="87" y="737"/>
      <point x="113" y="755"/>
      <point x="142" y="766" type="curve"/>
      <point x="346" y="516"/>
      <point x="438" y="344"/>
    </contour>
    <contour>
      <point x="59" y="19" type="curve"/>
      <point x="42" y="30"/>
      <point x="25" y="46"/>
      <point x="16" y="61" type="curve"/>
      <point x="128" y="181"/>
      <point x="222" y="289"/>
      <point x="315" y="412" type="curve"/>
      <point x="331" y="424" type="line"/>
      <point x="403" y="521"/>
      <point x="470" y="622"/>
      <point x="535" y="742" type="curve"/>
      <point x="557" y="731"/>
      <point x="578" y="711"/>
      <point x="593" y="690" type="curve"/>
      <point x="523" y="575"/>
      <point x="448" y="470"/>
      <point x="370" y="370" type="curve"/>
      <point x="355" y="356" type="line"/>
      <point x="263" y="240"/>
      <point x="172" y="134"/>
    </contour>
  </outline>
</glyph>
<glyph name="l" format="1">
  <advance width="202"/>
  <unicode hex="006C"/>
  <outline>
    <contour>
      <point x="45" y="454"/>
      <point x="50" y="218"/>
      <point x="70" y="-61" type="curve"/>
      <point x="90" y="-61"/>
      <point x="125" y="-57"/>
      <point x="138" y="-53" type="curve"/>
      <point x="123" y="211"/>
      <point x="124" y="518"/>
      <point x="147" y="736" type="curve"/>
      <point x="133" y="740"/>
      <point x="120" y="742"/>
      <point x="107" y="742" type="curve" smooth="yes"/>
      <point x="89" y="742"/>
      <point x="71" y="736"/>
      <point x="60" y="730" type="curve"/>
    </contour>
  </outline>
</glyph>
<glyph name="n" format="1">
  <advance width="461"/>
  <unicode hex="006E"/>
  <outline>
    <contour>
      <point x="374" y="57"/>
      <point x="401" y="207"/>
      <point x="401" y="338" type="curve" smooth="yes"/>
      <point x="401" y="479"/>
      <point x="358" y="526"/>
      <point x="282" y="526" type="curve" smooth="yes"/>
      <point x="220" y="526"/>
      <point x="159" y="480"/>
      <point x="104" y="358" type="curve"/>
      <point x="122" y="308" type="line"/>
      <point x="157" y="409"/>
      <point x="212" y="460"/>
      <point x="259" y="460" type="curve" smooth="yes"/>
      <point x="307" y="460"/>
      <point x="325" y="423"/>
      <point x="325" y="341" type="curve" smooth="yes"/>
      <point x="325" y="238"/>
      <point x="311" y="134"/>
      <point x="291" y="24" type="curve"/>
      <point x="310" y="18"/>
      <point x="339" y="12"/>
      <point x="362" y="11" type="curve"/>
    </contour>
    <contour>
      <point x="50" y="353"/>
      <point x="59" y="92"/>
      <point x="67" y="-36" type="curve"/>
      <point x="89" y="-36"/>
      <point x="116" y="-32"/>
      <point x="133" y="-26" type="curve"/>
      <point x="128" y="19"/>
      <point x="126" y="126"/>
      <point x="126" y="167" type="curve" smooth="yes"/>
      <point x="126" y="272"/>
      <point x="134" y="438"/>
      <point x="142" y="526" type="curve"/>
      <point x="127" y="529"/>
      <point x="115" y="530"/>
      <point x="103" y="530" type="curve" smooth="yes"/>
      <point x="83" y="530"/>
      <point x="63" y="526"/>
      <point x="50" y="519" type="curve"/>
    </contour>
  </outline>
</glyph>
<glyph name="o" format="1">
  <advance width="449"/>
  <unicode hex="006F"/>
  <outline>
    <contour>
      <point x="243" y="536" type="curve" smooth="yes"/>
      <point x="118" y="536"/>
      <point x="30" y="417"/>
      <point x="30" y="242" type="curve" smooth="yes"/>
      <point x="30" y="105"/>
      <point x="89" y="-10"/>
      <point x="204" y="-10" type="curve" smooth="yes"/>
      <point x="337" y="-10"/>
      <point x="410" y="141"/>
      <point x="410" y="320" type="curve" smooth="yes"/>
      <point x="410" y="450"/>
      <point x="348" y="536"/>
    </contour>
    <contour>
      <point x="225" y="480" type="curve" smooth="yes"/>
      <point x="291" y="480"/>
      <point x="330" y="424"/>
      <point x="330" y="278" type="curve" smooth="yes"/>
      <point x="330" y="144"/>
      <point x="274" y="45"/>
      <point x="217" y="45" type="curve" smooth="yes"/>
      <point x="137" y="45"/>
      <point x="106" y="161"/>
      <point x="106" y="252" type="curve" smooth="yes"/>
      <point x="106" y="386"/>
      <point x="164" y="480"/>
    </contour>
  </outline>
</glyph>
<glyph name="r" format="1">
  <advance width="359"/>
  <unicode hex="0072"/>
  <outline>
    <contour>
      <point x="148" y="-2" type="curve"/>
      <point x="110" y="248"/>
      <point x="109" y="383"/>
      <point x="131" y="540" type="curve"/>
      <point x="118" y="544"/>
      <point x="106" y="546"/>
      <point x="92" y="546" type="curve" smooth="yes"/>
      <point x="76" y="546"/>
      <point x="59" y="546"/>
      <point x="45" y="540" type="curve"/>
      <point x="36" y="365"/>
      <point x="45" y="175"/>
      <point x="80" y="-6" type="curve"/>
      <point x="88" y="-9"/>
      <point x="96" y="-10"/>
      <point x="107" y="-9" type="curve" smooth="yes"/>
      <point x="123" y="-9"/>
      <point x="138" y="-6"/>
    </contour>
    <contour>
      <point x="333" y="402" type="curve"/>
      <point x="335" y="423"/>
      <point x="336" y="442"/>
      <point x="336" y="458" type="curve" smooth="yes"/>
      <point x="336" y="542"/>
      <point x="310" y="578"/>
      <point x="258" y="578" type="curve" smooth="yes"/>
      <point x="189" y="578"/>
      <point x="115" y="473"/>
      <point x="97" y="300" type="curve"/>
      <point x="114" y="228" type="line"/>
      <point x="140" y="403"/>
      <point x="194" y="515"/>
      <point x="241" y="515" type="curve" smooth="yes"/>
      <point x="263" y="515"/>
      <point x="273" y="494"/>
      <point x="273" y="452" type="curve" smooth="yes"/>
      <point x="273" y="437"/>
      <point x="272" y="419"/>
      <point x="269" y="397" type="curve"/>
      <point x="290" y="396"/>
      <point x="315" y="397"/>
    </contour>
  </outline>
</glyph>
<glyph name="z" format="1">
  <advance width="441"/>
  <unicode hex="007A"/>
  <outline>
    <contour>
      <point x="367" y="-18" type="curve"/>
      <point x="376" y="2"/>
      <point x="383" y="24"/>
      <point x="384" y="49" type="curve"/>
      <point x="261" y="41"/>
      <point x="179" y="47"/>
      <point x="86" y="59" type="curve"/>
      <point x="195" y="205"/>
      <point x="285" y="308"/>
      <point x="401" y="427" type="curve"/>
      <point x="407" y="443"/>
      <point x="410" y="464"/>
      <point x="410" y="480" type="curve"/>
      <point x="289" y="516"/>
      <point x="206" y="531"/>
      <point x="80" y="541" type="curve"/>
      <point x="70" y="518"/>
      <point x="67" y="504"/>
      <point x="65" y="476" type="curve"/>
      <point x="167" y="468"/>
      <point x="235" y="462"/>
      <point x="332" y="444" type="curve"/>
      <point x="217" y="328"/>
      <point x="124" y="216"/>
      <point x="18" y="73" type="curve"/>
      <point x="15" y="58"/>
      <point x="14" y="41"/>
      <point x="15" y="21" type="curve"/>
      <point x="111" y="-3"/>
      <point x="214" y="-17"/>
    </contour>
  </outline>
</glyph>
<glyph name="asciitilde" format="1">
  <advance width="354"/>
  <unicode hex="007E"/>
  <outline>
    <contour>
      <point x="238" y="333" type="curve" smooth="yes"/>
      <point x="203" y="333"/>
      <point x="154" y="369"/>
      <point x="105" y="369" type="curve" smooth="yes"/>
      <point x="55" y="369"/>
      <point x="24" y="334"/>
      <point x="29" y="283" type="curve"/>
      <point x="42" y="279"/>
      <point x="57" y="275"/>
      <point x="71" y="276" type="curve"/>
      <point x="69" y="305"/>
      <point x="81" y="318"/>
      <point x="110" y="318" type="curve" smooth="yes"/>
      <point x="143" y="318"/>
      <point x="192" y="282"/>
      <point x="246" y="282" type="curve" smooth="yes"/>
      <point x="296" y="282"/>
      <point x="329" y="317"/>
      <point x="324" y="369" type="curve"/>
      <point x="309" y="375"/>
      <point x="296" y="378"/>
      <point x="279" y="377" type="curve"/>
      <point x="281" y="349"/>
      <point x="267" y="333"/>
    </contour>
  </outline>
</glyph>
<glyph name="guillemotleft" format="1">
  <advance width="471"/>
  <unicode hex="00AB"/>
  <outline>
    <contour>
      <point x="187" y="63" type="curve"/>
      <point x="207" y="74"/>
      <point x="220" y="88"/>
      <point x="235" y="111" type="curve"/>
      <point x="153" y="166"/>
      <point x="97" y="226"/>
      <point x="61" y="283" type="curve"/>
      <point x="9" y="264" type="line"/>
      <point x="52" y="186"/>
      <point x="109" y="122"/>
    </contour>
    <contour>
      <point x="232" y="397" type="curve"/>
      <point x="220" y="415"/>
      <point x="203" y="428"/>
      <point x="182" y="442" type="curve"/>
      <point x="127" y="360"/>
      <point x="68" y="301"/>
      <point x="9" y="264" type="curve"/>
      <point x="47" y="229" type="line"/>
      <point x="119" y="272"/>
      <point x="177" y="325"/>
    </contour>
    <contour>
      <point x="395" y="63" type="curve"/>
      <point x="416" y="74"/>
      <point x="428" y="88"/>
      <point x="444" y="111" type="curve"/>
      <point x="362" y="166"/>
      <point x="305" y="226"/>
      <point x="270" y="283" type="curve"/>
      <point x="217" y="264" type="line"/>
      <point x="260" y="186"/>
      <point x="317" y="122"/>
    </contour>
    <contour>
      <point x="441" y="397" type="curve"/>
      <point x="429" y="415"/>
      <point x="412" y="428"/>
      <point x="390" y="442" type="curve"/>
      <point x="336" y="360"/>
      <point x="276" y="301"/>
      <point x="217" y="264" type="curve"/>
      <point x="256" y="229" type="line"/>
      <point x="328" y="272"/>
      <point x="385" y="325"/>
    </contour>
  </outline>
</glyph>
<glyph name="twosuperior" format="1">
  <advance width="275"/>
  <unicode hex="00B2"/>
  <outline>
    <contour>
      <point x="264" y="602" type="curve" smooth="yes"/>
      <point x="264" y="669"/>
      <point x="217" y="714"/>
      <point x="148" y="714" type="curve" smooth="yes"/>
      <point x="86" y="714"/>
      <point x="34" y="677"/>
      <point x="14" y="591" type="curve"/>
      <point x="34" y="582"/>
      <point x="54" y="579"/>
      <point x="77" y="579" type="curve"/>
      <point x="90" y="643"/>
      <point x="114" y="673"/>
      <point x="146" y="673" type="curve" smooth="yes"/>
      <point x="178" y="673"/>
      <point x="195" y="647"/>
      <point x="195" y="610" type="curve" smooth="yes"/>
      <point x="195" y="532"/>
      <point x="145" y="464"/>
      <point x="5" y="366" type="curve"/>
      <point x="0" y="353"/>
      <point x="-1" y="339"/>
      <point x="-1" y="325" type="curve"/>
      <point x="61" y="306"/>
      <point x="151" y="295"/>
      <point x="249" y="290" type="curve"/>
      <point x="256" y="307"/>
      <point x="261" y="325"/>
      <point x="262" y="346" type="curve"/>
      <point x="182" y="346"/>
      <point x="129" y="350"/>
      <point x="57" y="358" type="curve"/>
      <point x="57" y="342" type="line"/>
      <point x="195" y="432"/>
      <point x="264" y="522"/>
    </contour>
  </outline>
</glyph>
<glyph name="paragraph" format="1">
  <advance width="644"/>
  <unicode hex="00B6"/>
  <outline>
    <contour>
      <point x="544" y="-275" type="curve"/>
      <point x="577" y="111"/>
      <point x="580" y="384"/>
      <point x="570" y="717" type="curve"/>
      <point x="475" y="750"/>
      <point x="416" y="763"/>
      <point x="329" y="763" type="curve" smooth="yes"/>
      <point x="155" y="763"/>
      <point x="68" y="678"/>
      <point x="68" y="564" type="curve" smooth="yes"/>
      <point x="68" y="420"/>
      <point x="171" y="320"/>
      <point x="399" y="250" type="curve"/>
      <point x="399" y="99"/>
      <point x="390" y="-50"/>
      <point x="376" y="-278" type="curve"/>
      <point x="396" y="-280"/>
      <point x="418" y="-278"/>
      <point x="433" y="-275" type="curve"/>
      <point x="468" y="149"/>
      <point x="469" y="347"/>
      <point x="459" y="690" type="curve"/>
      <point x="475" y="686"/>
      <point x="490" y="682"/>
      <point x="505" y="677" type="curve"/>
      <point x="522" y="300"/>
      <point x="515" y="164"/>
      <point x="487" y="-279" type="curve"/>
      <point x="508" y="-280"/>
      <point x="528" y="-278"/>
    </contour>
  </outline>
</glyph>
<glyph name="ordmasculine" format="1">
  <advance width="243"/>
  <unicode hex="00BA"/>
  <outline>
    <contour>
      <point x="138" y="732" type="curve" smooth="yes"/>
      <point x="61" y="732"/>
      <point x="7" y="665"/>
      <point x="7" y="569" type="curve" smooth="yes"/>
      <point x="7" y="498"/>
      <point x="39" y="435"/>
      <point x="107" y="435" type="curve" smooth="yes"/>
      <point x="197" y="435"/>
      <point x="236" y="529"/>
      <point x="236" y="617" type="curve" smooth="yes"/>
      <point x="236" y="688"/>
      <point x="200" y="732"/>
    </contour>
    <contour>
      <point x="124" y="691" type="curve" smooth="yes"/>
      <point x="153" y="691"/>
      <point x="170" y="663"/>
      <point x="170" y="591" type="curve" smooth="yes"/>
      <point x="170" y="530"/>
      <point x="148" y="475"/>
      <point x="120" y="475" type="curve" smooth="yes"/>
      <point x="84" y="475"/>
      <point x="71" y="532"/>
      <point x="71" y="577" type="curve" smooth="yes"/>
      <point x="71" y="645"/>
      <point x="95" y="691"/>
    </contour>
  </outline>
</glyph>
<glyph name="guillemotright" format="1">
  <advance width="471"/>
  <unicode hex="00BB"/>
  <outline>
    <contour>
      <point x="75" y="63" type="curve"/>
      <point x="153" y="122"/>
      <point x="210" y="186"/>
      <point x="253" y="264" type="curve"/>
      <point x="201" y="283" type="line"/>
      <point x="165" y="226"/>
      <point x="109" y="166"/>
      <point x="26" y="111" type="curve"/>
      <point x="42" y="88"/>
      <point x="55" y="74"/>
    </contour>
    <contour>
      <point x="29" y="397" type="curve"/>
      <point x="85" y="325"/>
      <point x="143" y="272"/>
      <point x="215" y="229" type="curve"/>
      <point x="253" y="264" type="line"/>
      <point x="194" y="302"/>
      <point x="135" y="361"/>
      <point x="81" y="443" type="curve"/>
      <point x="59" y="429"/>
      <point x="41" y="415"/>
    </contour>
    <contour>
      <point x="284" y="63" type="curve"/>
      <point x="361" y="122"/>
      <point x="419" y="186"/>
      <point x="461" y="264" type="curve"/>
      <point x="409" y="283" type="line"/>
      <point x="374" y="226"/>
      <point x="317" y="166"/>
      <point x="235" y="111" type="curve"/>
      <point x="250" y="88"/>
      <point x="263" y="74"/>
    </contour>
    <contour>
      <point x="238" y="397" type="curve"/>
      <point x="294" y="325"/>
      <point x="351" y="272"/>
      <point x="423" y="229" type="curve"/>
      <point x="461" y="264" type="line"/>
      <point x="403" y="302"/>
      <point x="344" y="361"/>
      <point x="290" y="443" type="curve"/>
      <point x="268" y="429"/>
      <point x="250" y="415"/>
    </contour>
  </outline>
</glyph>
<glyph name="questiondown" format="1">
  <advance width="368"/>
  <unicode hex="00BF"/>
  <outline>
    <contour>
      <point x="206" y="194" type="line"/>
      <point x="90" y="166"/>
      <point x="29" y="81"/>
      <point x="29" y="-22" type="curve" smooth="yes"/>
      <point x="29" y="-135"/>
      <point x="95" y="-211"/>
      <point x="191" y="-211" type="curve" smooth="yes"/>
      <point x="308" y="-211"/>
      <point x="360" y="-127"/>
      <point x="368" y="6" type="curve"/>
      <point x="347" y="13"/>
      <point x="323" y="17"/>
      <point x="298" y="17" type="curve"/>
      <point x="298" y="-92"/>
      <point x="261" y="-158"/>
      <point x="197" y="-158" type="curve" smooth="yes"/>
      <point x="142" y="-158"/>
      <point x="107" y="-102"/>
      <point x="107" y="-19" type="curve" smooth="yes"/>
      <point x="107" y="72"/>
      <point x="153" y="138"/>
      <point x="251" y="161" type="curve"/>
    </contour>
    <contour>
      <point x="251" y="161" type="line"/>
      <point x="249" y="224"/>
      <point x="241" y="291"/>
      <point x="236" y="346" type="curve"/>
      <point x="218" y="347"/>
      <point x="198" y="346"/>
      <point x="183" y="343" type="curve"/>
      <point x="182" y="269"/>
      <point x="182" y="214"/>
      <point x="182" y="151" type="curve"/>
    </contour>
    <contour>
      <point x="163" y="552" type="curve"/>
      <point x="165" y="523"/>
      <point x="165" y="503"/>
      <point x="168" y="474" type="curve"/>
      <point x="192" y="472"/>
      <point x="211" y="472"/>
      <point x="240" y="473" type="curve"/>
      <point x="241" y="498"/>
      <point x="241" y="523"/>
      <point x="239" y="551" type="curve"/>
      <point x="228" y="554"/>
      <point x="216" y="556"/>
      <point x="203" y="556" type="curve" smooth="yes"/>
      <point x="189" y="556"/>
      <point x="177" y="555"/>
    </contour>
  </outline>
</glyph>
<glyph name="ccedilla" format="1">
  <advance width="424"/>
  <unicode hex="00E7"/>
  <outline>
    <contour>
      <point x="311" y="354" type="curve"/>
      <point x="341" y="354"/>
      <point x="366" y="360"/>
      <point x="387" y="370" type="curve"/>
      <point x="387" y="468"/>
      <point x="341" y="543"/>
      <point x="239" y="543" type="curve" smooth="yes"/>
      <point x="113" y="543"/>
      <point x="27" y="391"/>
      <point x="27" y="200" type="curve" smooth="yes"/>
      <point x="27" y="81"/>
      <point x="71" y="-24"/>
      <point x="195" y="-24" type="curve" smooth="yes"/>
      <point x="291" y="-24"/>
      <point x="365" y="50"/>
      <point x="384" y="120" type="curve"/>
      <point x="372" y="136"/>
      <point x="355" y="147"/>
      <point x="336" y="153" type="curve"/>
      <point x="307" y="83"/>
      <point x="264" y="30"/>
      <point x="208" y="30" type="curve" smooth="yes"/>
      <point x="134" y="30"/>
      <point x="103" y="110"/>
      <point x="103" y="205" type="curve" smooth="yes"/>
      <point x="103" y="344"/>
      <point x="160" y="490"/>
      <point x="238" y="490" type="curve" smooth="yes"/>
      <point x="292" y="490"/>
      <point x="311" y="434"/>
    </contour>
    <contour>
      <point x="200" y="-229" type="curve" smooth="yes"/>
      <point x="267" y="-229"/>
      <point x="312" y="-193"/>
      <point x="312" y="-134" type="curve" smooth="yes"/>
      <point x="312" y="-87"/>
      <point x="277" y="-56"/>
      <point x="225" y="-56" type="curve" smooth="yes"/>
      <point x="201" y="-56"/>
      <point x="179" y="-64"/>
      <point x="154" y="-79" type="curve"/>
      <point x="185" y="-90" type="line"/>
      <point x="208" y="-58"/>
      <point x="217" y="-30"/>
      <point x="220" y="-4" type="curve"/>
      <point x="172" y="6" type="line"/>
      <point x="168" y="-25"/>
      <point x="157" y="-53"/>
      <point x="140" y="-81" type="curve"/>
      <point x="145" y="-89"/>
      <point x="157" y="-100"/>
      <point x="166" y="-107" type="curve"/>
      <point x="178" y="-101"/>
      <point x="189" y="-98"/>
      <point x="200" y="-98" type="curve" smooth="yes"/>
      <point x="228" y="-98"/>
      <point x="245" y="-116"/>
      <point x="245" y="-138" type="curve" smooth="yes"/>
      <point x="245" y="-166"/>
      <point x="226" y="-182"/>
      <point x="198" y="-182" type="curve" smooth="yes"/>
      <point x="171" y="-182"/>
      <point x="150" y="-162"/>
      <point x="140" y="-132" type="curve"/>
      <point x="121" y="-140"/>
      <point x="123" y="-139"/>
      <point x="97" y="-155" type="curve"/>
      <point x="115" y="-204"/>
      <point x="150" y="-229"/>
    </contour>
  </outline>
</glyph>
<glyph name="oslash" format="1">
  <advance width="449"/>
  <unicode hex="00F8"/>
  <outline>
    <contour>
      <point x="243" y="536" type="curve" smooth="yes"/>
      <point x="118" y="536"/>
      <point x="30" y="417"/>
      <point x="30" y="242" type="curve" smooth="yes"/>
      <point x="30" y="105"/>
      <point x="89" y="-10"/>
      <point x="204" y="-10" type="curve" smooth="yes"/>
      <point x="337" y="-10"/>
      <point x="410" y="141"/>
      <point x="410" y="320" type="curve" smooth="yes"/>
      <point x="410" y="450"/>
      <point x="348" y="536"/>
    </contour>
    <contour>
      <point x="225" y="480" type="curve" smooth="yes"/>
      <point x="291" y="480"/>
      <point x="330" y="424"/>
      <point x="330" y="278" type="curve" smooth="yes"/>
      <point x="330" y="144"/>
      <point x="274" y="45"/>
      <point x="217" y="45" type="curve" smooth="yes"/>
      <point x="137" y="45"/>
      <point x="106" y="161"/>
      <point x="106" y="252" type="curve" smooth="yes"/>
      <point x="106" y="386"/>
      <point x="164" y="480"/>
    </contour>
    <contour>
      <point x="82" y="-67" type="curve"/>
      <point x="197" y="138"/>
      <point x="294" y="335"/>
      <point x="392" y="568" type="curve"/>
      <point x="374" y="583"/>
      <point x="362" y="591"/>
      <point x="343" y="599" type="curve"/>
      <point x="229" y="344"/>
      <point x="137" y="163"/>
      <point x="29" y="-38" type="curve"/>
      <point x="44" y="-50"/>
      <point x="59" y="-60"/>
    </contour>
  </outline>
</glyph>
<glyph name="iogonek" format="1">
  <advance width="206"/>
  <unicode hex="012F"/>
  <outline>
    <contour>
      <point x="124" y="-1" type="curve"/>
      <point x="113" y="174"/>
      <point x="128" y="380"/>
      <point x="152" y="508" type="curve"/>
      <point x="142" y="511"/>
      <point x="133" y="512"/>
      <point x="124" y="512" type="curve" smooth="yes"/>
      <point x="105" y="512"/>
      <point x="88" y="507"/>
      <point x="73" y="498" type="curve"/>
      <point x="46" y="360"/>
      <point x="41" y="167"/>
      <point x="64" y="-7" type="curve"/>
      <point x="69" y="-8"/>
      <point x="75" y="-9"/>
      <point x="84" y="-9" type="curve" smooth="yes"/>
      <point x="98" y="-9"/>
      <point x="114" y="-6"/>
    </contour>
    <contour>
      <point x="157" y="618" type="curve"/>
      <point x="166" y="658"/>
      <point x="181" y="702"/>
      <point x="194" y="730" type="curve"/>
      <point x="181" y="737"/>
      <point x="168" y="740"/>
      <point x="150" y="741" type="curve" smooth="yes"/>
      <point x="132" y="742"/>
      <point x="122" y="740"/>
      <point x="108" y="734" type="curve"/>
      <point x="97" y="709"/>
      <point x="91" y="673"/>
      <point x="91" y="648" type="curve" smooth="yes"/>
      <point x="91" y="637"/>
      <point x="92" y="627"/>
      <point x="94" y="616" type="curve"/>
      <point x="120" y="615"/>
      <point x="143" y="616"/>
    </contour>
    <contour>
      <point x="117" y="-3" type="curve"/>
      <point x="87" y="6" type="line"/>
      <point x="22" y="-37"/>
      <point x="-11" y="-81"/>
      <point x="-11" y="-134" type="curve" smooth="yes"/>
      <point x="-11" y="-178"/>
      <point x="20" y="-208"/>
      <point x="69" y="-208" type="curve" smooth="yes"/>
      <point x="115" y="-208"/>
      <point x="145" y="-187"/>
      <point x="169" y="-151" type="curve"/>
      <point x="163" y="-133"/>
      <point x="156" y="-121"/>
      <point x="144" y="-112" type="curve"/>
      <point x="127" y="-143"/>
      <point x="109" y="-156"/>
      <point x="85" y="-156" type="curve" smooth="yes"/>
      <point x="62" y="-156"/>
      <point x="51" y="-141"/>
      <point x="51" y="-118" type="curve" smooth="yes"/>
      <point x="51" y="-82"/>
      <point x="69" y="-47"/>
    </contour>
  </outline>
</glyph>
<glyph name="bn_danda" format="1">
  <advance width="586"/>
  <unicode hex="0964"/>
  <outline>
    <contour>
      <point x="414" y="-100"/>
      <point x="443" y="-91"/>
      <point x="469" y="-81" type="curve"/>
      <point x="450" y="2"/>
      <point x="440" y="126"/>
      <point x="440" y="262" type="curve" smooth="yes"/>
      <point x="440" y="387"/>
      <point x="447" y="489"/>
      <point x="455" y="595" type="curve"/>
      <point x="403" y="585" type="line"/>
      <point x="382" y="392"/>
      <point x="381" y="263"/>
      <point x="381" y="61" type="curve" smooth="yes"/>
      <point x="381" y="3"/>
      <point x="388" y="-50"/>
      <point x="390" y="-100" type="curve"/>
    </contour>
  </outline>
</glyph>
<glyph name="bn_ca" format="1">
  <advance width="437"/>
  <unicode hex="099A"/>
  <outline>
    <contour>
      <point x="304" y="-20"/>
      <point x="401" y="130"/>
      <point x="401" y="284" type="curve" smooth="yes"/>
      <point x="401" y="345"/>
      <point x="375" y="375"/>
      <point x="324" y="398" type="curve" smooth="yes"/>
      <point x="258" y="429"/>
      <point x="188" y="477"/>
      <point x="164" y="578" type="curve"/>
      <point x="145" y="526" type="line"/>
      <point x="161" y="446"/>
      <point x="219" y="389"/>
      <point x="276" y="359" type="curve" smooth="yes"/>
      <point x="315" y="339"/>
      <point x="332" y="325"/>
      <point x="332" y="287" type="curve" smooth="yes"/>
      <point x="332" y="163"/>
      <point x="254" y="31"/>
      <point x="179" y="31" type="curve" smooth="yes"/>
      <point x="143" y="31"/>
      <point x="124" y="55"/>
      <point x="124" y="127" type="curve" smooth="yes"/>
      <point x="124" y="234"/>
      <point x="150" y="467"/>
      <point x="176" y="597" type="curve"/>
      <point x="112" y="596" type="line"/>
      <point x="99" y="525"/>
      <point x="63" y="284"/>
      <point x="63" y="156" type="curve" smooth="yes"/>
      <point x="63" y="15"/>
      <point x="131" y="-20"/>
      <point x="188" y="-20" type="curve" smooth="yes"/>
    </contour>
    <contour>
      <point x="56" y="543"/>
      <point x="149" y="554"/>
      <point x="223" y="554" type="curve" smooth="yes"/>
      <point x="298" y="554"/>
      <point x="390" y="542"/>
      <point x="437" y="530" type="curve"/>
      <point x="439" y="538"/>
      <point x="441" y="551"/>
      <point x="441" y="564" type="curve" smooth="yes"/>
      <point x="441" y="573"/>
      <point x="440" y="583"/>
      <point x="437" y="589" type="curve"/>
      <point x="394" y="603"/>
      <point x="290" y="617"/>
      <point x="217" y="617" type="curve" smooth="yes"/>
      <point x="143" y="617"/>
      <point x="54" y="605"/>
      <point x="0" y="589" type="curve"/>
      <point x="-3" y="583"/>
      <point x="-5" y="573"/>
      <point x="-5" y="563" type="curve" smooth="yes"/>
      <point x="-5" y="551"/>
      <point x="-3" y="539"/>
      <point x="0" y="530" type="curve"/>
    </contour>
    <contour>
      <point x="177" y="0" type="move" name="blwm"/>
    </contour>
    <contour>
      <point x="115" y="-120" type="move" name="nukt"/>
    </contour>
    <contour>
      <point x="205" y="690" type="move" name="reph"/>
    </contour>
    <contour>
      <point x="205" y="690" type="move" name="chandrabindu"/>
    </contour>
    <contour>
      <point x="107" y="0" type="move" name="haln"/>
    </contour>
  </outline>
</glyph>
<glyph name="bn_tta" format="1">
  <advance width="476"/>
  <unicode hex="099F"/>
  <outline>
    <contour>
      <point x="476" y="589" type="line"/>
      <point x="462" y="681"/>
      <point x="415" y="757"/>
      <point x="325" y="757" type="curve" smooth="yes"/>
      <point x="263" y="757"/>
      <point x="196" y="734"/>
      <point x="149" y="734" type="curve" smooth="yes"/>
      <point x="94" y="734"/>
      <point x="64" y="767"/>
      <point x="38" y="804" type="curve"/>
      <point x="26" y="796"/>
      <point x="12" y="779"/>
      <point x="1" y="760" type="curve"/>
      <point x="33" y="711"/>
      <point x="75" y="676"/>
      <point x="145" y="676" type="curve" smooth="yes"/>
      <point x="205" y="676"/>
      <point x="262" y="699"/>
      <point x="327" y="699" type="curve" smooth="yes"/>
      <point x="397" y="699"/>
      <point x="424" y="642"/>
      <point x="436" y="579" type="curve"/>
    </contour>
    <component base="bn_ddha"/>
    <contour>
      <point x="203" y="-1" type="move" name="blwm"/>
    </contour>
    <contour>
      <point x="202" y="-120" type="move" name="nukt"/>
    </contour>
    <contour>
      <point x="183" y="687" type="move" name="reph"/>
    </contour>
    <contour>
      <point x="224" y="797" type="move" name="chandrabindu"/>
    </contour>
    <contour>
      <point x="104" y="0" type="move" name="haln"/>
    </contour>
  </outline>
</glyph>
<glyph name="bn_dha" format="1">
  <advance width="481"/>
  <unicode hex="09A7"/>
  <outline>
    <contour>
      <point x="358" y="15" type="line"/>
      <point x="301" y="165"/>
      <point x="201" y="248"/>
      <point x="100" y="289" type="curve"/>
      <point x="103" y="258" type="line"/>
      <point x="168" y="323"/>
      <point x="295" y="389"/>
      <point x="371" y="414" type="curve"/>
      <point x="369" y="492" type="line"/>
      <point x="243" y="446"/>
      <point x="112" y="371"/>
      <point x="48" y="304" type="curve"/>
      <point x="50" y="278"/>
      <point x="58" y="254"/>
      <point x="81" y="228" type="curve"/>
      <point x="184" y="204"/>
      <point x="272" y="127"/>
      <point x="341" y="-19" type="curve"/>
    </contour>
    <contour>
      <point x="263" y="446" type="line"/>
      <point x="231" y="431"/>
      <point x="199" y="415"/>
      <point x="169" y="415" type="curve" smooth="yes"/>
      <point x="132" y="415"/>
      <point x="93" y="441"/>
      <point x="93" y="490" type="curve" smooth="yes"/>
      <point x="93" y="533"/>
      <point x="115" y="557"/>
      <point x="147" y="557" type="curve" smooth="yes"/>
      <point x="181" y="557"/>
      <point x="206" y="532"/>
      <point x="209" y="498" type="curve"/>
      <point x="230" y="504"/>
      <point x="252" y="523"/>
      <point x="263" y="541" type="curve"/>
      <point x="246" y="586"/>
      <point x="201" y="619"/>
      <point x="152" y="619" type="curve" smooth="yes"/>
      <point x="77" y="619"/>
      <point x="31" y="566"/>
      <point x="31" y="500" type="curve" smooth="yes"/>
      <point x="31" y="421"/>
      <point x="100" y="373"/>
      <point x="177" y="373" type="curve"/>
    </contour>
    <contour>
      <point x="341" y="-19" type="curve"/>
      <point x="366" y="-19"/>
      <point x="393" y="-15"/>
      <point x="412" y="-4" type="curve"/>
      <point x="396" y="75"/>
      <point x="393" y="203"/>
      <point x="393" y="292" type="curve" smooth="yes"/>
      <point x="393" y="355"/>
      <point x="397" y="411"/>
      <point x="401" y="464" type="curve" smooth="yes"/>
      <point x="403" y="487"/>
      <point x="404" y="496"/>
      <point x="422" y="507" type="curve" smooth="yes"/>
      <point x="436" y="515"/>
      <point x="453" y="522"/>
      <point x="481" y="530" type="curve"/>
      <point x="484" y="536"/>
      <point x="487" y="549"/>
      <point x="487" y="561" type="curve" smooth="yes"/>
      <point x="487" y="573"/>
      <point x="484" y="584"/>
      <point x="481" y="589" type="curve"/>
      <point x="440" y="581"/>
      <point x="407" y="568"/>
      <point x="385" y="553" type="curve" smooth="yes"/>
      <point x="363" y="540"/>
      <point x="355" y="521"/>
      <point x="351" y="493" type="curve" smooth="yes"/>
      <point x="340" y="402"/>
      <point x="331" y="301"/>
      <point x="331" y="181" type="curve" smooth="yes"/>
      <point x="331" y="66"/>
      <point x="336" y="18"/>
    </contour>
    <contour>
      <point x="365" y="0" type="move" name="blwm"/>
    </contour>
    <contour>
      <point x="157" y="0" type="move" name="nukt"/>
    </contour>
    <contour>
      <point x="390" y="690" type="move" name="reph"/>
    </contour>
    <contour>
      <point x="390" y="690" type="move" name="chandrabindu"/>
    </contour>
    <contour>
      <point x="262" y="0" type="move" name="haln"/>
    </contour>
  </outline>
</glyph>
<glyph name="bn_pha" format="1">
  <advance width="655"/>
  <unicode hex="09AB"/>
  <outline>
    <contour>
      <point x="391" y="-19"/>
      <point x="419" y="-16"/>
      <point x="438" y="-6" type="curve"/>
      <point x="412" y="74"/>
      <point x="408" y="202"/>
      <point x="408" y="292" type="curve" smooth="yes"/>
      <point x="408" y="345"/>
      <point x="409" y="388"/>
      <point x="412" y="429" type="curve"/>
      <point x="401" y="418" type="line"/>
      <point x="498" y="403"/>
      <point x="579" y="366"/>
      <point x="579" y="302" type="curve" smooth="yes"/>
      <point x="579" y="259"/>
      <point x="540" y="225"/>
      <point x="481" y="205" type="curve"/>
      <point x="492" y="175"/>
      <point x="514" y="154"/>
      <point x="532" y="150" type="curve"/>
      <point x="580" y="175"/>
      <point x="624" y="232"/>
      <point x="624" y="299" type="curve" smooth="yes"/>
      <point x="624" y="391"/>
      <point x="536" y="478"/>
      <point x="359" y="498" type="curve"/>
      <point x="349" y="400"/>
      <point x="345" y="308"/>
      <point x="345" y="190" type="curve" smooth="yes"/>
      <point x="345" y="74"/>
      <point x="355" y="19"/>
      <point x="366" y="-19" type="curve"/>
    </contour>
    <contour>
      <point x="385" y="14" type="line"/>
      <point x="324" y="149"/>
      <point x="223" y="224"/>
      <point x="116" y="260" type="curve"/>
      <point x="110" y="225" type="line"/>
      <point x="278" y="382" type="line"/>
      <point x="210" y="412" type="line"/>
      <point x="54" y="271" type="line"/>
      <point x="56" y="246"/>
      <point x="67" y="221"/>
      <point x="95" y="200" type="curve"/>
      <point x="204" y="178"/>
      <point x="293" y="109"/>
      <point x="366" y="-19" type="curve"/>
    </contour>
    <contour>
      <point x="278" y="382" type="line"/>
      <point x="238" y="416" type="line" smooth="yes"/>
      <point x="181" y="464"/>
      <point x="116" y="511"/>
      <point x="114" y="553" type="curve"/>
      <point x="28" y="556" type="line"/>
      <point x="28" y="486"/>
      <point x="163" y="432"/>
      <point x="212" y="383" type="curve"/>
    </contour>
    <contour>
      <point x="81" y="546"/>
      <point x="207" y="562"/>
      <point x="338" y="562" type="curve" smooth="yes"/>
      <point x="472" y="562"/>
      <point x="588" y="546"/>
      <point x="655" y="530" type="curve"/>
      <point x="659" y="544"/>
      <point x="662" y="573"/>
      <point x="655" y="589" type="curve"/>
      <point x="592" y="609"/>
      <point x="472" y="625"/>
      <point x="341" y="625" type="curve" smooth="yes"/>
      <point x="208" y="625"/>
      <point x="79" y="609"/>
      <point x="0" y="589" type="curve"/>
      <point x="-9" y="576"/>
      <point x="-6" y="547"/>
      <point x="0" y="530" type="curve"/>
    </contour>
    <contour>
      <point x="386" y="0" type="move" name="blwm"/>
    </contour>
    <contour>
      <point x="157" y="0" type="move" name="nukt"/>
    </contour>
    <contour>
      <point x="352" y="690" type="move" name="reph"/>
    </contour>
    <contour>
      <point x="352" y="690" type="move" name="chandrabindu"/>
    </contour>
    <contour>
      <point x="291" y="0" type="move" name="haln"/>
    </contour>
  </outline>
</glyph>
<glyph name="bn_sha" format="1">
  <advance width="532"/>
  <unicode hex="09B6"/>
  <outline>
    <contour>
      <point x="460" y="160"/>
      <point x="462" y="277"/>
      <point x="466" y="475" type="curve" smooth="yes"/>
      <point x="466" y="496"/>
      <point x="470" y="505"/>
      <point x="487" y="514" type="curve" smooth="yes"/>
      <point x="496" y="519"/>
      <point x="511" y="525"/>
      <point x="532" y="530" type="curve"/>
      <point x="536" y="536"/>
      <point x="538" y="549"/>
      <point x="538" y="562" type="curve" smooth="yes"/>
      <point x="538" y="573"/>
      <point x="536" y="584"/>
      <point x="532" y="589" type="curve"/>
      <point x="496" y="581"/>
      <point x="466" y="571"/>
      <point x="446" y="559" type="curve" smooth="yes"/>
      <point x="424" y="546"/>
      <point x="414" y="527"/>
      <point x="414" y="509" type="curve" smooth="yes"/>
      <point x="414" y="440" type="line"/>
      <point x="403" y="425" type="line"/>
      <point x="403" y="225"/>
      <point x="385" y="117"/>
      <point x="344" y="-8" type="curve"/>
      <point x="362" y="-15"/>
      <point x="393" y="-19"/>
      <point x="420" y="-19" type="curve"/>
    </contour>
    <contour>
      <point x="172" y="280"/>
      <point x="207" y="358"/>
      <point x="207" y="428" type="curve" smooth="yes"/>
      <point x="207" y="460"/>
      <point x="199" y="490"/>
      <point x="188" y="512" type="curve"/>
      <point x="154" y="496" type="line"/>
      <point x="163" y="478"/>
      <point x="167" y="453"/>
      <point x="167" y="430" type="curve" smooth="yes"/>
      <point x="167" y="372"/>
      <point x="146" y="327"/>
      <point x="114" y="327" type="curve" smooth="yes"/>
      <point x="97" y="327"/>
      <point x="85" y="338"/>
      <point x="85" y="365" type="curve" smooth="yes"/>
      <point x="85" y="415"/>
      <point x="124" y="481"/>
      <point x="179" y="480" type="curve"/>
      <point x="191" y="502" type="line"/>
      <point x="163" y="524" type="line"/>
      <point x="78" y="510"/>
      <point x="30" y="433"/>
      <point x="30" y="364" type="curve" smooth="yes"/>
      <point x="30" y="305"/>
      <point x="66" y="280"/>
      <point x="106" y="280" type="curve" smooth="yes"/>
    </contour>
    <contour>
      <point x="198" y="542"/>
      <point x="163" y="603"/>
      <point x="91" y="603" type="curve" smooth="yes"/>
      <point x="68" y="603"/>
      <point x="29" y="597"/>
      <point x="0" y="589" type="curve"/>
      <point x="-3" y="583"/>
      <point x="-5" y="573"/>
      <point x="-5" y="562" type="curve" smooth="yes"/>
      <point x="-5" y="551"/>
      <point x="-3" y="539"/>
      <point x="0" y="530" type="curve"/>
      <point x="21" y="536"/>
      <point x="67" y="543"/>
      <point x="91" y="543" type="curve" smooth="yes"/>
      <point x="148" y="543"/>
      <point x="173" y="504"/>
      <point x="173" y="456" type="curve"/>
      <point x="200" y="445" type="line"/>
    </contour>
    <contour>
      <point x="312" y="282"/>
      <point x="341" y="319"/>
      <point x="341" y="374" type="curve" smooth="yes"/>
      <point x="341" y="450"/>
      <point x="288" y="514"/>
      <point x="225" y="524" type="curve"/>
      <point x="195" y="488" type="line"/>
      <point x="250" y="487"/>
      <point x="298" y="438"/>
      <point x="298" y="376" type="curve" smooth="yes"/>
      <point x="298" y="347"/>
      <point x="289" y="333"/>
      <point x="270" y="333" type="curve" smooth="yes"/>
      <point x="238" y="333"/>
      <point x="219" y="377"/>
      <point x="219" y="428" type="curve" smooth="yes"/>
      <point x="219" y="457"/>
      <point x="226" y="483"/>
      <point x="238" y="503" type="curve"/>
      <point x="200" y="529" type="line"/>
      <point x="182" y="501"/>
      <point x="169" y="464"/>
      <point x="169" y="420" type="curve" smooth="yes"/>
      <point x="169" y="342"/>
      <point x="203" y="282"/>
      <point x="265" y="282" type="curve" smooth="yes"/>
    </contour>
    <contour>
      <point x="430" y="479"/>
      <point x="380" y="616"/>
      <point x="289" y="616" type="curve" smooth="yes"/>
      <point x="233" y="616"/>
      <point x="194" y="563"/>
      <point x="181" y="493" type="curve"/>
      <point x="224" y="487" type="line"/>
      <point x="237" y="521"/>
      <point x="261" y="546"/>
      <point x="293" y="546" type="curve" smooth="yes"/>
      <point x="348" y="546"/>
      <point x="403" y="473"/>
      <point x="403" y="346" type="curve"/>
      <point x="430" y="314" type="line"/>
    </contour>
    <contour>
      <point x="380" y="0" type="move" name="blwm"/>
    </contour>
    <contour>
      <point x="167" y="0" type="move" name="nukt"/>
    </contour>
    <contour>
      <point x="460" y="690" type="move" name="reph"/>
    </contour>
    <contour>
      <point x="460" y="690" type="move" name="chandrabindu"/>
    </contour>
    <contour>
      <point x="282" y="0" type="move" name="haln"/>
    </contour>
  </outline>
</glyph>
<glyph name="bn_rha" format="1">
  <advance width="476"/>
  <unicode hex="09DD"/>
  <outline>
    <contour>
      <point x="241" y="-167"/>
      <point x="264" y="-146"/>
      <point x="264" y="-118" type="curve" smooth="yes"/>
      <point x="264" y="-94"/>
      <point x="244" y="-76"/>
      <point x="220" y="-76" type="curve" smooth="yes"/>
      <point x="193" y="-76"/>
      <point x="170" y="-96"/>
      <point x="170" y="-125" type="curve" smooth="yes"/>
      <point x="170" y="-150"/>
      <point x="189" y="-167"/>
      <point x="214" y="-167" type="curve" smooth="yes"/>
    </contour>
    <component base="bn_ddha"/>
    <contour>
      <point x="120" y="-165" type="move" name="haln"/>
    </contour>
    <contour>
      <point x="235" y="690" type="move" name="reph"/>
    </contour>
    <contour>
      <point x="235" y="690" type="move" name="chandrabindu"/>
    </contour>
  </outline>
</glyph>
<glyph name="bn_llikaar" format="1">
  <advance width="500"/>
  <unicode hex="09E3"/>
  <outline>
    <contour>
      <point x="300" y="-287" type="line"/>
      <point x="314" y="-245"/>
      <point x="322" y="-201"/>
      <point x="322" y="-163" type="curve" smooth="yes"/>
      <point x="322" y="-95"/>
      <point x="295" y="-58"/>
      <point x="227" y="-43" type="curve" smooth="yes"/>
      <point x="188" y="-34" type="line" smooth="yes"/>
      <point x="146" y="-25"/>
      <point x="128" y="-16"/>
      <point x="118" y="31" type="curve"/>
      <point x="107" y="29"/>
      <point x="90" y="22"/>
      <point x="77" y="13" type="curve"/>
      <point x="90" y="-59"/>
      <point x="126" y="-73"/>
      <point x="197" y="-88" type="curve" smooth="yes"/>
      <point x="247" y="-101"/>
      <point x="279" y="-112"/>
      <point x="279" y="-155" type="curve" smooth="yes"/>
      <point x="279" y="-196"/>
      <point x="262" y="-263"/>
      <point x="242" y="-302" type="curve"/>
      <point x="228" y="-338" type="line"/>
    </contour>
    <contour>
      <point x="161" y="-346"/>
      <point x="180" y="-335"/>
      <point x="190" y="-318" type="curve"/>
      <point x="188" y="-301"/>
      <point x="179" y="-275"/>
      <point x="170" y="-258" type="curve"/>
      <point x="162" y="-275"/>
      <point x="150" y="-289"/>
      <point x="133" y="-289" type="curve" smooth="yes"/>
      <point x="118" y="-289"/>
      <point x="105" y="-278"/>
      <point x="105" y="-255" type="curve" smooth="yes"/>
      <point x="105" y="-227"/>
      <point x="123" y="-208"/>
      <point x="150" y="-208" type="curve" smooth="yes"/>
      <point x="192" y="-208"/>
      <point x="230" y="-247"/>
      <point x="228" y="-338" type="curve"/>
      <point x="261" y="-300" type="line"/>
      <point x="262" y="-207"/>
      <point x="216" y="-148"/>
      <point x="148" y="-148" type="curve" smooth="yes"/>
      <point x="95" y="-148"/>
      <point x="59" y="-191"/>
      <point x="59" y="-249" type="curve" smooth="yes"/>
      <point x="59" y="-305"/>
      <point x="96" y="-346"/>
      <point x="141" y="-346" type="curve" smooth="yes"/>
    </contour>
    <contour>
      <point x="292" y="-440"/>
      <point x="310" y="-430"/>
      <point x="319" y="-416" type="curve"/>
      <point x="317" y="-400"/>
      <point x="308" y="-377"/>
      <point x="300" y="-361" type="curve"/>
      <point x="293" y="-376"/>
      <point x="282" y="-388"/>
      <point x="267" y="-388" type="curve" smooth="yes"/>
      <point x="254" y="-388"/>
      <point x="241" y="-379"/>
      <point x="241" y="-358" type="curve" smooth="yes"/>
      <point x="241" y="-334"/>
      <point x="257" y="-318"/>
      <point x="282" y="-318" type="curve" smooth="yes"/>
      <point x="319" y="-318"/>
      <point x="353" y="-352"/>
      <point x="352" y="-433" type="curve"/>
      <point x="383" y="-398" type="line"/>
      <point x="383" y="-315"/>
      <point x="341" y="-263"/>
      <point x="281" y="-263" type="curve" smooth="yes"/>
      <point x="232" y="-263"/>
      <point x="199" y="-301"/>
      <point x="199" y="-353" type="curve" smooth="yes"/>
      <point x="199" y="-403"/>
      <point x="233" y="-440"/>
      <point x="275" y="-440" type="curve" smooth="yes"/>
    </contour>
    <contour>
      <point x="422" y="-388"/>
      <point x="440" y="-326"/>
      <point x="440" y="-275" type="curve" smooth="yes"/>
      <point x="440" y="-213"/>
      <point x="416" y="-179"/>
      <point x="355" y="-163" type="curve" smooth="yes"/>
      <point x="312" y="-152" type="line"/>
      <point x="303" y="-199" type="line"/>
      <point x="326" y="-205" type="line" smooth="yes"/>
      <point x="372" y="-217"/>
      <point x="401" y="-229"/>
      <point x="401" y="-268" type="curve" smooth="yes"/>
      <point x="401" y="-305"/>
      <point x="385" y="-365"/>
      <point x="365" y="-401" type="curve"/>
      <point x="352" y="-433" type="line"/>
      <point x="365" y="-438"/>
      <point x="381" y="-441"/>
      <point x="396" y="-441" type="curve"/>
    </contour>
  </outline>
</glyph>
<glyph name="bn_seven" format="1">
  <advance width="550"/>
  <unicode hex="09ED"/>
  <outline>
    <contour>
      <point x="472" y="-13"/>
      <point x="490" y="3"/>
      <point x="507" y="24" type="curve"/>
      <point x="435" y="41"/>
      <point x="428" y="69"/>
      <point x="428" y="116" type="curve" smooth="yes"/>
      <point x="428" y="219"/>
      <point x="458" y="373"/>
      <point x="458" y="434" type="curve" smooth="yes"/>
      <point x="458" y="513"/>
      <point x="400" y="585"/>
      <point x="300" y="585" type="curve" smooth="yes"/>
      <point x="167" y="585"/>
      <point x="55" y="460"/>
      <point x="55" y="364" type="curve" smooth="yes"/>
      <point x="55" y="278"/>
      <point x="139" y="223"/>
      <point x="247" y="223" type="curve" smooth="yes"/>
      <point x="315" y="223"/>
      <point x="383" y="237"/>
      <point x="409" y="243" type="curve"/>
      <point x="411" y="317" type="line"/>
      <point x="369" y="299"/>
      <point x="312" y="280"/>
      <point x="234" y="280" type="curve" smooth="yes"/>
      <point x="170" y="280"/>
      <point x="125" y="292"/>
      <point x="125" y="351" type="curve" smooth="yes"/>
      <point x="125" y="432"/>
      <point x="212" y="519"/>
      <point x="316" y="519" type="curve" smooth="yes"/>
      <point x="375" y="519"/>
      <point x="402" y="488"/>
      <point x="402" y="437" type="curve" smooth="yes"/>
      <point x="402" y="373"/>
      <point x="361" y="205"/>
      <point x="361" y="97" type="curve" smooth="yes"/>
      <point x="361" y="30"/>
      <point x="378" y="3"/>
      <point x="451" y="-25" type="curve"/>
    </contour>
  </outline>
</glyph>
<glyph name="bn_rupeesign" format="1">
  <advance width="476"/>
  <unicode hex="09F3"/>
  <outline>
    <contour>
      <point x="311" y="-20"/>
      <point x="440" y="119"/>
      <point x="440" y="250" type="curve" smooth="yes"/>
      <point x="440" y="330"/>
      <point x="391" y="375"/>
      <point x="327" y="375" type="curve" smooth="yes"/>
      <point x="291" y="375"/>
      <point x="261" y="362"/>
      <point x="240" y="342" type="curve"/>
      <point x="234" y="331"/>
      <point x="230" y="316"/>
      <point x="230" y="300" type="curve" smooth="yes"/>
      <point x="230" y="288"/>
      <point x="233" y="276"/>
      <point x="240" y="267" type="curve"/>
      <point x="253" y="287"/>
      <point x="280" y="311"/>
      <point x="314" y="311" type="curve" smooth="yes"/>
      <point x="345" y="311"/>
      <point x="368" y="288"/>
      <point x="368" y="242" type="curve" smooth="yes"/>
      <point x="368" y="146"/>
      <point x="267" y="30"/>
      <point x="200" y="30" type="curve" smooth="yes"/>
      <point x="166" y="31"/>
      <point x="141" y="58"/>
      <point x="141" y="109" type="curve" smooth="yes"/>
      <point x="141" y="328"/>
      <point x="168" y="578"/>
      <point x="197" y="747" type="curve"/>
      <point x="121" y="733" type="line"/>
      <point x="101" y="566"/>
      <point x="79" y="369"/>
      <point x="79" y="130" type="curve" smooth="yes"/>
      <point x="79" y="40"/>
      <point x="138" y="-20"/>
      <point x="209" y="-20" type="curve" smooth="yes"/>
    </contour>
    <contour>
      <point x="46" y="451"/>
      <point x="131" y="465"/>
      <point x="233" y="465" type="curve" smooth="yes"/>
      <point x="329" y="465"/>
      <point x="412" y="452"/>
      <point x="476" y="438" type="curve"/>
      <point x="478" y="447"/>
      <point x="480" y="458"/>
      <point x="480" y="469" type="curve" smooth="yes"/>
      <point x="480" y="481"/>
      <point x="479" y="490"/>
      <point x="476" y="498" type="curve"/>
      <point x="413" y="516"/>
      <point x="327" y="529"/>
      <point x="231" y="529" type="curve" smooth="yes"/>
      <point x="129" y="529"/>
      <point x="43" y="515"/>
      <point x="0" y="498" type="curve"/>
      <point x="-3" y="489"/>
      <point x="-4" y="478"/>
      <point x="-4" y="468" type="curve" smooth="yes"/>
      <point x="-4" y="457"/>
      <point x="-3" y="449"/>
      <point x="0" y="438" type="curve"/>
    </contour>
  </outline>
</glyph>
<glyph name="endash" format="1">
  <advance width="419"/>
  <unicode hex="2013"/>
  <outline>
    <contour>
      <point x="32" y="298"/>
      <point x="30" y="281"/>
      <point x="29" y="258" type="curve"/>
      <point x="140" y="239"/>
      <point x="264" y="236"/>
      <point x="383" y="249" type="curve"/>
      <point x="387" y="268"/>
      <point x="390" y="288"/>
      <point x="390" y="305" type="curve"/>
      <point x="341" y="301"/>
      <point x="294" y="299"/>
      <point x="248" y="299" type="curve" smooth="yes"/>
      <point x="179" y="299"/>
      <point x="102" y="304"/>
      <point x="35" y="315" type="curve"/>
    </contour>
  </outline>
</glyph>
<glyph name="quoteleft" format="1">
  <advance width="147"/>
  <unicode hex="2018"/>
  <outline>
    <contour>
      <point x="11" y="732" type="curve"/>
      <point x="11" y="651"/>
      <point x="26" y="579"/>
      <point x="60" y="486" type="curve"/>
      <point x="78" y="486"/>
      <point x="94" y="487"/>
      <point x="112" y="490" type="curve"/>
      <point x="84" y="601"/>
      <point x="82" y="676"/>
      <point x="85" y="740" type="curve"/>
      <point x="59" y="741"/>
      <point x="34" y="738"/>
    </contour>
  </outline>
</glyph>
<glyph name="quoteright" format="1">
  <advance width="147"/>
  <unicode hex="2019"/>
  <outline>
    <contour>
      <point x="129" y="734" type="curve"/>
      <point x="106" y="738"/>
      <point x="79" y="738"/>
      <point x="56" y="736" type="curve"/>
      <point x="60" y="680"/>
      <point x="53" y="601"/>
      <point x="35" y="496" type="curve"/>
      <point x="48" y="492"/>
      <point x="67" y="488"/>
      <point x="85" y="487" type="curve"/>
      <point x="120" y="599"/>
      <point x="129" y="657"/>
    </contour>
  </outline>
</glyph>
<glyph name="fraction" format="1">
  <advance width="298"/>
  <unicode hex="2044"/>
  <outline>
    <contour>
      <point x="143" y="258"/>
      <point x="247" y="471"/>
      <point x="360" y="752" type="curve"/>
      <point x="339" y="769"/>
      <point x="319" y="778"/>
      <point x="300" y="784" type="curve"/>
      <point x="182" y="490"/>
      <point x="85" y="280"/>
      <point x="-61" y="1" type="curve"/>
      <point x="-46" y="-9"/>
      <point x="-33" y="-21"/>
      <point x="-10" y="-27" type="curve"/>
    </contour>
  </outline>
</glyph>
<glyph name="bn_aakaar.b" format="1">
  <advance width="233"/>
  <outline>
    <contour>
      <point x="149" y="106"/>
      <point x="159" y="302"/>
      <point x="159" y="505" type="curve"/>
      <point x="126" y="494" type="line"/>
      <point x="97" y="490" type="line"/>
      <point x="96" y="262"/>
      <point x="83" y="99"/>
      <point x="56" y="-43" type="curve"/>
      <point x="73" y="-49"/>
      <point x="111" y="-54"/>
      <point x="138" y="-54" type="curve"/>
    </contour>
    <contour>
      <point x="143" y="464" type="line"/>
      <point x="143" y="558"/>
      <point x="86" y="595"/>
      <point x="41" y="594" type="curve" smooth="yes"/>
      <point x="30" y="594"/>
      <point x="16" y="593"/>
      <point x="0" y="589" type="curve"/>
      <point x="-3" y="582"/>
      <point x="-4" y="571"/>
      <point x="-4" y="561" type="curve" smooth="yes"/>
      <point x="-4" y="549"/>
      <point x="-2" y="537"/>
      <point x="0" y="530" type="curve"/>
      <point x="18" y="535"/>
      <point x="28" y="536"/>
      <point x="36" y="536" type="curve" smooth="yes"/>
      <point x="70" y="536"/>
      <point x="97" y="498"/>
      <point x="97" y="434" type="curve"/>
    </contour>
    <contour>
      <point x="160" y="496"/>
      <point x="186" y="517"/>
      <point x="233" y="530" type="curve"/>
      <point x="238" y="547"/>
      <point x="240" y="577"/>
      <point x="233" y="589" type="curve"/>
      <point x="172" y="574"/>
      <point x="117" y="546"/>
      <point x="102" y="505" type="curve"/>
      <point x="150" y="473" type="line"/>
    </contour>
  </outline>
</glyph>
<glyph name="bn_b_ba" format="1">
  <advance width="802"/>
  <outline>
    <contour>
      <point x="687" y="15" type="line"/>
      <point x="628" y="157"/>
      <point x="525" y="235"/>
      <point x="421" y="274" type="curve"/>
      <point x="424" y="242" type="line"/>
      <point x="489" y="319"/>
      <point x="616" y="405"/>
      <point x="691" y="434" type="curve"/>
      <point x="690" y="512" type="line"/>
      <point x="564" y="459"/>
      <point x="433" y="366"/>
      <point x="369" y="289" type="curve"/>
      <point x="372" y="262"/>
      <point x="379" y="239"/>
      <point x="402" y="213" type="curve"/>
      <point x="509" y="189"/>
      <point x="599" y="118"/>
      <point x="670" y="-19" type="curve"/>
    </contour>
    <contour>
      <point x="695" y="-19"/>
      <point x="722" y="-15"/>
      <point x="741" y="-4" type="curve"/>
      <point x="718" y="75"/>
      <point x="714" y="203"/>
      <point x="714" y="292" type="curve" smooth="yes"/>
      <point x="714" y="397"/>
      <point x="720" y="466"/>
      <point x="735" y="557" type="curve"/>
      <point x="684" y="570" type="line"/>
      <point x="661" y="443"/>
      <point x="652" y="332"/>
      <point x="652" y="185" type="curve" smooth="yes"/>
      <point x="652" y="68"/>
      <point x="661" y="18"/>
      <point x="670" y="-19" type="curve"/>
    </contour>
    <contour>
      <point x="350" y="15" type="line"/>
      <point x="291" y="157"/>
      <point x="189" y="235"/>
      <point x="85" y="274" type="curve"/>
      <point x="88" y="242" type="line"/>
      <point x="153" y="319"/>
      <point x="280" y="405"/>
      <point x="355" y="434" type="curve"/>
      <point x="354" y="512" type="line"/>
      <point x="228" y="459"/>
      <point x="97" y="366"/>
      <point x="33" y="289" type="curve"/>
      <point x="35" y="262"/>
      <point x="43" y="239"/>
      <point x="66" y="213" type="curve"/>
      <point x="172" y="189"/>
      <point x="262" y="118"/>
      <point x="334" y="-19" type="curve"/>
    </contour>
    <contour>
      <point x="358" y="-19"/>
      <point x="386" y="-15"/>
      <point x="404" y="-4" type="curve"/>
      <point x="382" y="75"/>
      <point x="377" y="203"/>
      <point x="377" y="292" type="curve" smooth="yes"/>
      <point x="377" y="406"/>
      <point x="383" y="480"/>
      <point x="400" y="578" type="curve"/>
      <point x="348" y="588" type="line"/>
      <point x="325" y="456"/>
      <point x="315" y="339"/>
      <point x="315" y="185" type="curve" smooth="yes"/>
      <point x="315" y="68"/>
      <point x="324" y="18"/>
      <point x="334" y="-19" type="curve"/>
    </contour>
    <contour>
      <point x="86" y="549"/>
      <point x="226" y="569"/>
      <point x="418" y="569" type="curve" smooth="yes"/>
      <point x="592" y="569"/>
      <point x="718" y="548"/>
      <point x="803" y="530" type="curve"/>
      <point x="806" y="537"/>
      <point x="808" y="550"/>
      <point x="808" y="563" type="curve" smooth="yes"/>
      <point x="808" y="573"/>
      <point x="807" y="583"/>
      <point x="803" y="589" type="curve"/>
      <point x="725" y="609"/>
      <point x="594" y="632"/>
      <point x="417" y="632" type="curve" smooth="yes"/>
      <point x="225" y="632"/>
      <point x="84" y="611"/>
      <point x="0" y="589" type="curve"/>
      <point x="-3" y="583"/>
      <point x="-5" y="574"/>
      <point x="-5" y="563" type="curve" smooth="yes"/>
      <point x="-5" y="551"/>
      <point x="-3" y="539"/>
      <point x="0" y="530" type="curve"/>
    </contour>
    <contour>
      <point x="691" y="-4" type="move" name="blwm"/>
    </contour>
    <contour>
      <point x="570" y="-3" type="move" name="haln"/>
    </contour>
    <contour>
      <point x="678" y="690" type="move" name="reph"/>
    </contour>
    <contour>
      <point x="678" y="690" type="move" name="chandrabindu"/>
    </contour>
  </outline>
</glyph>
<glyph name="bn_b_ra_ukaar" format="1">
  <advance width="644"/>
  <outline>
    <contour>
      <point x="571" y="152"/>
      <point x="621" y="220"/>
      <point x="621" y="312" type="curve" smooth="yes"/>
      <point x="621" y="401"/>
      <point x="573" y="456"/>
      <point x="516" y="456" type="curve" smooth="yes"/>
      <point x="476" y="456"/>
      <point x="448" y="430"/>
      <point x="434" y="398" type="curve"/>
      <point x="437" y="374"/>
      <point x="449" y="344"/>
      <point x="463" y="327" type="curve"/>
      <point x="470" y="358"/>
      <point x="488" y="395"/>
      <point x="520" y="395" type="curve" smooth="yes"/>
      <point x="548" y="395"/>
      <point x="569" y="368"/>
      <point x="569" y="320" type="curve" smooth="yes"/>
      <point x="569" y="260"/>
      <point x="534" y="218"/>
      <point x="487" y="218" type="curve" smooth="yes"/>
      <point x="437" y="218"/>
      <point x="384" y="265"/>
      <point x="367" y="353" type="curve"/>
      <point x="353" y="302" type="line"/>
      <point x="379" y="206"/>
      <point x="431" y="152"/>
      <point x="498" y="152" type="curve" smooth="yes"/>
    </contour>
    <contour>
      <point x="70" y="545"/>
      <point x="186" y="563"/>
      <point x="304" y="563" type="curve" smooth="yes"/>
      <point x="434" y="563"/>
      <point x="566" y="547"/>
      <point x="644" y="530" type="curve"/>
      <point x="648" y="538"/>
      <point x="650" y="551"/>
      <point x="650" y="561" type="curve" smooth="yes"/>
      <point x="650" y="571"/>
      <point x="648" y="583"/>
      <point x="644" y="589" type="curve"/>
      <point x="569" y="608"/>
      <point x="438" y="626"/>
      <point x="305" y="626" type="curve" smooth="yes"/>
      <point x="185" y="626"/>
      <point x="68" y="606"/>
      <point x="0" y="589" type="curve"/>
      <point x="-3" y="583"/>
      <point x="-5" y="571"/>
      <point x="-5" y="562" type="curve" smooth="yes"/>
      <point x="-5" y="551"/>
      <point x="-3" y="538"/>
      <point x="0" y="530" type="curve"/>
    </contour>
    <contour>
      <point x="345" y="-3" type="line"/>
      <point x="323" y="163"/>
      <point x="196" y="246"/>
      <point x="99" y="287" type="curve"/>
      <point x="102" y="257" type="line"/>
      <point x="162" y="328"/>
      <point x="282" y="407"/>
      <point x="353" y="435" type="curve"/>
      <point x="352" y="512" type="line"/>
      <point x="232" y="462"/>
      <point x="107" y="375"/>
      <point x="46" y="303" type="curve"/>
      <point x="49" y="277"/>
      <point x="56" y="253"/>
      <point x="79" y="228" type="curve"/>
      <point x="176" y="202"/>
      <point x="291" y="125"/>
      <point x="323" y="-36" type="curve"/>
    </contour>
    <contour>
      <point x="358" y="-220"/>
      <point x="384" y="-217"/>
      <point x="403" y="-209" type="curve"/>
      <point x="379" y="-73"/>
      <point x="377" y="150"/>
      <point x="377" y="284" type="curve" smooth="yes"/>
      <point x="377" y="403"/>
      <point x="380" y="472"/>
      <point x="390" y="566" type="curve"/>
      <point x="337" y="578" type="line"/>
      <point x="322" y="435"/>
      <point x="316" y="330"/>
      <point x="316" y="188" type="curve" smooth="yes"/>
      <point x="316" y="-48"/>
      <point x="326" y="-143"/>
      <point x="333" y="-220" type="curve"/>
    </contour>
    <contour>
      <point x="351" y="-190" type="line"/>
      <point x="320" y="-131"/>
      <point x="285" y="-101"/>
      <point x="226" y="-101" type="curve" smooth="yes"/>
      <point x="180" y="-101"/>
      <point x="142" y="-111"/>
      <point x="106" y="-111" type="curve" smooth="yes"/>
      <point x="68" y="-111"/>
      <point x="39" y="-92"/>
      <point x="39" y="-49" type="curve" smooth="yes"/>
      <point x="39" y="-22"/>
      <point x="49" y="7"/>
      <point x="60" y="28" type="curve"/>
      <point x="48" y="37"/>
      <point x="32" y="44"/>
      <point x="11" y="44" type="curve"/>
      <point x="-3" y="13"/>
      <point x="-18" y="-22"/>
      <point x="-18" y="-60" type="curve" smooth="yes"/>
      <point x="-18" y="-126"/>
      <point x="25" y="-174"/>
      <point x="101" y="-174" type="curve" smooth="yes"/>
      <point x="146" y="-174"/>
      <point x="189" y="-163"/>
      <point x="233" y="-163" type="curve" smooth="yes"/>
      <point x="292" y="-163"/>
      <point x="312" y="-196"/>
      <point x="333" y="-220" type="curve"/>
    </contour>
    <contour>
      <point x="354" y="690" type="move" name="chandrabindu"/>
    </contour>
    <contour>
      <point x="354" y="690" type="move" name="reph"/>
    </contour>
    <contour>
      <point x="357" y="-207" type="move" name="blwm"/>
    </contour>
    <contour>
      <point x="211" y="-207" type="move" name="haln"/>
    </contour>
  </outline>
</glyph>
<glyph name="bn_bh_la" format="1">
  <advance width="518"/>
  <outline>
    <contour>
      <point x="260" y="558" type="curve" smooth="yes"/>
      <point x="356" y="558"/>
      <point x="471" y="545"/>
      <point x="518" y="530" type="curve"/>
      <point x="521" y="538"/>
      <point x="522" y="551"/>
      <point x="522" y="564" type="curve" smooth="yes"/>
      <point x="522" y="573"/>
      <point x="522" y="582"/>
      <point x="519" y="589" type="curve"/>
      <point x="475" y="607"/>
      <point x="356" y="621"/>
      <point x="261" y="621" type="curve" smooth="yes"/>
      <point x="166" y="621"/>
      <point x="57" y="607"/>
      <point x="0" y="589" type="curve"/>
      <point x="-3" y="583"/>
      <point x="-5" y="574"/>
      <point x="-5" y="564" type="curve" smooth="yes"/>
      <point x="-5" y="552"/>
      <point x="-3" y="540"/>
      <point x="0" y="530" type="curve"/>
      <point x="58" y="545"/>
      <point x="165" y="558"/>
    </contour>
    <contour>
      <point x="377" y="-90" type="curve"/>
      <point x="398" y="-90"/>
      <point x="425" y="-89"/>
      <point x="444" y="-81" type="curve"/>
      <point x="458" y="39"/>
      <point x="468" y="180"/>
      <point x="468" y="352" type="curve" smooth="yes"/>
      <point x="469" y="394"/>
      <point x="450" y="426"/>
      <point x="429" y="450" type="curve"/>
      <point x="416" y="462"/>
      <point x="394" y="475"/>
      <point x="379" y="483" type="curve"/>
      <point x="310" y="379"/>
      <point x="264" y="326"/>
      <point x="213" y="326" type="curve" smooth="yes"/>
      <point x="177" y="326"/>
      <point x="152" y="344"/>
      <point x="152" y="376" type="curve" smooth="yes"/>
      <point x="152" y="413"/>
      <point x="186" y="444"/>
      <point x="246" y="459" type="curve"/>
      <point x="238" y="483"/>
      <point x="218" y="502"/>
      <point x="198" y="510" type="curve"/>
      <point x="151" y="493"/>
      <point x="99" y="451"/>
      <point x="99" y="387" type="curve" smooth="yes"/>
      <point x="99" y="317"/>
      <point x="158" y="267"/>
      <point x="230" y="267" type="curve" smooth="yes"/>
      <point x="299" y="267"/>
      <point x="355" y="337"/>
      <point x="414" y="432" type="curve"/>
      <point x="371" y="439" type="line"/>
      <point x="406" y="405"/>
      <point x="410" y="381"/>
      <point x="410" y="326" type="curve" smooth="yes"/>
      <point x="410" y="239"/>
      <point x="392" y="38"/>
    </contour>
    <contour>
      <point x="223" y="-32" type="curve"/>
      <point x="209" y="-35"/>
      <point x="196" y="-36"/>
      <point x="184" y="-36" type="curve" smooth="yes"/>
      <point x="124" y="-36"/>
      <point x="78" y="-7"/>
      <point x="78" y="42" type="curve" smooth="yes"/>
      <point x="78" y="85"/>
      <point x="99" y="112"/>
      <point x="132" y="112" type="curve" smooth="yes"/>
      <point x="167" y="112"/>
      <point x="195" y="78"/>
      <point x="222" y="28" type="curve"/>
      <point x="255" y="67" type="line"/>
      <point x="220" y="136"/>
      <point x="182" y="180"/>
      <point x="133" y="180" type="curve" smooth="yes"/>
      <point x="74" y="180"/>
      <point x="31" y="127"/>
      <point x="31" y="51" type="curve" smooth="yes"/>
      <point x="31" y="-38"/>
      <point x="109" y="-101"/>
      <point x="205" y="-99" type="curve"/>
      <point x="216" y="-81"/>
      <point x="223" y="-54"/>
    </contour>
    <contour>
      <point x="286" y="32" type="curve"/>
      <point x="236" y="118" type="line"/>
      <point x="189" y="84" type="line"/>
      <point x="233" y="9" type="line"/>
      <point x="254" y="15"/>
      <point x="273" y="23"/>
    </contour>
    <contour>
      <point x="398" y="-19" type="line"/>
      <point x="383" y="124"/>
      <point x="344" y="180"/>
      <point x="291" y="180" type="curve" smooth="yes"/>
      <point x="256" y="180"/>
      <point x="224" y="148"/>
      <point x="220" y="90" type="curve"/>
      <point x="228" y="49" type="line"/>
      <point x="278" y="44" type="line"/>
      <point x="268" y="61"/>
      <point x="265" y="67"/>
      <point x="265" y="77" type="curve" smooth="yes"/>
      <point x="265" y="101"/>
      <point x="279" y="118"/>
      <point x="300" y="118" type="curve" smooth="yes"/>
      <point x="335" y="118"/>
      <point x="366" y="71"/>
      <point x="377" y="-90" type="curve"/>
    </contour>
    <contour>
      <point x="404" y="-78" type="move" name="blwm"/>
    </contour>
    <contour>
      <point x="276" y="-76" type="move" name="haln"/>
    </contour>
    <contour>
      <point x="432" y="690" type="move" name="reph"/>
    </contour>
    <contour>
      <point x="430" y="690" type="move" name="chandrabindu"/>
    </contour>
  </outline>
</glyph>
<glyph name="bn_ca.half" format="1">
  <advance width="437"/>
  <outline>
    <contour>
      <point x="304" y="138"/>
      <point x="401" y="249"/>
      <point x="401" y="363" type="curve" smooth="yes"/>
      <point x="401" y="408"/>
      <point x="375" y="430"/>
      <point x="324" y="448" type="curve" smooth="yes"/>
      <point x="258" y="470"/>
      <point x="188" y="505"/>
      <point x="164" y="581" type="curve"/>
      <point x="145" y="543" type="line"/>
      <point x="162" y="482"/>
      <point x="219" y="437"/>
      <point x="276" y="415" type="curve" smooth="yes"/>
      <point x="315" y="399"/>
      <point x="332" y="390"/>
      <point x="332" y="361" type="curve" smooth="yes"/>
      <point x="332" y="273"/>
      <point x="254" y="179"/>
      <point x="179" y="179" type="curve" smooth="yes"/>
      <point x="143" y="179"/>
      <point x="124" y="196"/>
      <point x="124" y="247" type="curve" smooth="yes"/>
      <point x="124" y="326"/>
      <point x="150" y="499"/>
      <point x="176" y="595" type="curve"/>
      <point x="112" y="593" type="line"/>
      <point x="99" y="541"/>
      <point x="63" y="363"/>
      <point x="63" y="268" type="curve" smooth="yes"/>
      <point x="63" y="164"/>
      <point x="131" y="138"/>
      <point x="188" y="138" type="curve" smooth="yes"/>
    </contour>
    <contour>
      <point x="56" y="543"/>
      <point x="149" y="554"/>
      <point x="223" y="554" type="curve" smooth="yes"/>
      <point x="298" y="554"/>
      <point x="390" y="542"/>
      <point x="437" y="530" type="curve"/>
      <point x="439" y="538"/>
      <point x="441" y="551"/>
      <point x="441" y="564" type="curve" smooth="yes"/>
      <point x="441" y="573"/>
      <point x="440" y="583"/>
      <point x="437" y="589" type="curve"/>
      <point x="394" y="603"/>
      <point x="290" y="617"/>
      <point x="217" y="617" type="curve" smooth="yes"/>
      <point x="143" y="617"/>
      <point x="54" y="605"/>
      <point x="0" y="589" type="curve"/>
      <point x="-3" y="583"/>
      <point x="-5" y="573"/>
      <point x="-5" y="563" type="curve" smooth="yes"/>
      <point x="-5" y="551"/>
      <point x="-3" y="539"/>
      <point x="0" y="530" type="curve"/>
    </contour>
  </outline>
</glyph>
<glyph name="bn_d_bh_ra" format="1">
  <advance width="603"/>
  <outline>
    <contour>
      <point x="484" y="42" type="curve"/>
      <point x="472" y="93"/>
      <point x="470" y="142"/>
      <point x="470" y="188" type="curve" smooth="yes"/>
      <point x="470" y="278"/>
      <point x="491" y="360"/>
      <point x="517" y="440" type="curve"/>
      <point x="501" y="464"/>
      <point x="484" y="481"/>
      <point x="458" y="492" type="curve"/>
      <point x="373" y="441"/>
      <point x="288" y="356"/>
      <point x="209" y="239" type="curve"/>
      <point x="245" y="246" type="line"/>
      <point x="268" y="325"/>
      <point x="269" y="438"/>
      <point x="269" y="527" type="curve" smooth="yes"/>
      <point x="269" y="545"/>
      <point x="269" y="563"/>
      <point x="268" y="579" type="curve"/>
      <point x="221" y="572" type="line"/>
      <point x="219" y="464"/>
      <point x="214" y="332"/>
      <point x="180" y="222" type="curve"/>
      <point x="195" y="209"/>
      <point x="226" y="197"/>
      <point x="248" y="194" type="curve"/>
      <point x="300" y="279"/>
      <point x="392" y="376"/>
      <point x="482" y="430" type="curve"/>
      <point x="456" y="440" type="line"/>
      <point x="432" y="366"/>
      <point x="413" y="269"/>
      <point x="413" y="167" type="curve" smooth="yes"/>
      <point x="413" y="119"/>
      <point x="417" y="69"/>
      <point x="428" y="23" type="curve"/>
      <point x="447" y="26"/>
      <point x="467" y="34"/>
    </contour>
    <contour>
      <point x="300" y="557" type="curve" smooth="yes"/>
      <point x="428" y="557"/>
      <point x="528" y="544"/>
      <point x="603" y="530" type="curve"/>
      <point x="607" y="538"/>
      <point x="609" y="550"/>
      <point x="609" y="561" type="curve" smooth="yes"/>
      <point x="609" y="572"/>
      <point x="607" y="583"/>
      <point x="603" y="589" type="curve"/>
      <point x="529" y="606"/>
      <point x="429" y="620"/>
      <point x="300" y="620" type="curve" smooth="yes"/>
      <point x="171" y="620"/>
      <point x="71" y="606"/>
      <point x="0" y="589" type="curve"/>
      <point x="-3" y="583"/>
      <point x="-5" y="572"/>
      <point x="-5" y="561" type="curve" smooth="yes"/>
      <point x="-5" y="549"/>
      <point x="-3" y="537"/>
      <point x="0" y="530" type="curve"/>
      <point x="73" y="544"/>
      <point x="172" y="557"/>
    </contour>
    <contour>
      <point x="521" y="-256" type="curve"/>
      <point x="541" y="-252"/>
      <point x="565" y="-245"/>
      <point x="583" y="-236" type="curve"/>
      <point x="567" y="-127"/>
      <point x="564" y="-13"/>
      <point x="541" y="70" type="curve"/>
      <point x="529" y="80"/>
      <point x="511" y="91"/>
      <point x="498" y="98" type="curve"/>
      <point x="428" y="46"/>
      <point x="377" y="15"/>
      <point x="325" y="15" type="curve" smooth="yes"/>
      <point x="289" y="15"/>
      <point x="264" y="30"/>
      <point x="264" y="57" type="curve" smooth="yes"/>
      <point x="264" y="88"/>
      <point x="295" y="114"/>
      <point x="354" y="126" type="curve"/>
      <point x="346" y="146"/>
      <point x="327" y="162"/>
      <point x="309" y="167" type="curve"/>
      <point x="261" y="154"/>
      <point x="210" y="119"/>
      <point x="210" y="66" type="curve" smooth="yes"/>
      <point x="210" y="7"/>
      <point x="273" y="-34"/>
      <point x="345" y="-34" type="curve" smooth="yes"/>
      <point x="414" y="-34"/>
      <point x="471" y="4"/>
      <point x="531" y="52" type="curve"/>
      <point x="485" y="69" type="line"/>
      <point x="503" y="-57"/>
      <point x="510" y="-131"/>
    </contour>
    <contour>
      <point x="536" y="-225" type="line"/>
      <point x="510" y="-156"/>
      <point x="465" y="-124"/>
      <point x="393" y="-124" type="curve" smooth="yes"/>
      <point x="331" y="-124"/>
      <point x="244" y="-158"/>
      <point x="187" y="-158" type="curve" smooth="yes"/>
      <point x="152" y="-158"/>
      <point x="123" y="-139"/>
      <point x="123" y="-94" type="curve" smooth="yes"/>
      <point x="123" y="-65"/>
      <point x="135" y="-26"/>
      <point x="151" y="-1" type="curve"/>
      <point x="138" y="7"/>
      <point x="122" y="12"/>
      <point x="101" y="13" type="curve"/>
      <point x="83" y="-20"/>
      <point x="67" y="-66"/>
      <point x="67" y="-107" type="curve" smooth="yes"/>
      <point x="67" y="-172"/>
      <point x="110" y="-221"/>
      <point x="180" y="-221" type="curve" smooth="yes"/>
      <point x="251" y="-221"/>
      <point x="340" y="-186"/>
      <point x="401" y="-186" type="curve" smooth="yes"/>
      <point x="473" y="-186"/>
      <point x="500" y="-217"/>
      <point x="521" y="-256" type="curve"/>
    </contour>
    <contour>
      <point x="292" y="690" type="move" name="reph"/>
    </contour>
    <contour>
      <point x="292" y="690" type="move" name="chandrabindu"/>
    </contour>
    <contour>
      <point x="540" y="-233" type="move" name="blwm"/>
    </contour>
    <contour>
      <point x="395" y="-235" type="move" name="haln"/>
    </contour>
  </outline>
</glyph>
<glyph name="bn_g_ra" format="1">
  <advance width="567"/>
  <outline>
    <contour>
      <point x="428" y="320" type="curve"/>
      <point x="462" y="273" type="line"/>
      <point x="468" y="470"/>
      <point x="393" y="619"/>
      <point x="260" y="619" type="curve" smooth="yes"/>
      <point x="166" y="619"/>
      <point x="106" y="548"/>
      <point x="106" y="462" type="curve" smooth="yes"/>
      <point x="106" y="441"/>
      <point x="108" y="423"/>
      <point x="112" y="406" type="curve"/>
      <point x="142" y="368" type="line"/>
      <point x="182" y="397"/>
      <point x="226" y="413"/>
      <point x="259" y="413" type="curve" smooth="yes"/>
      <point x="288" y="413"/>
      <point x="304" y="400"/>
      <point x="304" y="374" type="curve" smooth="yes"/>
      <point x="304" y="333"/>
      <point x="249" y="272"/>
      <point x="171" y="208" type="curve"/>
      <point x="183" y="188"/>
      <point x="202" y="167"/>
      <point x="225" y="155" type="curve"/>
      <point x="276" y="203"/>
      <point x="351" y="291"/>
      <point x="351" y="363" type="curve" smooth="yes"/>
      <point x="351" y="421"/>
      <point x="307" y="469"/>
      <point x="249" y="469" type="curve" smooth="yes"/>
      <point x="213" y="469"/>
      <point x="169" y="452"/>
      <point x="133" y="424" type="curve"/>
      <point x="174" y="419" type="line"/>
      <point x="167" y="430"/>
      <point x="163" y="446"/>
      <point x="163" y="462" type="curve" smooth="yes"/>
      <point x="163" y="520"/>
      <point x="204" y="550"/>
      <point x="262" y="550" type="curve" smooth="yes"/>
      <point x="338" y="550"/>
      <point x="428" y="479"/>
    </contour>
    <contour>
      <point x="497" y="462" type="curve" smooth="yes"/>
      <point x="500" y="485"/>
      <point x="509" y="507"/>
      <point x="523" y="514" type="curve" smooth="yes"/>
      <point x="532" y="519"/>
      <point x="546" y="524"/>
      <point x="567" y="530" type="curve"/>
      <point x="571" y="536"/>
      <point x="573" y="549"/>
      <point x="573" y="562" type="curve" smooth="yes"/>
      <point x="573" y="573"/>
      <point x="571" y="584"/>
      <point x="567" y="589" type="curve"/>
      <point x="529" y="580"/>
      <point x="501" y="571"/>
      <point x="478" y="558" type="curve" smooth="yes"/>
      <point x="455" y="546"/>
      <point x="446" y="519"/>
      <point x="442" y="491" type="curve" smooth="yes"/>
      <point x="431" y="418"/>
      <point x="424" y="299"/>
      <point x="424" y="193" type="curve" smooth="yes"/>
      <point x="424" y="93"/>
      <point x="432" y="28"/>
      <point x="442" y="-19" type="curve"/>
      <point x="458" y="-12" type="line"/>
      <point x="425" y="47"/>
      <point x="387" y="77"/>
      <point x="324" y="77" type="curve" smooth="yes"/>
      <point x="259" y="77"/>
      <point x="197" y="51"/>
      <point x="146" y="51" type="curve" smooth="yes"/>
      <point x="106" y="51"/>
      <point x="77" y="72"/>
      <point x="77" y="120" type="curve" smooth="yes"/>
      <point x="77" y="148"/>
      <point x="88" y="180"/>
      <point x="100" y="202" type="curve"/>
      <point x="88" y="212"/>
      <point x="72" y="218"/>
      <point x="51" y="219" type="curve"/>
      <point x="35" y="186"/>
      <point x="19" y="148"/>
      <point x="19" y="109" type="curve" smooth="yes"/>
      <point x="19" y="39"/>
      <point x="63" y="-11"/>
      <point x="140" y="-11" type="curve" smooth="yes"/>
      <point x="204" y="-11"/>
      <point x="270" y="14"/>
      <point x="332" y="14" type="curve" smooth="yes"/>
      <point x="396" y="14"/>
      <point x="417" y="-18"/>
      <point x="440" y="-42" type="curve"/>
      <point x="465" y="-42"/>
      <point x="490" y="-35"/>
      <point x="513" y="-15" type="curve"/>
      <point x="498" y="36"/>
      <point x="488" y="155"/>
      <point x="488" y="278" type="curve" smooth="yes"/>
      <point x="488" y="349"/>
      <point x="490" y="405"/>
    </contour>
    <contour>
      <point x="461" y="-20" type="move" name="blwm"/>
    </contour>
    <contour>
      <point x="346" y="-17" type="move" name="haln"/>
    </contour>
    <contour>
      <point x="486" y="690" type="move" name="reph"/>
    </contour>
    <contour>
      <point x="486" y="690" type="move" name="chandrabindu"/>
    </contour>
  </outline>
</glyph>
<glyph name="bn_gh_ba" format="1">
  <advance width="486"/>
  <outline>
    <contour>
      <point x="359" y="66" type="line"/>
      <point x="313" y="178"/>
      <point x="218" y="242"/>
      <point x="118" y="256" type="curve"/>
      <point x="121" y="220" type="line"/>
      <point x="279" y="342" type="line"/>
      <point x="278" y="366"/>
      <point x="271" y="393"/>
      <point x="258" y="411" type="curve"/>
      <point x="225" y="383"/>
      <point x="192" y="373"/>
      <point x="171" y="373" type="curve" smooth="yes"/>
      <point x="134" y="373"/>
      <point x="106" y="402"/>
      <point x="106" y="442" type="curve" smooth="yes"/>
      <point x="106" y="482"/>
      <point x="135" y="525"/>
      <point x="224" y="560" type="curve"/>
      <point x="133" y="579" type="line"/>
      <point x="73" y="539"/>
      <point x="45" y="499"/>
      <point x="45" y="445" type="curve" smooth="yes"/>
      <point x="45" y="373"/>
      <point x="98" y="335"/>
      <point x="165" y="332" type="curve" smooth="yes"/>
      <point x="216" y="329"/>
      <point x="242" y="349"/>
      <point x="253" y="357" type="curve"/>
      <point x="198" y="364" type="line"/>
      <point x="69" y="266" type="line"/>
      <point x="69" y="241"/>
      <point x="78" y="217"/>
      <point x="103" y="195" type="curve"/>
      <point x="198" y="187"/>
      <point x="299" y="123"/>
      <point x="341" y="17" type="curve"/>
    </contour>
    <contour>
      <point x="250" y="557" type="curve" smooth="yes"/>
      <point x="347" y="557"/>
      <point x="427" y="544"/>
      <point x="486" y="530" type="curve"/>
      <point x="488" y="538"/>
      <point x="491" y="551"/>
      <point x="491" y="564" type="curve" smooth="yes"/>
      <point x="491" y="573"/>
      <point x="489" y="583"/>
      <point x="486" y="589" type="curve"/>
      <point x="430" y="606"/>
      <point x="348" y="620"/>
      <point x="253" y="620" type="curve" smooth="yes"/>
      <point x="150" y="620"/>
      <point x="56" y="606"/>
      <point x="0" y="589" type="curve"/>
      <point x="-3" y="583"/>
      <point x="-5" y="573"/>
      <point x="-5" y="563" type="curve" smooth="yes"/>
      <point x="-5" y="551"/>
      <point x="-3" y="540"/>
      <point x="0" y="530" type="curve"/>
      <point x="57" y="544"/>
      <point x="149" y="557"/>
    </contour>
    <contour>
      <point x="452" y="-200" type="curve"/>
      <point x="412" y="-62"/>
      <point x="406" y="151"/>
      <point x="406" y="283" type="curve" smooth="yes"/>
      <point x="406" y="429"/>
      <point x="409" y="472"/>
      <point x="420" y="566" type="curve"/>
      <point x="368" y="578" type="line"/>
      <point x="352" y="461"/>
      <point x="344" y="330"/>
      <point x="344" y="190" type="curve" smooth="yes"/>
      <point x="344" y="-43"/>
      <point x="372" y="-135"/>
      <point x="381" y="-213" type="curve"/>
      <point x="406" y="-213"/>
      <point x="432" y="-210"/>
    </contour>
    <contour>
      <point x="398" y="-181" type="line"/>
      <point x="354" y="-101"/>
      <point x="262" y="-66"/>
      <point x="174" y="-40" type="curve"/>
      <point x="172" y="-69" type="line"/>
      <point x="223" y="-33"/>
      <point x="315" y="5"/>
      <point x="371" y="17" type="curve"/>
      <point x="353" y="76" type="line"/>
      <point x="261" y="47"/>
      <point x="172" y="16"/>
      <point x="126" y="-20" type="curve"/>
      <point x="125" y="-44"/>
      <point x="129" y="-67"/>
      <point x="144" y="-87" type="curve"/>
      <point x="240" y="-105"/>
      <point x="323" y="-135"/>
      <point x="381" y="-213" type="curve"/>
    </contour>
    <contour>
      <point x="405" y="-194" type="move" name="blwm"/>
    </contour>
    <contour>
      <point x="277" y="-192" type="move" name="haln"/>
    </contour>
    <contour>
      <point x="402" y="690" type="move" name="reph"/>
    </contour>
    <contour>
      <point x="402" y="690" type="move" name="chandrabindu"/>
    </contour>
  </outline>
</glyph>
<glyph name="bn_h_la" format="1">
  <advance width="469"/>
  <outline>
    <contour>
      <point x="146" y="-190" type="curve"/>
      <point x="132" y="-193"/>
      <point x="120" y="-194"/>
      <point x="108" y="-194" type="curve" smooth="yes"/>
      <point x="63" y="-194"/>
      <point x="29" y="-171"/>
      <point x="29" y="-131" type="curve" smooth="yes"/>
      <point x="29" y="-94"/>
      <point x="48" y="-71"/>
      <point x="79" y="-71" type="curve" smooth="yes"/>
      <point x="118" y="-71"/>
      <point x="153" y="-104"/>
      <point x="179" y="-154" type="curve"/>
      <point x="212" y="-117" type="line"/>
      <point x="178" y="-49"/>
      <point x="133" y="-8"/>
      <point x="80" y="-8" type="curve" smooth="yes"/>
      <point x="23" y="-8"/>
      <point x="-16" y="-55"/>
      <point x="-16" y="-122" type="curve" smooth="yes"/>
      <point x="-16" y="-202"/>
      <point x="49" y="-258"/>
      <point x="126" y="-256" type="curve"/>
      <point x="138" y="-239"/>
      <point x="146" y="-212"/>
    </contour>
    <contour>
      <point x="241" y="-151" type="curve"/>
      <point x="193" y="-68" type="line"/>
      <point x="148" y="-100" type="line"/>
      <point x="190" y="-172" type="line"/>
      <point x="211" y="-167"/>
      <point x="229" y="-159"/>
    </contour>
    <contour>
      <point x="248" y="-8" type="curve" smooth="yes"/>
      <point x="213" y="-8"/>
      <point x="182" y="-39"/>
      <point x="178" y="-95" type="curve"/>
      <point x="185" y="-133" type="line"/>
      <point x="234" y="-139" type="line"/>
      <point x="224" y="-122"/>
      <point x="221" y="-116"/>
      <point x="221" y="-107" type="curve" smooth="yes"/>
      <point x="221" y="-83"/>
      <point x="235" y="-66"/>
      <point x="256" y="-66" type="curve" smooth="yes"/>
      <point x="294" y="-66"/>
      <point x="330" y="-122"/>
      <point x="345" y="-255" type="curve"/>
      <point x="342" y="-105" type="line"/>
      <point x="337" y="-50"/>
      <point x="295" y="-8"/>
    </contour>
    <contour>
      <point x="412" y="-246" type="curve"/>
      <point x="395" y="-157"/>
      <point x="393" y="-93"/>
      <point x="397" y="-7" type="curve"/>
      <point x="341" y="8" type="line"/>
      <point x="333" y="-81"/>
      <point x="341" y="-214"/>
      <point x="344" y="-255" type="curve"/>
      <point x="370" y="-255"/>
      <point x="394" y="-253"/>
    </contour>
    <contour>
      <point x="488" y="-74" type="curve"/>
      <point x="385" y="27"/>
      <point x="277" y="102"/>
      <point x="171" y="151" type="curve"/>
      <point x="150" y="123" type="line"/>
      <point x="176" y="119"/>
      <point x="202" y="117"/>
      <point x="224" y="117" type="curve" smooth="yes"/>
      <point x="331" y="117"/>
      <point x="403" y="167"/>
      <point x="403" y="266" type="curve" smooth="yes"/>
      <point x="403" y="383"/>
      <point x="302" y="498"/>
      <point x="192" y="498" type="curve" smooth="yes"/>
      <point x="132" y="498"/>
      <point x="86" y="464"/>
      <point x="86" y="403" type="curve" smooth="yes"/>
      <point x="86" y="370"/>
      <point x="99" y="338"/>
      <point x="127" y="305" type="curve"/>
      <point x="147" y="304"/>
      <point x="177" y="310"/>
      <point x="196" y="319" type="curve"/>
      <point x="173" y="341"/>
      <point x="147" y="368"/>
      <point x="147" y="400" type="curve" smooth="yes"/>
      <point x="147" y="428"/>
      <point x="166" y="446"/>
      <point x="202" y="446" type="curve" smooth="yes"/>
      <point x="274" y="446"/>
      <point x="341" y="366"/>
      <point x="341" y="286" type="curve" smooth="yes"/>
      <point x="341" y="220"/>
      <point x="295" y="183"/>
      <point x="215" y="183" type="curve" smooth="yes"/>
      <point x="167" y="183"/>
      <point x="110" y="195"/>
      <point x="48" y="217" type="curve"/>
      <point x="68" y="132" type="line"/>
      <point x="206" y="89"/>
      <point x="327" y="10"/>
      <point x="448" y="-122" type="curve"/>
      <point x="463" y="-107"/>
      <point x="477" y="-92"/>
    </contour>
    <contour>
      <point x="238" y="556" type="curve" smooth="yes"/>
      <point x="323" y="556"/>
      <point x="417" y="543"/>
      <point x="469" y="530" type="curve"/>
      <point x="471" y="538"/>
      <point x="472" y="551"/>
      <point x="472" y="563" type="curve" smooth="yes"/>
      <point x="472" y="573"/>
      <point x="472" y="583"/>
      <point x="469" y="589" type="curve"/>
      <point x="421" y="606"/>
      <point x="323" y="619"/>
      <point x="239" y="619" type="curve" smooth="yes"/>
      <point x="154" y="619"/>
      <point x="59" y="606"/>
      <point x="0" y="589" type="curve"/>
      <point x="-4" y="583"/>
      <point x="-6" y="574"/>
      <point x="-6" y="563" type="curve" smooth="yes"/>
      <point x="-6" y="552"/>
      <point x="-4" y="540"/>
      <point x="0" y="530" type="curve"/>
      <point x="61" y="543"/>
      <point x="154" y="556"/>
    </contour>
    <contour>
      <point x="372" y="-241" type="move" name="blwm"/>
    </contour>
    <contour>
      <point x="235" y="690" type="move" name="reph"/>
    </contour>
    <contour>
      <point x="207" y="-240" type="move" name="haln"/>
    </contour>
    <contour>
      <point x="235" y="690" type="move" name="chandrabindu"/>
    </contour>
  </outline>
</glyph>
<glyph name="bn_iikaar.fl" format="1">
  <advance width="233"/>
  <outline>
    <contour>
      <point x="162" y="736"/>
      <point x="21" y="894"/>
      <point x="-208" y="894" type="curve" smooth="yes"/>
      <point x="-311" y="894"/>
      <point x="-384" y="853"/>
      <point x="-384" y="783" type="curve" smooth="yes"/>
      <point x="-384" y="750"/>
      <point x="-365" y="723"/>
      <point x="-331" y="707" type="curve"/>
      <point x="-288" y="725" type="line"/>
      <point x="-313" y="734"/>
      <point x="-332" y="750"/>
      <point x="-332" y="772" type="curve" smooth="yes"/>
      <point x="-332" y="809"/>
      <point x="-289" y="831"/>
      <point x="-205" y="831" type="curve" smooth="yes"/>
      <point x="15" y="831"/>
      <point x="92" y="722"/>
      <point x="92" y="540" type="curve"/>
      <point x="160" y="494" type="line"/>
    </contour>
    <contour>
      <point x="140" y="107"/>
      <point x="162" y="303"/>
      <point x="159" y="505" type="curve"/>
      <point x="126" y="494" type="line"/>
      <point x="97" y="490" type="line"/>
      <point x="99" y="262"/>
      <point x="76" y="101"/>
      <point x="45" y="-38" type="curve"/>
      <point x="62" y="-47"/>
      <point x="97" y="-54"/>
      <point x="124" y="-54" type="curve"/>
    </contour>
    <contour>
      <point x="148" y="502" type="line"/>
      <point x="122" y="546"/>
      <point x="59" y="575"/>
      <point x="0" y="589" type="curve"/>
      <point x="-5" y="578"/>
      <point x="-6" y="548"/>
      <point x="0" y="530" type="curve"/>
      <point x="59" y="516"/>
      <point x="97" y="489"/>
      <point x="97" y="441" type="curve"/>
    </contour>
    <contour>
      <point x="160" y="497"/>
      <point x="186" y="517"/>
      <point x="233" y="530" type="curve"/>
      <point x="239" y="548"/>
      <point x="240" y="578"/>
      <point x="233" y="589" type="curve"/>
      <point x="171" y="574"/>
      <point x="116" y="544"/>
      <point x="102" y="505" type="curve"/>
      <point x="150" y="473" type="line"/>
    </contour>
  </outline>
</glyph>
<glyph name="bn_iikaar.wi2.b" format="1">
  <advance width="233"/>
  <outline>
    <contour>
      <point x="162" y="737"/>
      <point x="-12" y="886"/>
      <point x="-327" y="886" type="curve" smooth="yes"/>
      <point x="-534" y="886"/>
      <point x="-614" y="840"/>
      <point x="-614" y="770" type="curve" smooth="yes"/>
      <point x="-614" y="709"/>
      <point x="-559" y="670"/>
      <point x="-429" y="670" type="curve" smooth="yes"/>
      <point x="-310" y="670"/>
      <point x="-250" y="702"/>
      <point x="-188" y="702" type="curve" smooth="yes"/>
      <point x="-162" y="702"/>
      <point x="-141" y="690"/>
      <point x="-125" y="672" type="curve"/>
      <point x="-114" y="684"/>
      <point x="-105" y="704"/>
      <point x="-102" y="723" type="curve"/>
      <point x="-123" y="740"/>
      <point x="-151" y="752"/>
      <point x="-185" y="752" type="curve" smooth="yes"/>
      <point x="-259" y="752"/>
      <point x="-312" y="724"/>
      <point x="-426" y="724" type="curve" smooth="yes"/>
      <point x="-525" y="724"/>
      <point x="-562" y="736"/>
      <point x="-562" y="766" type="curve" smooth="yes"/>
      <point x="-562" y="797"/>
      <point x="-513" y="822"/>
      <point x="-321" y="822" type="curve" smooth="yes"/>
      <point x="-12" y="822"/>
      <point x="92" y="715"/>
      <point x="92" y="540" type="curve"/>
      <point x="160" y="494" type="line"/>
    </contour>
    <contour>
      <point x="140" y="107"/>
      <point x="162" y="303"/>
      <point x="159" y="505" type="curve"/>
      <point x="126" y="494" type="line"/>
      <point x="97" y="490" type="line"/>
      <point x="99" y="262"/>
      <point x="76" y="101"/>
      <point x="45" y="-38" type="curve"/>
      <point x="62" y="-47"/>
      <point x="97" y="-54"/>
      <point x="124" y="-54" type="curve"/>
    </contour>
    <contour>
      <point x="123" y="442" type="line"/>
      <point x="121" y="478" type="line"/>
      <point x="121" y="558"/>
      <point x="76" y="593"/>
      <point x="31" y="593" type="curve" smooth="yes"/>
      <point x="23" y="593"/>
      <point x="11" y="592"/>
      <point x="0" y="589" type="curve"/>
      <point x="-3" y="582"/>
      <point x="-4" y="571"/>
      <point x="-4" y="561" type="curve" smooth="yes"/>
      <point x="-4" y="549"/>
      <point x="-2" y="537"/>
      <point x="0" y="530" type="curve"/>
      <point x="11" y="533"/>
      <point x="26" y="534"/>
      <point x="34" y="534" type="curve" smooth="yes"/>
      <point x="72" y="534"/>
      <point x="97" y="496"/>
      <point x="97" y="438" type="curve"/>
    </contour>
    <contour>
      <point x="160" y="497"/>
      <point x="186" y="517"/>
      <point x="233" y="530" type="curve"/>
      <point x="239" y="548"/>
      <point x="240" y="578"/>
      <point x="233" y="589" type="curve"/>
      <point x="171" y="574"/>
      <point x="116" y="544"/>
      <point x="102" y="505" type="curve"/>
      <point x="150" y="473" type="line"/>
    </contour>
  </outline>
</glyph>
<glyph name="bn_jha.half" format="1">
  <advance width="548"/>
  <outline>
    <contour>
      <point x="295" y="146"/>
      <point x="318" y="148"/>
      <point x="334" y="154" type="curve"/>
      <point x="325" y="187"/>
      <point x="322" y="231"/>
      <point x="322" y="274" type="curve" smooth="yes"/>
      <point x="322" y="429"/>
      <point x="357" y="559"/>
      <point x="357" y="573" type="curve" smooth="yes"/>
      <point x="357" y="594"/>
      <point x="347" y="607"/>
      <point x="327" y="610" type="curve" smooth="yes"/>
      <point x="300" y="616"/>
      <point x="259" y="621"/>
      <point x="219" y="621" type="curve" smooth="yes"/>
      <point x="144" y="621"/>
      <point x="49" y="606"/>
      <point x="0" y="589" type="curve"/>
      <point x="-2" y="583"/>
      <point x="-3" y="574"/>
      <point x="-3" y="565" type="curve" smooth="yes"/>
      <point x="-3" y="552"/>
      <point x="-2" y="538"/>
      <point x="0" y="530" type="curve"/>
      <point x="52" y="544"/>
      <point x="141" y="557"/>
      <point x="219" y="557" type="curve" smooth="yes"/>
      <point x="256" y="557"/>
      <point x="292" y="554"/>
      <point x="326" y="548" type="curve"/>
      <point x="313" y="575" type="line"/>
      <point x="281" y="426"/>
      <point x="263" y="327"/>
      <point x="263" y="229" type="curve" smooth="yes"/>
      <point x="263" y="185"/>
      <point x="266" y="164"/>
      <point x="272" y="146" type="curve"/>
    </contour>
    <contour>
      <point x="286" y="170" type="line"/>
      <point x="243" y="269"/>
      <point x="159" y="326"/>
      <point x="71" y="357" type="curve"/>
      <point x="72" y="335" type="line"/>
      <point x="132" y="385"/>
      <point x="245" y="441"/>
      <point x="311" y="458" type="curve"/>
      <point x="313" y="511" type="line"/>
      <point x="202" y="478"/>
      <point x="84" y="418"/>
      <point x="26" y="369" type="curve"/>
      <point x="27" y="350"/>
      <point x="32" y="334"/>
      <point x="51" y="315" type="curve"/>
      <point x="141" y="296"/>
      <point x="216" y="243"/>
      <point x="272" y="146" type="curve"/>
    </contour>
    <contour>
      <point x="475" y="196" type="line"/>
      <point x="436" y="266"/>
      <point x="375" y="315"/>
      <point x="312" y="344" type="curve"/>
      <point x="305" y="306" type="line"/>
      <point x="364" y="280"/>
      <point x="416" y="238"/>
      <point x="462" y="171" type="curve"/>
    </contour>
    <contour>
      <point x="484" y="171"/>
      <point x="508" y="175"/>
      <point x="523" y="182" type="curve"/>
      <point x="492" y="246"/>
      <point x="474" y="329"/>
      <point x="474" y="421" type="curve" smooth="yes"/>
      <point x="474" y="438"/>
      <point x="474" y="444"/>
      <point x="475" y="474" type="curve" smooth="yes"/>
      <point x="475" y="491"/>
      <point x="480" y="499"/>
      <point x="493" y="507" type="curve" smooth="yes"/>
      <point x="505" y="514"/>
      <point x="523" y="522"/>
      <point x="548" y="530" type="curve"/>
      <point x="552" y="536"/>
      <point x="554" y="549"/>
      <point x="554" y="561" type="curve" smooth="yes"/>
      <point x="554" y="573"/>
      <point x="552" y="584"/>
      <point x="548" y="589" type="curve"/>
      <point x="507" y="579"/>
      <point x="482" y="567"/>
      <point x="463" y="557" type="curve" smooth="yes"/>
      <point x="442" y="546"/>
      <point x="430" y="528"/>
      <point x="429" y="496" type="curve" smooth="yes"/>
      <point x="428" y="446"/>
      <point x="426" y="428"/>
      <point x="426" y="403" type="curve" smooth="yes"/>
      <point x="426" y="313"/>
      <point x="438" y="221"/>
      <point x="462" y="171" type="curve"/>
    </contour>
  </outline>
</glyph>
<glyph name="bn_k_ra" format="1">
  <advance width="723"/>
  <outline>
    <contour>
      <point x="407" y="-84"/>
      <point x="430" y="-82"/>
      <point x="449" y="-74" type="curve"/>
      <point x="463" y="43"/>
      <point x="468" y="188"/>
      <point x="468" y="357" type="curve" smooth="yes"/>
      <point x="468" y="438"/>
      <point x="414" y="491"/>
      <point x="352" y="491" type="curve" smooth="yes"/>
      <point x="262" y="491"/>
      <point x="148" y="379"/>
      <point x="148" y="277" type="curve" smooth="yes"/>
      <point x="148" y="214"/>
      <point x="192" y="177"/>
      <point x="250" y="177" type="curve" smooth="yes"/>
      <point x="277" y="177"/>
      <point x="303" y="185"/>
      <point x="323" y="203" type="curve"/>
      <point x="330" y="215"/>
      <point x="334" y="234"/>
      <point x="334" y="249" type="curve" smooth="yes"/>
      <point x="334" y="258"/>
      <point x="333" y="267"/>
      <point x="330" y="272" type="curve"/>
      <point x="316" y="258"/>
      <point x="293" y="237"/>
      <point x="262" y="237" type="curve" smooth="yes"/>
      <point x="235" y="237"/>
      <point x="215" y="251"/>
      <point x="215" y="285" type="curve" smooth="yes"/>
      <point x="215" y="354"/>
      <point x="301" y="442"/>
      <point x="359" y="442" type="curve" smooth="yes"/>
      <point x="388" y="442"/>
      <point x="410" y="420"/>
      <point x="410" y="377" type="curve" smooth="yes"/>
      <point x="410" y="230"/>
      <point x="400" y="63"/>
      <point x="382" y="-49" type="curve"/>
      <point x="400" y="-55" type="line"/>
      <point x="377" y="22"/>
      <point x="350" y="60"/>
      <point x="298" y="60" type="curve" smooth="yes"/>
      <point x="248" y="60"/>
      <point x="188" y="26"/>
      <point x="144" y="26" type="curve" smooth="yes"/>
      <point x="112" y="26"/>
      <point x="85" y="43"/>
      <point x="85" y="86" type="curve" smooth="yes"/>
      <point x="85" y="114"/>
      <point x="97" y="153"/>
      <point x="113" y="178" type="curve"/>
      <point x="99" y="186"/>
      <point x="84" y="191"/>
      <point x="61" y="192" type="curve"/>
      <point x="43" y="157"/>
      <point x="27" y="111"/>
      <point x="27" y="69" type="curve" smooth="yes"/>
      <point x="27" y="5"/>
      <point x="67" y="-42"/>
      <point x="132" y="-42" type="curve" smooth="yes"/>
      <point x="189" y="-42"/>
      <point x="256" y="-5"/>
      <point x="305" y="-5" type="curve" smooth="yes"/>
      <point x="356" y="-5"/>
      <point x="368" y="-46"/>
      <point x="388" y="-84" type="curve"/>
    </contour>
    <contour>
      <point x="82" y="548"/>
      <point x="219" y="563"/>
      <point x="360" y="563" type="curve" smooth="yes"/>
      <point x="499" y="563"/>
      <point x="641" y="548"/>
      <point x="723" y="530" type="curve"/>
      <point x="726" y="538"/>
      <point x="729" y="551"/>
      <point x="729" y="561" type="curve" smooth="yes"/>
      <point x="729" y="571"/>
      <point x="727" y="583"/>
      <point x="723" y="589" type="curve"/>
      <point x="644" y="609"/>
      <point x="502" y="626"/>
      <point x="361" y="626" type="curve" smooth="yes"/>
      <point x="219" y="626"/>
      <point x="80" y="609"/>
      <point x="0" y="589" type="curve"/>
      <point x="-3" y="583"/>
      <point x="-5" y="571"/>
      <point x="-5" y="562" type="curve" smooth="yes"/>
      <point x="-5" y="551"/>
      <point x="-3" y="538"/>
      <point x="0" y="530" type="curve"/>
    </contour>
    <contour>
      <point x="700" y="323"/>
      <point x="651" y="391"/>
      <point x="579" y="391" type="curve" smooth="yes"/>
      <point x="515" y="391"/>
      <point x="457" y="336"/>
      <point x="431" y="240" type="curve"/>
      <point x="446" y="189" type="line"/>
      <point x="463" y="277"/>
      <point x="520" y="325"/>
      <point x="570" y="325" type="curve" smooth="yes"/>
      <point x="616" y="325"/>
      <point x="651" y="283"/>
      <point x="651" y="223" type="curve" smooth="yes"/>
      <point x="651" y="181"/>
      <point x="633" y="157"/>
      <point x="611" y="157" type="curve" smooth="yes"/>
      <point x="584" y="157"/>
      <point x="569" y="189"/>
      <point x="563" y="217" type="curve"/>
      <point x="549" y="199"/>
      <point x="538" y="170"/>
      <point x="534" y="146" type="curve"/>
      <point x="547" y="119"/>
      <point x="572" y="97"/>
      <point x="606" y="97" type="curve" smooth="yes"/>
      <point x="658" y="97"/>
      <point x="700" y="148"/>
      <point x="700" y="232" type="curve" smooth="yes"/>
    </contour>
    <contour>
      <point x="408" y="-73" type="move" name="blwm"/>
    </contour>
    <contour>
      <point x="312" y="-73" type="move" name="haln"/>
    </contour>
    <contour>
      <point x="420" y="690" type="move" name="reph"/>
    </contour>
    <contour>
      <point x="420" y="690" type="move" name="chandrabindu"/>
    </contour>
  </outline>
</glyph>
<glyph name="bn_ka.half" format="1">
  <advance width="607"/>
  <outline>
    <contour>
      <point x="79" y="546"/>
      <point x="180" y="561"/>
      <point x="297" y="561" type="curve" smooth="yes"/>
      <point x="412" y="561"/>
      <point x="528" y="546"/>
      <point x="607" y="530" type="curve"/>
      <point x="609" y="538"/>
      <point x="613" y="549"/>
      <point x="613" y="564" type="curve" smooth="yes"/>
      <point x="613" y="574"/>
      <point x="610" y="583"/>
      <point x="607" y="589" type="curve"/>
      <point x="538" y="608"/>
      <point x="418" y="624"/>
      <point x="301" y="624" type="curve" smooth="yes"/>
      <point x="183" y="624"/>
      <point x="77" y="608"/>
      <point x="0" y="589" type="curve"/>
      <point x="-3" y="583"/>
      <point x="-5" y="573"/>
      <point x="-5" y="562" type="curve" smooth="yes"/>
      <point x="-5" y="551"/>
      <point x="-3" y="538"/>
      <point x="0" y="530" type="curve"/>
    </contour>
    <contour>
      <point x="308" y="141" type="curve"/>
      <point x="330" y="166" type="line"/>
      <point x="275" y="277"/>
      <point x="178" y="336"/>
      <point x="82" y="365" type="curve"/>
      <point x="85" y="343" type="line"/>
      <point x="145" y="396"/>
      <point x="265" y="455"/>
      <point x="336" y="476" type="curve"/>
      <point x="335" y="534" type="line"/>
      <point x="215" y="497"/>
      <point x="90" y="431"/>
      <point x="29" y="377" type="curve"/>
      <point x="32" y="357"/>
      <point x="39" y="340"/>
      <point x="62" y="321" type="curve"/>
      <point x="159" y="302"/>
      <point x="244" y="248"/>
    </contour>
    <contour>
      <point x="332" y="141"/>
      <point x="358" y="144"/>
      <point x="378" y="150" type="curve"/>
      <point x="363" y="209"/>
      <point x="360" y="305"/>
      <point x="360" y="363" type="curve" smooth="yes"/>
      <point x="360" y="452"/>
      <point x="363" y="504"/>
      <point x="373" y="575" type="curve"/>
      <point x="320" y="584" type="line"/>
      <point x="305" y="476"/>
      <point x="299" y="397"/>
      <point x="299" y="291" type="curve" smooth="yes"/>
      <point x="299" y="203"/>
      <point x="304" y="169"/>
      <point x="308" y="141" type="curve"/>
    </contour>
    <contour>
      <point x="537" y="275"/>
      <point x="582" y="321"/>
      <point x="582" y="373" type="curve" smooth="yes"/>
      <point x="582" y="442"/>
      <point x="498" y="506"/>
      <point x="354" y="528" type="curve"/>
      <point x="350" y="472" type="line"/>
      <point x="451" y="460"/>
      <point x="536" y="429"/>
      <point x="536" y="377" type="curve" smooth="yes"/>
      <point x="536" y="340"/>
      <point x="496" y="313"/>
      <point x="437" y="297" type="curve"/>
      <point x="449" y="274"/>
      <point x="470" y="259"/>
      <point x="489" y="256" type="curve"/>
    </contour>
  </outline>
</glyph>
<glyph name="bn_l_ga_ukaar" format="1">
  <advance width="567"/>
  <outline>
    <contour>
      <point x="101" y="550"/>
      <point x="189" y="559"/>
      <point x="279" y="559" type="curve" smooth="yes"/>
      <point x="375" y="559"/>
      <point x="469" y="549"/>
      <point x="567" y="530" type="curve"/>
      <point x="570" y="538"/>
      <point x="571" y="551"/>
      <point x="571" y="564" type="curve" smooth="yes"/>
      <point x="571" y="576"/>
      <point x="570" y="583"/>
      <point x="567" y="589" type="curve"/>
      <point x="490" y="609"/>
      <point x="383" y="623"/>
      <point x="280" y="623" type="curve" smooth="yes"/>
      <point x="183" y="623"/>
      <point x="89" y="611"/>
      <point x="0" y="589" type="curve"/>
      <point x="-3" y="583"/>
      <point x="-5" y="574"/>
      <point x="-5" y="564" type="curve" smooth="yes"/>
      <point x="-5" y="554"/>
      <point x="-3" y="541"/>
      <point x="0" y="530" type="curve"/>
    </contour>
    <contour>
      <point x="253" y="262"/>
      <point x="260" y="290"/>
      <point x="260" y="313" type="curve"/>
      <point x="248" y="310"/>
      <point x="236" y="309"/>
      <point x="225" y="309" type="curve" smooth="yes"/>
      <point x="175" y="309"/>
      <point x="135" y="329"/>
      <point x="135" y="368" type="curve" smooth="yes"/>
      <point x="135" y="399"/>
      <point x="159" y="418"/>
      <point x="193" y="418" type="curve" smooth="yes"/>
      <point x="232" y="418"/>
      <point x="268" y="394"/>
      <point x="294" y="357" type="curve"/>
      <point x="323" y="391" type="line"/>
      <point x="290" y="449"/>
      <point x="245" y="484"/>
      <point x="193" y="484" type="curve" smooth="yes"/>
      <point x="133" y="484"/>
      <point x="90" y="440"/>
      <point x="90" y="377" type="curve" smooth="yes"/>
      <point x="90" y="297"/>
      <point x="158" y="245"/>
      <point x="241" y="245" type="curve"/>
    </contour>
    <contour>
      <point x="323" y="347"/>
      <point x="340" y="353"/>
      <point x="352" y="361" type="curve"/>
      <point x="305" y="438" type="line"/>
      <point x="261" y="408" type="line"/>
      <point x="303" y="342" type="line"/>
    </contour>
    <contour>
      <point x="441" y="397" type="line"/>
      <point x="435" y="445"/>
      <point x="400" y="484"/>
      <point x="358" y="484" type="curve" smooth="yes"/>
      <point x="324" y="484"/>
      <point x="295" y="457"/>
      <point x="292" y="411" type="curve"/>
      <point x="300" y="373" type="line"/>
      <point x="346" y="369" type="line"/>
      <point x="337" y="383"/>
      <point x="334" y="390"/>
      <point x="334" y="397" type="curve" smooth="yes"/>
      <point x="334" y="413"/>
      <point x="349" y="425"/>
      <point x="371" y="425" type="curve" smooth="yes"/>
      <point x="403" y="425"/>
      <point x="427" y="399"/>
      <point x="427" y="364" type="curve"/>
    </contour>
    <contour>
      <point x="484" y="232" type="line"/>
      <point x="484" y="245"/>
      <point x="484" y="258"/>
      <point x="484" y="272" type="curve" smooth="yes"/>
      <point x="484" y="376"/>
      <point x="488" y="466"/>
      <point x="498" y="558" type="curve"/>
      <point x="446" y="572" type="line"/>
      <point x="431" y="468"/>
      <point x="423" y="365"/>
      <point x="421" y="233" type="curve"/>
    </contour>
    <contour>
      <point x="273" y="8"/>
      <point x="320" y="55"/>
      <point x="320" y="99" type="curve" smooth="yes"/>
      <point x="320" y="139"/>
      <point x="283" y="174"/>
      <point x="240" y="174" type="curve" smooth="yes"/>
      <point x="211" y="174"/>
      <point x="172" y="157"/>
      <point x="149" y="139" type="curve"/>
      <point x="185" y="134" type="line"/>
      <point x="179" y="143"/>
      <point x="176" y="156"/>
      <point x="176" y="167" type="curve" smooth="yes"/>
      <point x="176" y="202"/>
      <point x="208" y="222"/>
      <point x="248" y="222" type="curve" smooth="yes"/>
      <point x="304" y="222"/>
      <point x="354" y="183"/>
      <point x="365" y="119" type="curve"/>
      <point x="374" y="113"/>
      <point x="385" y="107"/>
      <point x="398" y="106" type="curve"/>
      <point x="415" y="149"/>
      <point x="443" y="199"/>
      <point x="471" y="230" type="curve"/>
      <point x="451" y="239" type="line"/>
      <point x="449" y="169"/>
      <point x="478" y="151"/>
      <point x="478" y="103" type="curve" smooth="yes"/>
      <point x="478" y="61"/>
      <point x="459" y="23"/>
      <point x="430" y="-10" type="curve"/>
      <point x="476" y="-45" type="line"/>
      <point x="505" y="-9"/>
      <point x="528" y="44"/>
      <point x="528" y="87" type="curve" smooth="yes"/>
      <point x="528" y="147"/>
      <point x="484" y="173"/>
      <point x="484" y="263" type="curve"/>
      <point x="431" y="287" type="line"/>
      <point x="406" y="260"/>
      <point x="381" y="220"/>
      <point x="362" y="175" type="curve"/>
      <point x="382" y="147" type="line"/>
      <point x="366" y="227"/>
      <point x="318" y="278"/>
      <point x="245" y="278" type="curve" smooth="yes"/>
      <point x="174" y="278"/>
      <point x="127" y="227"/>
      <point x="127" y="162" type="curve" smooth="yes"/>
      <point x="127" y="150"/>
      <point x="130" y="136"/>
      <point x="133" y="125" type="curve"/>
      <point x="157" y="93" type="line"/>
      <point x="188" y="117"/>
      <point x="225" y="130"/>
      <point x="250" y="130" type="curve" smooth="yes"/>
      <point x="267" y="130"/>
      <point x="279" y="124"/>
      <point x="279" y="111" type="curve" smooth="yes"/>
      <point x="279" y="85"/>
      <point x="235" y="52"/>
      <point x="179" y="19" type="curve"/>
      <point x="191" y="0"/>
      <point x="208" y="-17"/>
      <point x="229" y="-27" type="curve"/>
    </contour>
    <contour>
      <point x="420" y="-115"/>
      <point x="453" y="-88"/>
      <point x="476" y="-46" type="curve"/>
      <point x="438" y="-11" type="line"/>
      <point x="419" y="-45"/>
      <point x="399" y="-64"/>
      <point x="374" y="-64" type="curve" smooth="yes"/>
      <point x="353" y="-64"/>
      <point x="341" y="-51"/>
      <point x="341" y="-33" type="curve" smooth="yes"/>
      <point x="341" y="-13"/>
      <point x="354" y="4"/>
      <point x="379" y="4" type="curve" smooth="yes"/>
      <point x="403" y="4"/>
      <point x="427" y="-11"/>
      <point x="446" y="-35" type="curve"/>
      <point x="467" y="0" type="line"/>
      <point x="444" y="26"/>
      <point x="412" y="43"/>
      <point x="379" y="43" type="curve" smooth="yes"/>
      <point x="333" y="43"/>
      <point x="302" y="7"/>
      <point x="302" y="-36" type="curve" smooth="yes"/>
      <point x="302" y="-83"/>
      <point x="339" y="-115"/>
      <point x="382" y="-115" type="curve" smooth="yes"/>
    </contour>
    <contour>
      <point x="500" y="-244"/>
      <point x="547" y="-181"/>
      <point x="547" y="-123" type="curve" smooth="yes"/>
      <point x="547" y="-69"/>
      <point x="507" y="-21"/>
      <point x="456" y="4" type="curve"/>
      <point x="438" y="-36" type="line"/>
      <point x="472" y="-52"/>
      <point x="494" y="-80"/>
      <point x="494" y="-110" type="curve" smooth="yes"/>
      <point x="494" y="-148"/>
      <point x="463" y="-179"/>
      <point x="390" y="-179" type="curve" smooth="yes"/>
      <point x="241" y="-179"/>
      <point x="132" y="-59"/>
      <point x="54" y="221" type="curve"/>
      <point x="38" y="219"/>
      <point x="21" y="214"/>
      <point x="5" y="205" type="curve"/>
      <point x="64" y="-26"/>
      <point x="165" y="-244"/>
      <point x="384" y="-244" type="curve" smooth="yes"/>
    </contour>
    <contour>
      <point x="400" y="690" type="move" name="reph"/>
    </contour>
    <contour>
      <point x="400" y="690" type="move" name="chandrabindu"/>
    </contour>
  </outline>
</glyph>
<glyph name="bn_l_pha" format="1">
  <advance width="877"/>
  <outline>
    <contour>
      <point x="659" y="-236" type="curve"/>
      <point x="634" y="-155"/>
      <point x="630" y="-28"/>
      <point x="630" y="62" type="curve" smooth="yes"/>
      <point x="630" y="115"/>
      <point x="631" y="158"/>
      <point x="634" y="199" type="curve"/>
      <point x="623" y="188" type="line"/>
      <point x="720" y="173"/>
      <point x="801" y="136"/>
      <point x="801" y="72" type="curve" smooth="yes"/>
      <point x="801" y="28"/>
      <point x="762" y="-4"/>
      <point x="703" y="-24" type="curve"/>
      <point x="714" y="-54"/>
      <point x="736" y="-75"/>
      <point x="754" y="-80" type="curve"/>
      <point x="802" y="-55"/>
      <point x="846" y="2"/>
      <point x="846" y="68" type="curve" smooth="yes"/>
      <point x="846" y="161"/>
      <point x="758" y="247"/>
      <point x="581" y="268" type="curve"/>
      <point x="571" y="170"/>
      <point x="566" y="78"/>
      <point x="566" y="-40" type="curve" smooth="yes"/>
      <point x="566" y="-156"/>
      <point x="577" y="-211"/>
      <point x="588" y="-250" type="curve"/>
      <point x="613" y="-250"/>
      <point x="641" y="-246"/>
    </contour>
    <contour>
      <point x="435" y="560" type="curve" smooth="yes"/>
      <point x="610" y="560"/>
      <point x="757" y="554"/>
      <point x="877" y="530" type="curve"/>
      <point x="880" y="538"/>
      <point x="881" y="551"/>
      <point x="881" y="564" type="curve" smooth="yes"/>
      <point x="881" y="573"/>
      <point x="881" y="582"/>
      <point x="877" y="589" type="curve"/>
      <point x="772" y="617"/>
      <point x="615" y="624"/>
      <point x="435" y="624" type="curve" smooth="yes"/>
      <point x="251" y="624"/>
      <point x="120" y="618"/>
      <point x="0" y="589" type="curve"/>
      <point x="-3" y="583"/>
      <point x="-5" y="574"/>
      <point x="-5" y="564" type="curve" smooth="yes"/>
      <point x="-5" y="552"/>
      <point x="-3" y="540"/>
      <point x="0" y="530" type="curve"/>
      <point x="123" y="554"/>
      <point x="254" y="560"/>
    </contour>
    <contour>
      <point x="219" y="213" type="curve"/>
      <point x="205" y="210"/>
      <point x="192" y="209"/>
      <point x="180" y="209" type="curve" smooth="yes"/>
      <point x="119" y="209"/>
      <point x="73" y="243"/>
      <point x="73" y="300" type="curve" smooth="yes"/>
      <point x="73" y="345"/>
      <point x="99" y="373"/>
      <point x="141" y="373" type="curve" smooth="yes"/>
      <point x="187" y="373"/>
      <point x="229" y="341"/>
      <point x="258" y="289" type="curve"/>
      <point x="291" y="329" type="line"/>
      <point x="253" y="401"/>
      <point x="202" y="442"/>
      <point x="143" y="442" type="curve" smooth="yes"/>
      <point x="74" y="442"/>
      <point x="24" y="388"/>
      <point x="24" y="311" type="curve" smooth="yes"/>
      <point x="24" y="209"/>
      <point x="104" y="139"/>
      <point x="198" y="140" type="curve"/>
      <point x="211" y="159"/>
      <point x="219" y="189"/>
    </contour>
    <contour>
      <point x="322" y="294" type="curve"/>
      <point x="271" y="384" type="line"/>
      <point x="222" y="349" type="line"/>
      <point x="268" y="271" type="line"/>
      <point x="289" y="276"/>
      <point x="308" y="284"/>
    </contour>
    <contour>
      <point x="444" y="323" type="line"/>
      <point x="435" y="385"/>
      <point x="388" y="442"/>
      <point x="333" y="442" type="curve" smooth="yes"/>
      <point x="293" y="442"/>
      <point x="260" y="410"/>
      <point x="256" y="353" type="curve"/>
      <point x="263" y="311" type="line"/>
      <point x="315" y="306" type="line"/>
      <point x="305" y="324"/>
      <point x="301" y="331"/>
      <point x="301" y="339" type="curve" smooth="yes"/>
      <point x="301" y="362"/>
      <point x="318" y="378"/>
      <point x="346" y="378" type="curve" smooth="yes"/>
      <point x="393" y="378"/>
      <point x="429" y="330"/>
      <point x="429" y="261" type="curve"/>
    </contour>
    <contour>
      <point x="500" y="152" type="line"/>
      <point x="484" y="176" type="line"/>
      <point x="477" y="306"/>
      <point x="479" y="442"/>
      <point x="489" y="582" type="curve"/>
      <point x="437" y="592" type="line"/>
      <point x="428" y="447"/>
      <point x="426" y="310"/>
      <point x="432" y="181" type="curve"/>
      <point x="276" y="41" type="line"/>
      <point x="278" y="15"/>
      <point x="289" y="-8"/>
      <point x="317" y="-30" type="curve"/>
      <point x="426" y="-52"/>
      <point x="515" y="-120"/>
      <point x="588" y="-250" type="curve"/>
      <point x="607" y="-215" type="line"/>
      <point x="546" y="-81"/>
      <point x="445" y="-6"/>
      <point x="338" y="30" type="curve"/>
      <point x="332" y="-5" type="line"/>
    </contour>
    <contour>
      <point x="608" y="-237" type="move" name="blwm"/>
    </contour>
    <contour>
      <point x="440" y="-237" type="move" name="haln"/>
    </contour>
    <contour>
      <point x="461" y="690" type="move" name="reph"/>
    </contour>
    <contour>
      <point x="461" y="690" type="move" name="chandrabindu"/>
    </contour>
  </outline>
</glyph>
<glyph name="bn_l_tta" format="1">
  <advance width="806"/>
  <outline>
    <contour>
      <point x="806" y="589" type="line"/>
      <point x="793" y="681"/>
      <point x="746" y="757"/>
      <point x="656" y="757" type="curve" smooth="yes"/>
      <point x="594" y="757"/>
      <point x="527" y="734"/>
      <point x="480" y="734" type="curve" smooth="yes"/>
      <point x="425" y="734"/>
      <point x="394" y="767"/>
      <point x="368" y="804" type="curve"/>
      <point x="357" y="796"/>
      <point x="342" y="779"/>
      <point x="332" y="760" type="curve"/>
      <point x="364" y="711"/>
      <point x="406" y="676"/>
      <point x="476" y="676" type="curve" smooth="yes"/>
      <point x="535" y="676"/>
      <point x="593" y="699"/>
      <point x="658" y="699" type="curve" smooth="yes"/>
      <point x="727" y="699"/>
      <point x="755" y="642"/>
      <point x="766" y="579" type="curve"/>
    </contour>
    <contour>
      <point x="642" y="-20"/>
      <point x="771" y="119"/>
      <point x="771" y="250" type="curve" smooth="yes"/>
      <point x="771" y="330"/>
      <point x="722" y="375"/>
      <point x="658" y="375" type="curve" smooth="yes"/>
      <point x="622" y="375"/>
      <point x="592" y="362"/>
      <point x="571" y="342" type="curve"/>
      <point x="565" y="331"/>
      <point x="561" y="316"/>
      <point x="561" y="300" type="curve" smooth="yes"/>
      <point x="561" y="288"/>
      <point x="564" y="276"/>
      <point x="571" y="267" type="curve"/>
      <point x="584" y="287"/>
      <point x="611" y="311"/>
      <point x="645" y="311" type="curve" smooth="yes"/>
      <point x="676" y="311"/>
      <point x="699" y="288"/>
      <point x="699" y="242" type="curve" smooth="yes"/>
      <point x="699" y="146"/>
      <point x="598" y="30"/>
      <point x="531" y="30" type="curve" smooth="yes"/>
      <point x="497" y="31"/>
      <point x="472" y="58"/>
      <point x="472" y="109" type="curve" smooth="yes"/>
      <point x="472" y="277"/>
      <point x="486" y="469"/>
      <point x="509" y="597" type="curve"/>
      <point x="437" y="596" type="line"/>
      <point x="421" y="467"/>
      <point x="410" y="314"/>
      <point x="410" y="130" type="curve" smooth="yes"/>
      <point x="410" y="40"/>
      <point x="469" y="-20"/>
      <point x="540" y="-20" type="curve" smooth="yes"/>
    </contour>
    <contour>
      <point x="210" y="147"/>
      <point x="219" y="179"/>
      <point x="219" y="204" type="curve"/>
      <point x="205" y="202"/>
      <point x="191" y="200"/>
      <point x="179" y="200" type="curve" smooth="yes"/>
      <point x="118" y="200"/>
      <point x="71" y="235"/>
      <point x="71" y="293" type="curve" smooth="yes"/>
      <point x="71" y="339"/>
      <point x="97" y="367"/>
      <point x="140" y="367" type="curve" smooth="yes"/>
      <point x="186" y="367"/>
      <point x="228" y="334"/>
      <point x="258" y="281" type="curve"/>
      <point x="292" y="323" type="line"/>
      <point x="253" y="398"/>
      <point x="201" y="441"/>
      <point x="140" y="441" type="curve" smooth="yes"/>
      <point x="71" y="441"/>
      <point x="22" y="385"/>
      <point x="22" y="304" type="curve" smooth="yes"/>
      <point x="22" y="199"/>
      <point x="102" y="126"/>
      <point x="197" y="127" type="curve"/>
    </contour>
    <contour>
      <point x="291" y="268"/>
      <point x="310" y="277"/>
      <point x="324" y="287" type="curve"/>
      <point x="272" y="381" type="line"/>
      <point x="221" y="344" type="line"/>
      <point x="268" y="262" type="line"/>
    </contour>
    <contour>
      <point x="429" y="341" type="line"/>
      <point x="423" y="395"/>
      <point x="382" y="441"/>
      <point x="335" y="441" type="curve" smooth="yes"/>
      <point x="294" y="441"/>
      <point x="260" y="408"/>
      <point x="256" y="349" type="curve"/>
      <point x="264" y="304" type="line"/>
      <point x="317" y="299" type="line"/>
      <point x="307" y="317"/>
      <point x="304" y="324"/>
      <point x="304" y="333" type="curve" smooth="yes"/>
      <point x="304" y="357"/>
      <point x="320" y="373"/>
      <point x="349" y="373" type="curve" smooth="yes"/>
      <point x="385" y="373"/>
      <point x="414" y="344"/>
      <point x="413" y="301" type="curve"/>
    </contour>
    <contour>
      <point x="464" y="559" type="curve"/>
      <point x="599" y="559"/>
      <point x="715" y="550"/>
      <point x="806" y="530" type="curve"/>
      <point x="809" y="538"/>
      <point x="811" y="549"/>
      <point x="811" y="561" type="curve" smooth="yes"/>
      <point x="811" y="572"/>
      <point x="809" y="582"/>
      <point x="806" y="589" type="curve"/>
      <point x="716" y="615"/>
      <point x="598" y="623"/>
      <point x="465" y="623" type="curve"/>
      <point x="304" y="623"/>
      <point x="148" y="626"/>
      <point x="0" y="589" type="curve"/>
      <point x="-3" y="583"/>
      <point x="-5" y="574"/>
      <point x="-5" y="564" type="curve" smooth="yes"/>
      <point x="-5" y="554"/>
      <point x="-3" y="541"/>
      <point x="0" y="530" type="curve"/>
      <point x="168" y="563"/>
      <point x="314" y="559"/>
    </contour>
    <contour>
      <point x="551" y="-5" type="move" name="blwm"/>
    </contour>
    <contour>
      <point x="418" y="-5" type="move" name="haln"/>
    </contour>
    <contour>
      <point x="505" y="687" type="move" name="reph"/>
    </contour>
    <contour>
      <point x="509" y="763" type="move" name="chandrabindu"/>
    </contour>
  </outline>
</glyph>
<glyph name="bn_m_ba" format="1">
  <advance width="556"/>
  <outline>
    <contour>
      <point x="526" y="441" type="curve" smooth="yes"/>
      <point x="526" y="511"/>
      <point x="480" y="561"/>
      <point x="405" y="587" type="curve"/>
      <point x="348" y="559" type="line"/>
      <point x="423" y="558"/>
      <point x="470" y="519"/>
      <point x="470" y="457" type="curve" smooth="yes"/>
      <point x="470" y="402"/>
      <point x="432" y="365"/>
      <point x="363" y="365" type="curve" smooth="yes"/>
      <point x="297" y="365"/>
      <point x="248" y="401"/>
      <point x="228" y="438" type="curve"/>
      <point x="205" y="394" type="line"/>
      <point x="230" y="345"/>
      <point x="301" y="302"/>
      <point x="377" y="302" type="curve" smooth="yes"/>
      <point x="462" y="302"/>
      <point x="526" y="358"/>
    </contour>
    <contour>
      <point x="249" y="417" type="curve"/>
      <point x="204" y="450" type="line"/>
      <point x="201" y="393"/>
      <point x="173" y="363"/>
      <point x="133" y="363" type="curve" smooth="yes"/>
      <point x="99" y="363"/>
      <point x="78" y="383"/>
      <point x="78" y="413" type="curve" smooth="yes"/>
      <point x="78" y="439"/>
      <point x="96" y="464"/>
      <point x="128" y="464" type="curve" smooth="yes"/>
      <point x="159" y="464"/>
      <point x="188" y="440"/>
      <point x="205" y="399" type="curve"/>
      <point x="218" y="445" type="line"/>
      <point x="199" y="485"/>
      <point x="166" y="509"/>
      <point x="125" y="509" type="curve" smooth="yes"/>
      <point x="73" y="509"/>
      <point x="31" y="471"/>
      <point x="31" y="409" type="curve" smooth="yes"/>
      <point x="31" y="344"/>
      <point x="77" y="303"/>
      <point x="133" y="303" type="curve" smooth="yes"/>
      <point x="194" y="303"/>
      <point x="242" y="354"/>
    </contour>
    <contour>
      <point x="482" y="-41" type="curve"/>
      <point x="465" y="64"/>
      <point x="458" y="217"/>
      <point x="469" y="356" type="curve"/>
      <point x="412" y="334" type="line"/>
      <point x="402" y="215"/>
      <point x="404" y="74"/>
      <point x="414" y="-51" type="curve"/>
      <point x="439" y="-51"/>
      <point x="463" y="-49"/>
    </contour>
    <contour>
      <point x="260" y="449" type="curve" smooth="yes"/>
      <point x="260" y="507"/>
      <point x="232" y="548"/>
      <point x="196" y="578" type="curve"/>
      <point x="136" y="562" type="line"/>
      <point x="179" y="543"/>
      <point x="209" y="512"/>
      <point x="209" y="473" type="curve" smooth="yes"/>
      <point x="209" y="454"/>
      <point x="202" y="446"/>
      <point x="196" y="440" type="curve"/>
      <point x="242" y="382" type="line"/>
      <point x="253" y="397"/>
      <point x="260" y="423"/>
    </contour>
    <contour>
      <point x="274" y="561" type="curve" smooth="yes"/>
      <point x="387" y="561"/>
      <point x="477" y="546"/>
      <point x="556" y="530" type="curve"/>
      <point x="559" y="538"/>
      <point x="560" y="551"/>
      <point x="560" y="564" type="curve" smooth="yes"/>
      <point x="560" y="573"/>
      <point x="560" y="583"/>
      <point x="556" y="589" type="curve"/>
      <point x="487" y="608"/>
      <point x="392" y="624"/>
      <point x="276" y="624" type="curve" smooth="yes"/>
      <point x="159" y="624"/>
      <point x="77" y="608"/>
      <point x="0" y="589" type="curve"/>
      <point x="-3" y="583"/>
      <point x="-5" y="574"/>
      <point x="-5" y="563" type="curve" smooth="yes"/>
      <point x="-5" y="551"/>
      <point x="-3" y="539"/>
      <point x="0" y="530" type="curve"/>
      <point x="79" y="546"/>
      <point x="160" y="561"/>
    </contour>
    <contour>
      <point x="436" y="-24" type="line"/>
      <point x="404" y="77"/>
      <point x="316" y="132"/>
      <point x="229" y="173" type="curve"/>
      <point x="219" y="144" type="line"/>
      <point x="276" y="195"/>
      <point x="388" y="247"/>
      <point x="445" y="259" type="curve"/>
      <point x="438" y="326" type="line"/>
      <point x="348" y="302"/>
      <point x="228" y="242"/>
      <point x="174" y="192" type="curve"/>
      <point x="174" y="167"/>
      <point x="184" y="142"/>
      <point x="204" y="119" type="curve"/>
      <point x="293" y="92"/>
      <point x="373" y="47"/>
      <point x="414" y="-51" type="curve"/>
    </contour>
    <contour>
      <point x="436" y="-38" type="move" name="blwm"/>
    </contour>
    <contour>
      <point x="288" y="-38" type="move" name="haln"/>
    </contour>
    <contour>
      <point x="441" y="690" type="move" name="reph"/>
    </contour>
    <contour>
      <point x="441" y="690" type="move" name="chandrabindu"/>
    </contour>
  </outline>
</glyph>
<glyph name="bn_m_pa" format="1">
  <advance width="940"/>
  <outline>
    <contour>
      <point x="844" y="-19"/>
      <point x="870" y="-16"/>
      <point x="888" y="-9" type="curve"/>
      <point x="874" y="38"/>
      <point x="864" y="148"/>
      <point x="864" y="261" type="curve" smooth="yes"/>
      <point x="864" y="334"/>
      <point x="867" y="404"/>
      <point x="874" y="463" type="curve" smooth="yes"/>
      <point x="877" y="491"/>
      <point x="882" y="507"/>
      <point x="899" y="516" type="curve" smooth="yes"/>
      <point x="908" y="520"/>
      <point x="926" y="526"/>
      <point x="940" y="530" type="curve"/>
      <point x="943" y="536"/>
      <point x="946" y="549"/>
      <point x="946" y="561" type="curve" smooth="yes"/>
      <point x="946" y="573"/>
      <point x="943" y="584"/>
      <point x="940" y="589" type="curve"/>
      <point x="898" y="580"/>
      <point x="872" y="569"/>
      <point x="858" y="561" type="curve" smooth="yes"/>
      <point x="835" y="547"/>
      <point x="828" y="532"/>
      <point x="822" y="502" type="curve" smooth="yes"/>
      <point x="803" y="405"/>
      <point x="801" y="257"/>
      <point x="801" y="178" type="curve" smooth="yes"/>
      <point x="801" y="99"/>
      <point x="805" y="25"/>
      <point x="814" y="-19" type="curve"/>
    </contour>
    <contour>
      <point x="656" y="282"/>
      <point x="751" y="378"/>
      <point x="802" y="450" type="curve"/>
      <point x="766" y="500" type="line"/>
      <point x="702" y="417"/>
      <point x="594" y="322"/>
      <point x="520" y="270" type="curve"/>
      <point x="532" y="248"/>
      <point x="550" y="229"/>
      <point x="570" y="215" type="curve"/>
    </contour>
    <contour>
      <point x="845" y="467"/>
      <point x="772" y="619"/>
      <point x="629" y="619" type="curve" smooth="yes"/>
      <point x="535" y="619"/>
      <point x="456" y="554"/>
      <point x="408" y="481" type="curve"/>
      <point x="412" y="456"/>
      <point x="421" y="433"/>
      <point x="432" y="410" type="curve"/>
      <point x="484" y="397"/>
      <point x="557" y="369"/>
      <point x="557" y="322" type="curve" smooth="yes"/>
      <point x="557" y="305"/>
      <point x="548" y="289"/>
      <point x="533" y="280" type="curve"/>
      <point x="572" y="302" type="line"/>
      <point x="586" y="311"/>
      <point x="596" y="332"/>
      <point x="596" y="351" type="curve" smooth="yes"/>
      <point x="596" y="403"/>
      <point x="523" y="445"/>
      <point x="463" y="468" type="curve"/>
      <point x="471" y="442" type="line"/>
      <point x="522" y="511"/>
      <point x="573" y="553"/>
      <point x="637" y="553" type="curve" smooth="yes"/>
      <point x="725" y="553"/>
      <point x="805" y="476"/>
      <point x="805" y="336" type="curve"/>
      <point x="839" y="271" type="line"/>
    </contour>
    <contour>
      <point x="408" y="295"/>
      <point x="462" y="348"/>
      <point x="462" y="431" type="curve"/>
      <point x="450" y="495" type="line"/>
      <point x="441" y="534"/>
      <point x="421" y="568"/>
      <point x="391" y="595" type="curve"/>
      <point x="339" y="608"/>
      <point x="277" y="617"/>
      <point x="216" y="617" type="curve" smooth="yes"/>
      <point x="143" y="617"/>
      <point x="53" y="605"/>
      <point x="0" y="589" type="curve"/>
      <point x="-3" y="583"/>
      <point x="-5" y="573"/>
      <point x="-5" y="563" type="curve" smooth="yes"/>
      <point x="-5" y="551"/>
      <point x="-3" y="539"/>
      <point x="0" y="530" type="curve"/>
      <point x="55" y="543"/>
      <point x="139" y="554"/>
      <point x="217" y="554" type="curve" smooth="yes"/>
      <point x="260" y="554"/>
      <point x="312" y="549"/>
      <point x="343" y="544" type="curve" smooth="yes"/>
      <point x="377" y="537"/>
      <point x="405" y="525"/>
      <point x="405" y="458" type="curve" smooth="yes"/>
      <point x="405" y="399"/>
      <point x="372" y="360"/>
      <point x="321" y="360" type="curve" smooth="yes"/>
      <point x="267" y="360"/>
      <point x="228" y="400"/>
      <point x="212" y="438" type="curve"/>
      <point x="189" y="397" type="line"/>
      <point x="212" y="345"/>
      <point x="270" y="295"/>
      <point x="338" y="295" type="curve" smooth="yes"/>
    </contour>
    <contour>
      <point x="237" y="397"/>
      <point x="244" y="423"/>
      <point x="244" y="449" type="curve" smooth="yes"/>
      <point x="244" y="507"/>
      <point x="216" y="548"/>
      <point x="180" y="578" type="curve"/>
      <point x="120" y="562" type="line"/>
      <point x="163" y="543"/>
      <point x="193" y="512"/>
      <point x="193" y="472" type="curve" smooth="yes"/>
      <point x="193" y="454"/>
      <point x="186" y="446"/>
      <point x="180" y="440" type="curve"/>
      <point x="226" y="382" type="line"/>
    </contour>
    <contour>
      <point x="181" y="303"/>
      <point x="226" y="354"/>
      <point x="233" y="417" type="curve"/>
      <point x="188" y="450" type="line"/>
      <point x="185" y="390"/>
      <point x="155" y="363"/>
      <point x="118" y="363" type="curve" smooth="yes"/>
      <point x="83" y="363"/>
      <point x="63" y="383"/>
      <point x="63" y="412" type="curve" smooth="yes"/>
      <point x="63" y="439"/>
      <point x="80" y="464"/>
      <point x="111" y="464" type="curve" smooth="yes"/>
      <point x="145" y="464"/>
      <point x="173" y="439"/>
      <point x="189" y="399" type="curve"/>
      <point x="202" y="445" type="line"/>
      <point x="183" y="485"/>
      <point x="150" y="509"/>
      <point x="109" y="509" type="curve" smooth="yes"/>
      <point x="58" y="509"/>
      <point x="16" y="471"/>
      <point x="16" y="408" type="curve" smooth="yes"/>
      <point x="16" y="342"/>
      <point x="62" y="303"/>
      <point x="118" y="303" type="curve" smooth="yes"/>
    </contour>
    <contour>
      <point x="840" y="-6" type="move" name="blwm"/>
    </contour>
    <contour>
      <point x="705" y="-5" type="move" name="haln"/>
    </contour>
    <contour>
      <point x="826" y="690" type="move" name="reph"/>
    </contour>
    <contour>
      <point x="826" y="690" type="move" name="chandrabindu"/>
    </contour>
  </outline>
</glyph>
<glyph name="bn_m_pha" format="1">
  <advance width="877"/>
  <outline>
    <contour>
      <point x="526" y="441" type="curve" smooth="yes"/>
      <point x="526" y="511"/>
      <point x="480" y="563"/>
      <point x="405" y="589" type="curve"/>
      <point x="348" y="561" type="line"/>
      <point x="423" y="560"/>
      <point x="470" y="520"/>
      <point x="470" y="457" type="curve" smooth="yes"/>
      <point x="470" y="402"/>
      <point x="432" y="365"/>
      <point x="364" y="365" type="curve" smooth="yes"/>
      <point x="297" y="365"/>
      <point x="248" y="401"/>
      <point x="228" y="438" type="curve"/>
      <point x="205" y="394" type="line"/>
      <point x="230" y="345"/>
      <point x="301" y="302"/>
      <point x="377" y="302" type="curve" smooth="yes"/>
      <point x="462" y="302"/>
      <point x="526" y="358"/>
    </contour>
    <contour>
      <point x="249" y="417" type="curve"/>
      <point x="204" y="450" type="line"/>
      <point x="201" y="393"/>
      <point x="173" y="363"/>
      <point x="133" y="363" type="curve" smooth="yes"/>
      <point x="99" y="363"/>
      <point x="79" y="383"/>
      <point x="79" y="413" type="curve" smooth="yes"/>
      <point x="79" y="439"/>
      <point x="96" y="464"/>
      <point x="128" y="464" type="curve" smooth="yes"/>
      <point x="159" y="464"/>
      <point x="188" y="440"/>
      <point x="205" y="399" type="curve"/>
      <point x="218" y="445" type="line"/>
      <point x="199" y="485"/>
      <point x="166" y="509"/>
      <point x="125" y="509" type="curve" smooth="yes"/>
      <point x="74" y="509"/>
      <point x="31" y="471"/>
      <point x="31" y="409" type="curve" smooth="yes"/>
      <point x="31" y="344"/>
      <point x="77" y="303"/>
      <point x="133" y="303" type="curve" smooth="yes"/>
      <point x="194" y="303"/>
      <point x="242" y="354"/>
    </contour>
    <contour>
      <point x="260" y="449" type="curve" smooth="yes"/>
      <point x="260" y="507"/>
      <point x="232" y="548"/>
      <point x="196" y="578" type="curve"/>
      <point x="136" y="562" type="line"/>
      <point x="179" y="543"/>
      <point x="209" y="512"/>
      <point x="209" y="473" type="curve" smooth="yes"/>
      <point x="209" y="454"/>
      <point x="202" y="446"/>
      <point x="196" y="440" type="curve"/>
      <point x="242" y="382" type="line"/>
      <point x="253" y="397"/>
      <point x="260" y="423"/>
    </contour>
    <contour>
      <point x="435" y="560" type="curve" smooth="yes"/>
      <point x="610" y="560"/>
      <point x="757" y="554"/>
      <point x="877" y="530" type="curve"/>
      <point x="880" y="538"/>
      <point x="881" y="551"/>
      <point x="881" y="564" type="curve" smooth="yes"/>
      <point x="881" y="573"/>
      <point x="881" y="582"/>
      <point x="877" y="589" type="curve"/>
      <point x="772" y="617"/>
      <point x="615" y="624"/>
      <point x="435" y="624" type="curve" smooth="yes"/>
      <point x="251" y="624"/>
      <point x="120" y="618"/>
      <point x="0" y="589" type="curve"/>
      <point x="-3" y="583"/>
      <point x="-5" y="574"/>
      <point x="-5" y="564" type="curve" smooth="yes"/>
      <point x="-5" y="552"/>
      <point x="-3" y="540"/>
      <point x="0" y="530" type="curve"/>
      <point x="123" y="554"/>
      <point x="254" y="560"/>
    </contour>
    <contour>
      <point x="659" y="-236" type="curve"/>
      <point x="634" y="-155"/>
      <point x="630" y="-28"/>
      <point x="630" y="62" type="curve" smooth="yes"/>
      <point x="630" y="115"/>
      <point x="631" y="158"/>
      <point x="634" y="199" type="curve"/>
      <point x="623" y="188" type="line"/>
      <point x="720" y="173"/>
      <point x="801" y="136"/>
      <point x="801" y="72" type="curve" smooth="yes"/>
      <point x="801" y="28"/>
      <point x="762" y="-4"/>
      <point x="703" y="-24" type="curve"/>
      <point x="714" y="-54"/>
      <point x="736" y="-75"/>
      <point x="754" y="-80" type="curve"/>
      <point x="802" y="-55"/>
      <point x="846" y="2"/>
      <point x="846" y="68" type="curve" smooth="yes"/>
      <point x="846" y="161"/>
      <point x="758" y="247"/>
      <point x="581" y="268" type="curve"/>
      <point x="571" y="170"/>
      <point x="566" y="78"/>
      <point x="566" y="-40" type="curve" smooth="yes"/>
      <point x="566" y="-156"/>
      <point x="577" y="-211"/>
      <point x="588" y="-250" type="curve"/>
      <point x="613" y="-250"/>
      <point x="641" y="-246"/>
    </contour>
    <contour>
      <point x="607" y="-215" type="line"/>
      <point x="546" y="-81"/>
      <point x="445" y="-6"/>
      <point x="338" y="30" type="curve"/>
      <point x="332" y="-5" type="line"/>
      <point x="500" y="152" type="line"/>
      <point x="432" y="181" type="line"/>
      <point x="276" y="41" type="line"/>
      <point x="278" y="15"/>
      <point x="289" y="-8"/>
      <point x="317" y="-30" type="curve"/>
      <point x="426" y="-52"/>
      <point x="515" y="-120"/>
      <point x="588" y="-250" type="curve"/>
    </contour>
    <contour>
      <point x="500" y="152" type="line"/>
      <point x="460" y="185" type="line" smooth="yes"/>
      <point x="386" y="248"/>
      <point x="305" y="309"/>
      <point x="302" y="365" type="curve"/>
      <point x="216" y="394" type="line"/>
      <point x="216" y="296"/>
      <point x="372" y="216"/>
      <point x="434" y="152" type="curve"/>
    </contour>
    <contour>
      <point x="608" y="-237" type="move" name="blwm"/>
    </contour>
    <contour>
      <point x="486" y="-236" type="move" name="haln"/>
    </contour>
    <contour>
      <point x="600" y="690" type="move" name="reph"/>
    </contour>
    <contour>
      <point x="600" y="690" type="move" name="chandrabindu"/>
    </contour>
  </outline>
</glyph>
<glyph name="bn_n_t_ra" format="1">
  <advance width="519"/>
  <outline>
    <contour>
      <point x="406" y="-216"/>
      <point x="427" y="-213"/>
      <point x="445" y="-206" type="curve"/>
      <point x="459" y="-88"/>
      <point x="468" y="56"/>
      <point x="468" y="223" type="curve" smooth="yes"/>
      <point x="468" y="304"/>
      <point x="414" y="357"/>
      <point x="351" y="357" type="curve" smooth="yes"/>
      <point x="262" y="357"/>
      <point x="148" y="246"/>
      <point x="148" y="144" type="curve" smooth="yes"/>
      <point x="148" y="80"/>
      <point x="192" y="44"/>
      <point x="250" y="44" type="curve" smooth="yes"/>
      <point x="277" y="44"/>
      <point x="303" y="52"/>
      <point x="323" y="70" type="curve"/>
      <point x="330" y="82"/>
      <point x="334" y="101"/>
      <point x="334" y="116" type="curve" smooth="yes"/>
      <point x="334" y="125"/>
      <point x="333" y="134"/>
      <point x="330" y="139" type="curve"/>
      <point x="316" y="124"/>
      <point x="293" y="104"/>
      <point x="262" y="104" type="curve" smooth="yes"/>
      <point x="235" y="104"/>
      <point x="215" y="118"/>
      <point x="215" y="151" type="curve" smooth="yes"/>
      <point x="215" y="222"/>
      <point x="301" y="309"/>
      <point x="359" y="309" type="curve" smooth="yes"/>
      <point x="388" y="309"/>
      <point x="410" y="286"/>
      <point x="410" y="244" type="curve" smooth="yes"/>
      <point x="410" y="97"/>
      <point x="400" y="-68"/>
      <point x="382" y="-180" type="curve"/>
      <point x="400" y="-186" type="line"/>
      <point x="377" y="-109"/>
      <point x="350" y="-70"/>
      <point x="298" y="-70" type="curve" smooth="yes"/>
      <point x="248" y="-70"/>
      <point x="188" y="-105"/>
      <point x="144" y="-105" type="curve" smooth="yes"/>
      <point x="112" y="-105"/>
      <point x="85" y="-88"/>
      <point x="85" y="-44" type="curve" smooth="yes"/>
      <point x="85" y="-18"/>
      <point x="97" y="21"/>
      <point x="113" y="47" type="curve"/>
      <point x="99" y="55"/>
      <point x="84" y="60"/>
      <point x="61" y="61" type="curve"/>
      <point x="43" y="26"/>
      <point x="27" y="-20"/>
      <point x="27" y="-61" type="curve" smooth="yes"/>
      <point x="27" y="-126"/>
      <point x="67" y="-174"/>
      <point x="132" y="-174" type="curve" smooth="yes"/>
      <point x="189" y="-174"/>
      <point x="256" y="-137"/>
      <point x="305" y="-137" type="curve" smooth="yes"/>
      <point x="356" y="-137"/>
      <point x="368" y="-177"/>
      <point x="388" y="-216" type="curve"/>
    </contour>
    <contour>
      <point x="518" y="530" type="curve"/>
      <point x="521" y="538"/>
      <point x="522" y="551"/>
      <point x="522" y="564" type="curve" smooth="yes"/>
      <point x="522" y="573"/>
      <point x="522" y="582"/>
      <point x="519" y="589" type="curve"/>
      <point x="475" y="607"/>
      <point x="356" y="621"/>
      <point x="262" y="621" type="curve" smooth="yes"/>
      <point x="165" y="621"/>
      <point x="57" y="607"/>
      <point x="0" y="589" type="curve"/>
      <point x="-3" y="583"/>
      <point x="-5" y="574"/>
      <point x="-5" y="564" type="curve" smooth="yes"/>
      <point x="-5" y="552"/>
      <point x="-3" y="540"/>
      <point x="0" y="530" type="curve"/>
      <point x="58" y="545"/>
      <point x="164" y="558"/>
      <point x="261" y="558" type="curve" smooth="yes"/>
      <point x="356" y="558"/>
      <point x="471" y="545"/>
    </contour>
    <contour>
      <point x="419" y="309"/>
      <point x="469" y="357"/>
      <point x="469" y="433" type="curve" smooth="yes"/>
      <point x="469" y="506"/>
      <point x="420" y="563"/>
      <point x="341" y="591" type="curve"/>
      <point x="283" y="559" type="line"/>
      <point x="357" y="558"/>
      <point x="411" y="515"/>
      <point x="411" y="454" type="curve" smooth="yes"/>
      <point x="411" y="405"/>
      <point x="385" y="374"/>
      <point x="340" y="374" type="curve" smooth="yes"/>
      <point x="236" y="374"/>
      <point x="223" y="512"/>
      <point x="118" y="512" type="curve" smooth="yes"/>
      <point x="66" y="512"/>
      <point x="22" y="476"/>
      <point x="22" y="410" type="curve" smooth="yes"/>
      <point x="22" y="348"/>
      <point x="65" y="309"/>
      <point x="112" y="309" type="curve" smooth="yes"/>
      <point x="128" y="309"/>
      <point x="143" y="314"/>
      <point x="150" y="321" type="curve"/>
      <point x="156" y="338"/>
      <point x="158" y="356"/>
      <point x="156" y="379" type="curve"/>
      <point x="147" y="372"/>
      <point x="133" y="364"/>
      <point x="115" y="364" type="curve" smooth="yes"/>
      <point x="87" y="364"/>
      <point x="70" y="382"/>
      <point x="70" y="412" type="curve" smooth="yes"/>
      <point x="70" y="449"/>
      <point x="93" y="463"/>
      <point x="116" y="463" type="curve" smooth="yes"/>
      <point x="183" y="463"/>
      <point x="211" y="309"/>
      <point x="343" y="309" type="curve" smooth="yes"/>
    </contour>
    <contour>
      <point x="308" y="690" type="move" name="reph"/>
    </contour>
    <contour>
      <point x="308" y="690" type="move" name="chandrabindu"/>
    </contour>
    <contour>
      <point x="406" y="-198" type="move" name="blwm"/>
    </contour>
    <contour>
      <point x="267" y="-198" type="move" name="haln"/>
    </contour>
  </outline>
</glyph>
<glyph name="bn_nn_ba" format="1">
  <advance width="489"/>
  <outline>
    <contour>
      <point x="360" y="-130" type="curve"/>
      <point x="385" y="-130"/>
      <point x="410" y="-124"/>
      <point x="433" y="-105" type="curve"/>
      <point x="414" y="-43"/>
      <point x="410" y="126"/>
      <point x="410" y="278" type="curve" smooth="yes"/>
      <point x="410" y="349"/>
      <point x="413" y="405"/>
      <point x="419" y="462" type="curve" smooth="yes"/>
      <point x="422" y="485"/>
      <point x="431" y="507"/>
      <point x="445" y="514" type="curve" smooth="yes"/>
      <point x="454" y="519"/>
      <point x="468" y="524"/>
      <point x="489" y="530" type="curve"/>
      <point x="493" y="536"/>
      <point x="495" y="549"/>
      <point x="495" y="562" type="curve" smooth="yes"/>
      <point x="495" y="573"/>
      <point x="493" y="584"/>
      <point x="489" y="589" type="curve"/>
      <point x="452" y="580"/>
      <point x="423" y="571"/>
      <point x="400" y="558" type="curve" smooth="yes"/>
      <point x="377" y="546"/>
      <point x="368" y="519"/>
      <point x="364" y="491" type="curve" smooth="yes"/>
      <point x="354" y="418"/>
      <point x="347" y="299"/>
      <point x="347" y="193" type="curve" smooth="yes"/>
      <point x="347" y="63"/>
      <point x="351" y="-63"/>
    </contour>
    <contour>
      <point x="376" y="-98" type="line"/>
      <point x="330" y="-12"/>
      <point x="241" y="18"/>
      <point x="126" y="46" type="curve"/>
      <point x="124" y="16" type="line"/>
      <point x="186" y="60"/>
      <point x="315" y="98"/>
      <point x="386" y="113" type="curve"/>
      <point x="357" y="174" type="line"/>
      <point x="246" y="140"/>
      <point x="135" y="109"/>
      <point x="81" y="66" type="curve"/>
      <point x="78" y="40"/>
      <point x="84" y="17"/>
      <point x="101" y="-4" type="curve"/>
      <point x="218" y="-19"/>
      <point x="298" y="-41"/>
      <point x="360" y="-130" type="curve"/>
    </contour>
    <contour>
      <point x="382" y="281" type="line"/>
      <point x="387" y="476"/>
      <point x="319" y="616"/>
      <point x="196" y="616" type="curve" smooth="yes"/>
      <point x="108" y="616"/>
      <point x="50" y="541"/>
      <point x="50" y="445" type="curve" smooth="yes"/>
      <point x="50" y="353"/>
      <point x="107" y="294"/>
      <point x="174" y="294" type="curve" smooth="yes"/>
      <point x="231" y="294"/>
      <point x="276" y="336"/>
      <point x="276" y="395" type="curve" smooth="yes"/>
      <point x="276" y="412"/>
      <point x="272" y="428"/>
      <point x="265" y="442" type="curve"/>
      <point x="250" y="454"/>
      <point x="222" y="464"/>
      <point x="198" y="466" type="curve"/>
      <point x="209" y="449"/>
      <point x="218" y="426"/>
      <point x="218" y="407" type="curve" smooth="yes"/>
      <point x="218" y="377"/>
      <point x="201" y="352"/>
      <point x="170" y="352" type="curve" smooth="yes"/>
      <point x="138" y="352"/>
      <point x="108" y="379"/>
      <point x="108" y="432" type="curve" smooth="yes"/>
      <point x="108" y="498"/>
      <point x="147" y="544"/>
      <point x="202" y="544" type="curve" smooth="yes"/>
      <point x="271" y="544"/>
      <point x="348" y="475"/>
      <point x="348" y="345" type="curve" smooth="yes"/>
      <point x="348" y="320"/>
      <point x="348" y="283"/>
      <point x="347" y="228" type="curve"/>
    </contour>
    <contour>
      <point x="383" y="-105" type="move" name="blwm"/>
    </contour>
    <contour>
      <point x="253" y="-107" type="move" name="haln"/>
    </contour>
    <contour>
      <point x="397" y="690" type="move" name="reph"/>
    </contour>
    <contour>
      <point x="397" y="690" type="move" name="chandrabindu"/>
    </contour>
  </outline>
</glyph>
<glyph name="bn_nn_ma" format="1">
  <advance width="884"/>
  <outline>
    <contour>
      <point x="705" y="-200" type="curve"/>
      <point x="674" y="-63"/>
      <point x="649" y="150"/>
      <point x="649" y="284" type="curve" smooth="yes"/>
      <point x="649" y="428"/>
      <point x="652" y="473"/>
      <point x="663" y="567" type="curve"/>
      <point x="610" y="578" type="line"/>
      <point x="593" y="468"/>
      <point x="586" y="331"/>
      <point x="586" y="200" type="curve" smooth="yes"/>
      <point x="586" y="-48"/>
      <point x="622" y="-140"/>
      <point x="636" y="-216" type="curve"/>
      <point x="661" y="-216"/>
      <point x="686" y="-211"/>
    </contour>
    <contour>
      <point x="424" y="23" type="curve"/>
      <point x="358" y="60" type="line"/>
      <point x="355" y="-3"/>
      <point x="332" y="-35"/>
      <point x="292" y="-35" type="curve" smooth="yes"/>
      <point x="260" y="-35"/>
      <point x="240" y="-14"/>
      <point x="240" y="14" type="curve" smooth="yes"/>
      <point x="240" y="41"/>
      <point x="259" y="66"/>
      <point x="289" y="66" type="curve" smooth="yes"/>
      <point x="320" y="66"/>
      <point x="352" y="46"/>
      <point x="367" y="10" type="curve"/>
      <point x="396" y="53" type="line"/>
      <point x="378" y="92"/>
      <point x="333" y="113"/>
      <point x="290" y="113" type="curve" smooth="yes"/>
      <point x="237" y="113"/>
      <point x="193" y="75"/>
      <point x="193" y="12" type="curve" smooth="yes"/>
      <point x="193" y="-53"/>
      <point x="243" y="-100"/>
      <point x="304" y="-100" type="curve" smooth="yes"/>
      <point x="370" y="-100"/>
      <point x="416" y="-43"/>
    </contour>
    <contour>
      <point x="650" y="-186" type="line"/>
      <point x="619" y="-67"/>
      <point x="457" y="28"/>
      <point x="394" y="60" type="curve"/>
      <point x="367" y="7" type="line"/>
      <point x="481" y="-50"/>
      <point x="575" y="-98"/>
      <point x="636" y="-215" type="curve"/>
    </contour>
    <contour>
      <point x="623" y="561" type="curve" smooth="yes"/>
      <point x="721" y="562"/>
      <point x="817" y="543"/>
      <point x="884" y="530" type="curve"/>
      <point x="887" y="538"/>
      <point x="890" y="549"/>
      <point x="890" y="564" type="curve" smooth="yes"/>
      <point x="890" y="574"/>
      <point x="888" y="583"/>
      <point x="884" y="589" type="curve"/>
      <point x="826" y="605"/>
      <point x="730" y="625"/>
      <point x="627" y="624" type="curve" smooth="yes"/>
      <point x="467" y="624"/>
      <point x="382" y="569"/>
      <point x="372" y="494" type="curve" smooth="yes"/>
      <point x="362" y="420"/>
      <point x="355" y="300"/>
      <point x="355" y="193" type="curve" smooth="yes"/>
      <point x="355" y="112"/>
      <point x="355" y="46"/>
      <point x="360" y="4" type="curve"/>
      <point x="434" y="5" type="line"/>
      <point x="421" y="49"/>
      <point x="418" y="170"/>
      <point x="418" y="278" type="curve" smooth="yes"/>
      <point x="418" y="350"/>
      <point x="420" y="407"/>
      <point x="427" y="465" type="curve" smooth="yes"/>
      <point x="435" y="523"/>
      <point x="465" y="560"/>
    </contour>
    <contour>
      <point x="393" y="281" type="line"/>
      <point x="398" y="476"/>
      <point x="330" y="616"/>
      <point x="206" y="616" type="curve" smooth="yes"/>
      <point x="118" y="616"/>
      <point x="60" y="541"/>
      <point x="60" y="445" type="curve" smooth="yes"/>
      <point x="60" y="353"/>
      <point x="118" y="294"/>
      <point x="185" y="294" type="curve" smooth="yes"/>
      <point x="242" y="294"/>
      <point x="286" y="336"/>
      <point x="286" y="395" type="curve" smooth="yes"/>
      <point x="286" y="412"/>
      <point x="283" y="428"/>
      <point x="276" y="442" type="curve"/>
      <point x="260" y="454"/>
      <point x="232" y="464"/>
      <point x="209" y="466" type="curve"/>
      <point x="219" y="449"/>
      <point x="229" y="426"/>
      <point x="229" y="407" type="curve" smooth="yes"/>
      <point x="229" y="377"/>
      <point x="211" y="352"/>
      <point x="180" y="352" type="curve" smooth="yes"/>
      <point x="148" y="352"/>
      <point x="118" y="379"/>
      <point x="118" y="432" type="curve" smooth="yes"/>
      <point x="118" y="498"/>
      <point x="158" y="544"/>
      <point x="212" y="544" type="curve" smooth="yes"/>
      <point x="281" y="544"/>
      <point x="359" y="475"/>
      <point x="359" y="345" type="curve"/>
    </contour>
    <contour>
      <point x="654" y="-195" type="move" name="blwm"/>
    </contour>
    <contour>
      <point x="487" y="690" type="move" name="reph"/>
    </contour>
    <contour>
      <point x="487" y="690" type="move" name="chandrabindu"/>
    </contour>
    <contour>
      <point x="503" y="-200" type="move" name="haln"/>
    </contour>
  </outline>
</glyph>
<glyph name="bn_nn_tta" format="1">
  <advance width="707"/>
  <outline>
    <contour>
      <point x="707" y="589" type="line"/>
      <point x="694" y="681"/>
      <point x="647" y="757"/>
      <point x="556" y="757" type="curve" smooth="yes"/>
      <point x="495" y="757"/>
      <point x="427" y="734"/>
      <point x="380" y="734" type="curve" smooth="yes"/>
      <point x="325" y="734"/>
      <point x="295" y="767"/>
      <point x="269" y="804" type="curve"/>
      <point x="258" y="796"/>
      <point x="243" y="779"/>
      <point x="233" y="760" type="curve"/>
      <point x="265" y="711"/>
      <point x="307" y="676"/>
      <point x="377" y="676" type="curve" smooth="yes"/>
      <point x="436" y="676"/>
      <point x="494" y="699"/>
      <point x="559" y="699" type="curve" smooth="yes"/>
      <point x="628" y="699"/>
      <point x="656" y="642"/>
      <point x="667" y="579" type="curve"/>
    </contour>
    <contour>
      <point x="531" y="611" type="curve" smooth="yes"/>
      <point x="426" y="611"/>
      <point x="354" y="571"/>
      <point x="347" y="484" type="curve" smooth="yes"/>
      <point x="344" y="440" type="line"/>
      <point x="334" y="422" type="line"/>
      <point x="331" y="290"/>
      <point x="315" y="233"/>
      <point x="310" y="130" type="curve" smooth="yes"/>
      <point x="307" y="40"/>
      <point x="370" y="-20"/>
      <point x="440" y="-20" type="curve" smooth="yes"/>
      <point x="542" y="-20"/>
      <point x="672" y="119"/>
      <point x="672" y="250" type="curve" smooth="yes"/>
      <point x="672" y="330"/>
      <point x="622" y="375"/>
      <point x="558" y="375" type="curve" smooth="yes"/>
      <point x="523" y="375"/>
      <point x="492" y="362"/>
      <point x="472" y="342" type="curve"/>
      <point x="466" y="331"/>
      <point x="461" y="316"/>
      <point x="461" y="300" type="curve" smooth="yes"/>
      <point x="461" y="288"/>
      <point x="465" y="276"/>
      <point x="472" y="267" type="curve"/>
      <point x="485" y="287"/>
      <point x="512" y="311"/>
      <point x="545" y="311" type="curve" smooth="yes"/>
      <point x="576" y="311"/>
      <point x="599" y="288"/>
      <point x="599" y="242" type="curve" smooth="yes"/>
      <point x="599" y="146"/>
      <point x="499" y="30"/>
      <point x="431" y="30" type="curve" smooth="yes"/>
      <point x="398" y="31"/>
      <point x="369" y="64"/>
      <point x="373" y="126" type="curve" smooth="yes"/>
      <point x="379" y="256"/>
      <point x="383" y="338"/>
      <point x="397" y="447" type="curve" smooth="yes"/>
      <point x="408" y="535"/>
      <point x="446" y="547"/>
      <point x="532" y="547" type="curve" smooth="yes"/>
      <point x="604" y="547"/>
      <point x="662" y="540"/>
      <point x="707" y="530" type="curve"/>
      <point x="710" y="538"/>
      <point x="711" y="549"/>
      <point x="711" y="561" type="curve" smooth="yes"/>
      <point x="711" y="572"/>
      <point x="710" y="582"/>
      <point x="707" y="589" type="curve"/>
      <point x="663" y="602"/>
      <point x="602" y="611"/>
    </contour>
    <contour>
      <point x="367" y="286" type="line"/>
      <point x="372" y="478"/>
      <point x="303" y="616"/>
      <point x="178" y="616" type="curve" smooth="yes"/>
      <point x="91" y="616"/>
      <point x="32" y="541"/>
      <point x="32" y="445" type="curve" smooth="yes"/>
      <point x="32" y="353"/>
      <point x="90" y="294"/>
      <point x="157" y="294" type="curve" smooth="yes"/>
      <point x="214" y="294"/>
      <point x="258" y="336"/>
      <point x="258" y="395" type="curve" smooth="yes"/>
      <point x="258" y="412"/>
      <point x="255" y="428"/>
      <point x="248" y="442" type="curve"/>
      <point x="233" y="454"/>
      <point x="205" y="464"/>
      <point x="181" y="466" type="curve"/>
      <point x="192" y="449"/>
      <point x="201" y="426"/>
      <point x="201" y="407" type="curve" smooth="yes"/>
      <point x="201" y="377"/>
      <point x="184" y="352"/>
      <point x="153" y="352" type="curve" smooth="yes"/>
      <point x="120" y="352"/>
      <point x="90" y="379"/>
      <point x="90" y="432" type="curve" smooth="yes"/>
      <point x="90" y="498"/>
      <point x="131" y="544"/>
      <point x="188" y="544" type="curve" smooth="yes"/>
      <point x="257" y="544"/>
      <point x="335" y="477"/>
      <point x="335" y="351" type="curve" smooth="yes"/>
      <point x="335" y="326"/>
      <point x="332" y="288"/>
      <point x="326" y="232" type="curve"/>
    </contour>
    <contour>
      <point x="445" y="-7" type="move" name="blwm"/>
    </contour>
    <contour>
      <point x="356" y="-6" type="move" name="haln"/>
    </contour>
    <contour>
      <point x="392" y="684" type="move" name="reph"/>
    </contour>
    <contour>
      <point x="476" y="786" type="move" name="chandrabindu"/>
    </contour>
  </outline>
</glyph>
<glyph name="bn_p_t_ra" format="1">
  <advance width="554"/>
  <outline>
    <contour>
      <point x="443" y="-265"/>
      <point x="464" y="-262"/>
      <point x="482" y="-255" type="curve"/>
      <point x="497" y="-137"/>
      <point x="506" y="0"/>
      <point x="506" y="176" type="curve" smooth="yes"/>
      <point x="506" y="256"/>
      <point x="451" y="309"/>
      <point x="388" y="309" type="curve" smooth="yes"/>
      <point x="299" y="309"/>
      <point x="185" y="198"/>
      <point x="185" y="96" type="curve" smooth="yes"/>
      <point x="185" y="32"/>
      <point x="230" y="-3"/>
      <point x="288" y="-3" type="curve" smooth="yes"/>
      <point x="315" y="-3"/>
      <point x="341" y="4"/>
      <point x="361" y="22" type="curve"/>
      <point x="369" y="34"/>
      <point x="373" y="53"/>
      <point x="373" y="69" type="curve" smooth="yes"/>
      <point x="373" y="77"/>
      <point x="372" y="86"/>
      <point x="369" y="91" type="curve"/>
      <point x="355" y="77"/>
      <point x="332" y="57"/>
      <point x="300" y="57" type="curve" smooth="yes"/>
      <point x="273" y="57"/>
      <point x="254" y="71"/>
      <point x="254" y="104" type="curve" smooth="yes"/>
      <point x="254" y="174"/>
      <point x="339" y="260"/>
      <point x="398" y="260" type="curve" smooth="yes"/>
      <point x="427" y="260"/>
      <point x="447" y="237"/>
      <point x="447" y="195" type="curve" smooth="yes"/>
      <point x="447" y="48"/>
      <point x="437" y="-118"/>
      <point x="418" y="-230" type="curve"/>
      <point x="437" y="-236" type="line"/>
      <point x="412" y="-158"/>
      <point x="384" y="-120"/>
      <point x="327" y="-120" type="curve" smooth="yes"/>
      <point x="276" y="-120"/>
      <point x="212" y="-154"/>
      <point x="166" y="-154" type="curve" smooth="yes"/>
      <point x="130" y="-154"/>
      <point x="102" y="-137"/>
      <point x="102" y="-92" type="curve" smooth="yes"/>
      <point x="102" y="-66"/>
      <point x="112" y="-26"/>
      <point x="128" y="0" type="curve"/>
      <point x="115" y="7"/>
      <point x="99" y="12"/>
      <point x="78" y="13" type="curve"/>
      <point x="60" y="-22"/>
      <point x="44" y="-69"/>
      <point x="44" y="-109" type="curve" smooth="yes"/>
      <point x="44" y="-175"/>
      <point x="85" y="-223"/>
      <point x="154" y="-223" type="curve" smooth="yes"/>
      <point x="213" y="-223"/>
      <point x="284" y="-186"/>
      <point x="334" y="-186" type="curve" smooth="yes"/>
      <point x="389" y="-186"/>
      <point x="404" y="-227"/>
      <point x="425" y="-265" type="curve"/>
    </contour>
    <contour>
      <point x="241" y="309"/>
      <point x="331" y="396"/>
      <point x="379" y="461" type="curve"/>
      <point x="344" y="511" type="line"/>
      <point x="283" y="434"/>
      <point x="181" y="349"/>
      <point x="110" y="302" type="curve"/>
      <point x="123" y="280"/>
      <point x="139" y="262"/>
      <point x="159" y="248" type="curve"/>
    </contour>
    <contour>
      <point x="420" y="476"/>
      <point x="352" y="618"/>
      <point x="214" y="618" type="curve" smooth="yes"/>
      <point x="128" y="618"/>
      <point x="54" y="561"/>
      <point x="6" y="493" type="curve"/>
      <point x="11" y="470"/>
      <point x="18" y="448"/>
      <point x="30" y="426" type="curve"/>
      <point x="78" y="415"/>
      <point x="145" y="390"/>
      <point x="145" y="349" type="curve" smooth="yes"/>
      <point x="145" y="333"/>
      <point x="137" y="319"/>
      <point x="122" y="310" type="curve"/>
      <point x="161" y="331" type="line"/>
      <point x="174" y="340"/>
      <point x="183" y="359"/>
      <point x="183" y="379" type="curve" smooth="yes"/>
      <point x="183" y="423"/>
      <point x="115" y="461"/>
      <point x="62" y="480" type="curve"/>
      <point x="67" y="456" type="line"/>
      <point x="113" y="515"/>
      <point x="161" y="554"/>
      <point x="222" y="554" type="curve" smooth="yes"/>
      <point x="305" y="554"/>
      <point x="379" y="485"/>
      <point x="379" y="360" type="curve"/>
      <point x="412" y="298" type="line"/>
    </contour>
    <contour>
      <point x="439" y="270" type="line"/>
      <point x="439" y="278"/>
      <point x="439" y="287"/>
      <point x="439" y="295" type="curve" smooth="yes"/>
      <point x="439" y="364"/>
      <point x="441" y="414"/>
      <point x="447" y="469" type="curve" smooth="yes"/>
      <point x="450" y="487"/>
      <point x="455" y="500"/>
      <point x="471" y="506" type="curve" smooth="yes"/>
      <point x="497" y="516"/>
      <point x="531" y="525"/>
      <point x="554" y="530" type="curve"/>
      <point x="558" y="536"/>
      <point x="560" y="549"/>
      <point x="560" y="561" type="curve" smooth="yes"/>
      <point x="560" y="573"/>
      <point x="558" y="584"/>
      <point x="554" y="589" type="curve"/>
      <point x="515" y="581"/>
      <point x="464" y="566"/>
      <point x="438" y="555" type="curve" smooth="yes"/>
      <point x="415" y="544"/>
      <point x="405" y="525"/>
      <point x="400" y="499" type="curve" smooth="yes"/>
      <point x="397" y="483"/>
      <point x="396" y="465"/>
      <point x="395" y="439" type="curve"/>
      <point x="385" y="427" type="line"/>
      <point x="379" y="378"/>
      <point x="378" y="325"/>
      <point x="376" y="270" type="curve"/>
    </contour>
    <contour>
      <point x="547" y="749" type="move" name="reph"/>
    </contour>
    <contour>
      <point x="547" y="749" type="move" name="chandrabindu"/>
    </contour>
    <contour>
      <point x="444" y="-251" type="move" name="blwm"/>
    </contour>
    <contour>
      <point x="280" y="-250" type="move" name="haln"/>
    </contour>
  </outline>
</glyph>
<glyph name="bn_p_ta" format="1">
  <advance width="634"/>
  <outline>
    <contour>
      <point x="555" y="-86"/>
      <point x="623" y="-14"/>
      <point x="623" y="89" type="curve" smooth="yes"/>
      <point x="623" y="204"/>
      <point x="552" y="293"/>
      <point x="467" y="293" type="curve" smooth="yes"/>
      <point x="401" y="293"/>
      <point x="360" y="249"/>
      <point x="360" y="193" type="curve" smooth="yes"/>
      <point x="360" y="160"/>
      <point x="373" y="125"/>
      <point x="394" y="102" type="curve"/>
      <point x="401" y="100"/>
      <point x="417" y="97"/>
      <point x="429" y="97" type="curve" smooth="yes"/>
      <point x="446" y="97"/>
      <point x="464" y="101"/>
      <point x="476" y="106" type="curve"/>
      <point x="445" y="128"/>
      <point x="429" y="158"/>
      <point x="429" y="187" type="curve" smooth="yes"/>
      <point x="429" y="218"/>
      <point x="444" y="240"/>
      <point x="479" y="240" type="curve" smooth="yes"/>
      <point x="529" y="240"/>
      <point x="568" y="192"/>
      <point x="568" y="108" type="curve" smooth="yes"/>
      <point x="568" y="28"/>
      <point x="520" y="-18"/>
      <point x="437" y="-18" type="curve" smooth="yes"/>
      <point x="282" y="-18"/>
      <point x="144" y="152"/>
      <point x="54" y="405" type="curve"/>
      <point x="36" y="400"/>
      <point x="18" y="392"/>
      <point x="3" y="381" type="curve"/>
      <point x="66" y="194"/>
      <point x="200" y="-86"/>
      <point x="439" y="-86" type="curve" smooth="yes"/>
    </contour>
    <contour>
      <point x="369" y="297"/>
      <point x="454" y="389"/>
      <point x="500" y="458" type="curve"/>
      <point x="467" y="506" type="line"/>
      <point x="409" y="425"/>
      <point x="311" y="336"/>
      <point x="242" y="287" type="curve"/>
      <point x="254" y="266"/>
      <point x="271" y="248"/>
      <point x="291" y="234" type="curve"/>
    </contour>
    <contour>
      <point x="539" y="474"/>
      <point x="468" y="619"/>
      <point x="332" y="619" type="curve" smooth="yes"/>
      <point x="240" y="619"/>
      <point x="159" y="558"/>
      <point x="112" y="488" type="curve"/>
      <point x="117" y="464"/>
      <point x="124" y="441"/>
      <point x="136" y="419" type="curve"/>
      <point x="197" y="419"/>
      <point x="276" y="391"/>
      <point x="276" y="344" type="curve" smooth="yes"/>
      <point x="276" y="326"/>
      <point x="268" y="307"/>
      <point x="254" y="296" type="curve"/>
      <point x="294" y="321" type="line"/>
      <point x="306" y="331"/>
      <point x="315" y="356"/>
      <point x="315" y="374" type="curve" smooth="yes"/>
      <point x="315" y="431"/>
      <point x="237" y="466"/>
      <point x="168" y="475" type="curve"/>
      <point x="173" y="450" type="line"/>
      <point x="225" y="516"/>
      <point x="276" y="555"/>
      <point x="340" y="555" type="curve" smooth="yes"/>
      <point x="424" y="555"/>
      <point x="501" y="482"/>
      <point x="501" y="345" type="curve"/>
      <point x="534" y="289" type="line"/>
    </contour>
    <contour>
      <point x="559" y="304"/>
      <point x="562" y="406"/>
      <point x="569" y="463" type="curve" smooth="yes"/>
      <point x="572" y="491"/>
      <point x="578" y="507"/>
      <point x="595" y="516" type="curve" smooth="yes"/>
      <point x="606" y="521"/>
      <point x="619" y="525"/>
      <point x="635" y="530" type="curve"/>
      <point x="639" y="536"/>
      <point x="641" y="549"/>
      <point x="641" y="561" type="curve" smooth="yes"/>
      <point x="641" y="573"/>
      <point x="639" y="584"/>
      <point x="635" y="589" type="curve"/>
      <point x="596" y="581"/>
      <point x="568" y="570"/>
      <point x="554" y="561" type="curve" smooth="yes"/>
      <point x="533" y="549"/>
      <point x="526" y="532"/>
      <point x="521" y="502" type="curve" smooth="yes"/>
      <point x="517" y="481"/>
      <point x="514" y="457"/>
      <point x="512" y="437" type="curve"/>
      <point x="506" y="414" type="line"/>
      <point x="500" y="361"/>
      <point x="498" y="303"/>
      <point x="497" y="247" type="curve"/>
      <point x="560" y="235" type="line"/>
    </contour>
    <contour>
      <point x="518" y="690" type="move" name="reph"/>
    </contour>
    <contour>
      <point x="518" y="690" type="move" name="chandrabindu"/>
    </contour>
    <contour>
      <point x="442" y="-77" type="move" name="blwm"/>
    </contour>
    <contour>
      <point x="328" y="-77" type="move" name="haln"/>
    </contour>
  </outline>
</glyph>
<glyph name="bn_reph" format="1">
  <advance width="0"/>
  <outline>
    <contour>
      <point x="166" y="978"/>
      <point x="151" y="985"/>
      <point x="138" y="990" type="curve"/>
      <point x="90" y="873"/>
      <point x="-51" y="728"/>
      <point x="-165" y="673" type="curve"/>
      <point x="-153" y="653"/>
      <point x="-143" y="636"/>
      <point x="-127" y="625" type="curve"/>
      <point x="-24" y="689"/>
      <point x="129" y="852"/>
      <point x="172" y="969" type="curve"/>
    </contour>
    <contour>
      <point x="0" y="678" type="move" name="_reph"/>
    </contour>
  </outline>
</glyph>
<glyph name="bn_rr_ga" format="1">
  <advance width="987"/>
  <outline>
    <contour>
      <point x="723" y="204"/>
      <point x="794" y="290"/>
      <point x="794" y="363" type="curve" smooth="yes"/>
      <point x="794" y="421"/>
      <point x="750" y="469"/>
      <point x="692" y="469" type="curve" smooth="yes"/>
      <point x="656" y="469"/>
      <point x="611" y="452"/>
      <point x="576" y="424" type="curve"/>
      <point x="617" y="419" type="line"/>
      <point x="610" y="430"/>
      <point x="606" y="446"/>
      <point x="606" y="462" type="curve" smooth="yes"/>
      <point x="606" y="520"/>
      <point x="647" y="550"/>
      <point x="704" y="550" type="curve" smooth="yes"/>
      <point x="777" y="550"/>
      <point x="863" y="479"/>
      <point x="863" y="347" type="curve" smooth="yes"/>
      <point x="863" y="321"/>
      <point x="860" y="284"/>
      <point x="854" y="228" type="curve"/>
      <point x="895" y="281" type="line"/>
      <point x="900" y="473"/>
      <point x="828" y="619"/>
      <point x="703" y="619" type="curve" smooth="yes"/>
      <point x="608" y="619"/>
      <point x="549" y="548"/>
      <point x="549" y="462" type="curve" smooth="yes"/>
      <point x="549" y="441"/>
      <point x="551" y="423"/>
      <point x="555" y="406" type="curve"/>
      <point x="585" y="368" type="line"/>
      <point x="624" y="397"/>
      <point x="669" y="413"/>
      <point x="702" y="413" type="curve" smooth="yes"/>
      <point x="731" y="413"/>
      <point x="747" y="400"/>
      <point x="747" y="374" type="curve" smooth="yes"/>
      <point x="747" y="332"/>
      <point x="685" y="268"/>
      <point x="614" y="205" type="curve"/>
      <point x="627" y="184"/>
      <point x="648" y="163"/>
      <point x="672" y="149" type="curve"/>
    </contour>
    <contour>
      <point x="901" y="98"/>
      <point x="923" y="246"/>
      <point x="923" y="467" type="curve" smooth="yes"/>
      <point x="923" y="490"/>
      <point x="927" y="506"/>
      <point x="944" y="515" type="curve" smooth="yes"/>
      <point x="954" y="520"/>
      <point x="967" y="524"/>
      <point x="987" y="530" type="curve"/>
      <point x="990" y="536"/>
      <point x="993" y="549"/>
      <point x="993" y="561" type="curve" smooth="yes"/>
      <point x="993" y="573"/>
      <point x="990" y="584"/>
      <point x="987" y="589" type="curve"/>
      <point x="951" y="581"/>
      <point x="924" y="572"/>
      <point x="903" y="561" type="curve" smooth="yes"/>
      <point x="881" y="548"/>
      <point x="871" y="527"/>
      <point x="871" y="502" type="curve" smooth="yes"/>
      <point x="871" y="486"/>
      <point x="872" y="473"/>
      <point x="873" y="447" type="curve"/>
      <point x="864" y="425" type="line"/>
      <point x="864" y="230"/>
      <point x="844" y="117"/>
      <point x="800" y="-10" type="curve"/>
      <point x="819" y="-16"/>
      <point x="845" y="-20"/>
      <point x="870" y="-20" type="curve"/>
    </contour>
    <contour>
      <point x="345" y="-167"/>
      <point x="369" y="-146"/>
      <point x="369" y="-117" type="curve" smooth="yes"/>
      <point x="369" y="-94"/>
      <point x="350" y="-76"/>
      <point x="326" y="-76" type="curve" smooth="yes"/>
      <point x="299" y="-76"/>
      <point x="275" y="-96"/>
      <point x="275" y="-126" type="curve" smooth="yes"/>
      <point x="275" y="-150"/>
      <point x="293" y="-167"/>
      <point x="317" y="-167" type="curve" smooth="yes"/>
    </contour>
    <contour>
      <point x="476" y="-20"/>
      <point x="545" y="70"/>
      <point x="545" y="205" type="curve" smooth="yes"/>
      <point x="545" y="278"/>
      <point x="527" y="347"/>
      <point x="501" y="399" type="curve"/>
      <point x="487" y="408"/>
      <point x="469" y="415"/>
      <point x="454" y="418" type="curve"/>
      <point x="407" y="356"/>
      <point x="362" y="304"/>
      <point x="328" y="304" type="curve" smooth="yes"/>
      <point x="297" y="304"/>
      <point x="278" y="325"/>
      <point x="278" y="365" type="curve" smooth="yes"/>
      <point x="278" y="420"/>
      <point x="305" y="504"/>
      <point x="327" y="581" type="curve"/>
      <point x="262" y="587" type="line"/>
      <point x="243" y="518"/>
      <point x="222" y="437"/>
      <point x="222" y="381" type="curve" smooth="yes"/>
      <point x="222" y="314"/>
      <point x="268" y="244"/>
      <point x="339" y="244" type="curve" smooth="yes"/>
      <point x="406" y="244"/>
      <point x="456" y="311"/>
      <point x="501" y="369" type="curve"/>
      <point x="462" y="377" type="line"/>
      <point x="479" y="337"/>
      <point x="491" y="283"/>
      <point x="491" y="222" type="curve" smooth="yes"/>
      <point x="491" y="112"/>
      <point x="444" y="50"/>
      <point x="358" y="50" type="curve" smooth="yes"/>
      <point x="232" y="50"/>
      <point x="141" y="165"/>
      <point x="61" y="455" type="curve"/>
      <point x="43" y="448"/>
      <point x="26" y="438"/>
      <point x="10" y="427" type="curve"/>
      <point x="67" y="209"/>
      <point x="155" y="-20"/>
      <point x="357" y="-20" type="curve" smooth="yes"/>
    </contour>
    <contour>
      <point x="77" y="548"/>
      <point x="176" y="561"/>
      <point x="308" y="561" type="curve" smooth="yes"/>
      <point x="436" y="561"/>
      <point x="537" y="549"/>
      <point x="615" y="530" type="curve"/>
      <point x="619" y="539"/>
      <point x="621" y="552"/>
      <point x="621" y="563" type="curve" smooth="yes"/>
      <point x="621" y="572"/>
      <point x="619" y="583"/>
      <point x="615" y="589" type="curve"/>
      <point x="539" y="610"/>
      <point x="439" y="624"/>
      <point x="309" y="624" type="curve" smooth="yes"/>
      <point x="175" y="624"/>
      <point x="75" y="610"/>
      <point x="0" y="589" type="curve"/>
      <point x="-4" y="582"/>
      <point x="-5" y="572"/>
      <point x="-5" y="563" type="curve" smooth="yes"/>
      <point x="-5" y="551"/>
      <point x="-4" y="539"/>
      <point x="0" y="530" type="curve"/>
    </contour>
    <contour>
      <point x="839" y="-11" type="move" name="blwm"/>
    </contour>
    <contour>
      <point x="705" y="-8" type="move" name="haln"/>
    </contour>
    <contour>
      <point x="867" y="690" type="move" name="reph"/>
    </contour>
    <contour>
      <point x="867" y="690" type="move" name="chandrabindu"/>
    </contour>
  </outline>
</glyph>
<glyph name="bn_s_la" format="1">
  <advance width="556"/>
  <outline>
    <contour>
      <point x="203" y="-34"/>
      <point x="211" y="-5"/>
      <point x="211" y="17" type="curve"/>
      <point x="197" y="14"/>
      <point x="184" y="13"/>
      <point x="172" y="13" type="curve" smooth="yes"/>
      <point x="115" y="13"/>
      <point x="72" y="45"/>
      <point x="72" y="101" type="curve" smooth="yes"/>
      <point x="72" y="143"/>
      <point x="96" y="171"/>
      <point x="135" y="171" type="curve" smooth="yes"/>
      <point x="178" y="171"/>
      <point x="217" y="138"/>
      <point x="246" y="87" type="curve"/>
      <point x="279" y="125" type="line"/>
      <point x="243" y="196"/>
      <point x="193" y="238"/>
      <point x="135" y="238" type="curve" smooth="yes"/>
      <point x="71" y="238"/>
      <point x="25" y="185"/>
      <point x="25" y="110" type="curve" smooth="yes"/>
      <point x="25" y="12"/>
      <point x="101" y="-53"/>
      <point x="191" y="-52" type="curve"/>
    </contour>
    <contour>
      <point x="278" y="73"/>
      <point x="296" y="81"/>
      <point x="309" y="90" type="curve"/>
      <point x="260" y="176" type="line"/>
      <point x="213" y="142" type="line"/>
      <point x="257" y="68" type="line"/>
    </contour>
    <contour>
      <point x="411" y="101" type="line"/>
      <point x="404" y="178"/>
      <point x="363" y="239"/>
      <point x="315" y="239" type="curve" smooth="yes"/>
      <point x="279" y="239"/>
      <point x="248" y="206"/>
      <point x="244" y="148" type="curve"/>
      <point x="251" y="107" type="line"/>
      <point x="302" y="102" type="line"/>
      <point x="292" y="119"/>
      <point x="289" y="125"/>
      <point x="289" y="135" type="curve" smooth="yes"/>
      <point x="289" y="159"/>
      <point x="303" y="176"/>
      <point x="323" y="176" type="curve" smooth="yes"/>
      <point x="362" y="176"/>
      <point x="397" y="108"/>
      <point x="414" y="-51" type="curve"/>
    </contour>
    <contour>
      <point x="439" y="-51"/>
      <point x="463" y="-49"/>
      <point x="482" y="-41" type="curve"/>
      <point x="467" y="30"/>
      <point x="465" y="189"/>
      <point x="465" y="244" type="curve" smooth="yes"/>
      <point x="465" y="285"/>
      <point x="466" y="334"/>
      <point x="469" y="356" type="curve"/>
      <point x="412" y="334" type="line"/>
      <point x="408" y="284"/>
      <point x="404" y="225"/>
      <point x="404" y="145" type="curve" smooth="yes"/>
      <point x="404" y="39"/>
      <point x="411" y="-21"/>
      <point x="414" y="-51" type="curve"/>
    </contour>
    <contour>
      <point x="79" y="546"/>
      <point x="160" y="561"/>
      <point x="274" y="561" type="curve" smooth="yes"/>
      <point x="387" y="561"/>
      <point x="477" y="546"/>
      <point x="556" y="530" type="curve"/>
      <point x="559" y="538"/>
      <point x="560" y="551"/>
      <point x="560" y="564" type="curve" smooth="yes"/>
      <point x="560" y="573"/>
      <point x="560" y="583"/>
      <point x="556" y="589" type="curve"/>
      <point x="487" y="608"/>
      <point x="392" y="624"/>
      <point x="276" y="624" type="curve" smooth="yes"/>
      <point x="159" y="624"/>
      <point x="77" y="608"/>
      <point x="0" y="589" type="curve"/>
      <point x="-3" y="583"/>
      <point x="-5" y="574"/>
      <point x="-5" y="563" type="curve" smooth="yes"/>
      <point x="-5" y="551"/>
      <point x="-3" y="539"/>
      <point x="0" y="530" type="curve"/>
    </contour>
    <contour>
      <point x="189" y="436"/>
      <point x="156" y="377"/>
      <point x="93" y="377" type="curve" smooth="yes"/>
      <point x="70" y="377"/>
      <point x="41" y="386"/>
      <point x="24" y="402" type="curve"/>
      <point x="44" y="332" type="line"/>
      <point x="60" y="324"/>
      <point x="80" y="317"/>
      <point x="102" y="317" type="curve" smooth="yes"/>
      <point x="178" y="317"/>
      <point x="235" y="395"/>
      <point x="238" y="565" type="curve"/>
      <point x="192" y="571" type="line"/>
    </contour>
    <contour>
      <point x="469" y="308"/>
      <point x="526" y="362"/>
      <point x="526" y="440" type="curve" smooth="yes"/>
      <point x="526" y="513"/>
      <point x="475" y="563"/>
      <point x="404" y="586" type="curve"/>
      <point x="350" y="560" type="line"/>
      <point x="420" y="557"/>
      <point x="469" y="521"/>
      <point x="469" y="456" type="curve" smooth="yes"/>
      <point x="469" y="404"/>
      <point x="437" y="370"/>
      <point x="386" y="370" type="curve" smooth="yes"/>
      <point x="311" y="370"/>
      <point x="255" y="446"/>
      <point x="253" y="571" type="curve"/>
      <point x="210" y="565" type="line"/>
      <point x="212" y="398"/>
      <point x="295" y="308"/>
      <point x="393" y="308" type="curve" smooth="yes"/>
    </contour>
    <contour>
      <point x="440" y="-36" type="move" name="blwm"/>
    </contour>
    <contour>
      <point x="269" y="-34" type="move" name="haln"/>
    </contour>
    <contour>
      <point x="398" y="690" type="move" name="reph"/>
    </contour>
    <contour>
      <point x="398" y="690" type="move" name="chandrabindu"/>
    </contour>
  </outline>
</glyph>
<glyph name="bn_s_ma" format="1">
  <advance width="869"/>
  <outline>
    <contour>
      <point x="743" y="-35" type="curve"/>
      <point x="723" y="49"/>
      <point x="706" y="149"/>
      <point x="706" y="251" type="curve" smooth="yes"/>
      <point x="706" y="412"/>
      <point x="720" y="460"/>
      <point x="732" y="567" type="curve"/>
      <point x="680" y="578" type="line"/>
      <point x="664" y="474"/>
      <point x="647" y="347"/>
      <point x="647" y="226" type="curve" smooth="yes"/>
      <point x="647" y="63"/>
      <point x="664" y="0"/>
      <point x="673" y="-51" type="curve"/>
      <point x="698" y="-51"/>
      <point x="724" y="-46"/>
    </contour>
    <contour>
      <point x="493" y="139" type="curve"/>
      <point x="429" y="177" type="line"/>
      <point x="426" y="112"/>
      <point x="403" y="81"/>
      <point x="362" y="81" type="curve" smooth="yes"/>
      <point x="330" y="81"/>
      <point x="310" y="101"/>
      <point x="310" y="130" type="curve" smooth="yes"/>
      <point x="310" y="158"/>
      <point x="329" y="182"/>
      <point x="358" y="182" type="curve" smooth="yes"/>
      <point x="394" y="182"/>
      <point x="435" y="168"/>
      <point x="448" y="133" type="curve"/>
      <point x="487" y="161" type="line"/>
      <point x="466" y="206"/>
      <point x="412" y="230"/>
      <point x="360" y="230" type="curve" smooth="yes"/>
      <point x="306" y="230"/>
      <point x="263" y="191"/>
      <point x="263" y="128" type="curve" smooth="yes"/>
      <point x="263" y="62"/>
      <point x="313" y="16"/>
      <point x="374" y="16" type="curve" smooth="yes"/>
      <point x="440" y="16"/>
      <point x="486" y="73"/>
    </contour>
    <contour>
      <point x="688" y="-21" type="line"/>
      <point x="659" y="89"/>
      <point x="522" y="181"/>
      <point x="464" y="211" type="curve"/>
      <point x="438" y="156" type="line"/>
      <point x="543" y="100"/>
      <point x="618" y="56"/>
      <point x="674" y="-50" type="curve"/>
    </contour>
    <contour>
      <point x="446" y="569" type="curve" smooth="yes"/>
      <point x="639" y="569"/>
      <point x="776" y="549"/>
      <point x="869" y="530" type="curve"/>
      <point x="871" y="537"/>
      <point x="874" y="550"/>
      <point x="874" y="563" type="curve" smooth="yes"/>
      <point x="874" y="573"/>
      <point x="872" y="583"/>
      <point x="869" y="589" type="curve"/>
      <point x="785" y="611"/>
      <point x="640" y="632"/>
      <point x="446" y="632" type="curve" smooth="yes"/>
      <point x="241" y="632"/>
      <point x="89" y="612"/>
      <point x="0" y="589" type="curve"/>
      <point x="-3" y="583"/>
      <point x="-5" y="574"/>
      <point x="-5" y="563" type="curve" smooth="yes"/>
      <point x="-5" y="551"/>
      <point x="-3" y="539"/>
      <point x="0" y="530" type="curve"/>
      <point x="91" y="550"/>
      <point x="244" y="569"/>
    </contour>
    <contour>
      <point x="490" y="167" type="line"/>
      <point x="454" y="265"/>
      <point x="402" y="332"/>
      <point x="332" y="382" type="curve"/>
      <point x="308" y="342" type="line"/>
      <point x="358" y="310"/>
      <point x="396" y="266"/>
      <point x="429" y="192" type="curve"/>
    </contour>
    <contour>
      <point x="92" y="385" type="curve" smooth="yes"/>
      <point x="69" y="385"/>
      <point x="40" y="394"/>
      <point x="23" y="410" type="curve"/>
      <point x="43" y="341" type="line"/>
      <point x="59" y="332"/>
      <point x="79" y="326"/>
      <point x="101" y="326" type="curve" smooth="yes"/>
      <point x="177" y="326"/>
      <point x="234" y="403"/>
      <point x="237" y="573" type="curve"/>
      <point x="191" y="580" type="line"/>
      <point x="188" y="445"/>
      <point x="155" y="385"/>
    </contour>
    <contour>
      <point x="526" y="448" type="curve" smooth="yes"/>
      <point x="526" y="522"/>
      <point x="475" y="571"/>
      <point x="403" y="595" type="curve"/>
      <point x="349" y="569" type="line"/>
      <point x="419" y="565"/>
      <point x="468" y="530"/>
      <point x="468" y="464" type="curve" smooth="yes"/>
      <point x="468" y="412"/>
      <point x="436" y="379"/>
      <point x="385" y="379" type="curve" smooth="yes"/>
      <point x="310" y="379"/>
      <point x="254" y="454"/>
      <point x="252" y="580" type="curve"/>
      <point x="209" y="573" type="line"/>
      <point x="211" y="406"/>
      <point x="294" y="317"/>
      <point x="392" y="317" type="curve" smooth="yes"/>
      <point x="468" y="317"/>
      <point x="526" y="371"/>
    </contour>
    <contour>
      <point x="691" y="-36" type="move" name="blwm"/>
    </contour>
    <contour>
      <point x="504" y="-35" type="move" name="haln"/>
    </contour>
    <contour>
      <point x="654" y="690" type="move" name="reph"/>
    </contour>
    <contour>
      <point x="654" y="690" type="move" name="chandrabindu"/>
    </contour>
  </outline>
</glyph>
